<svg width="383" height="54" viewBox="0 0 383 54" fill="none" xmlns="http://www.w3.org/2000/svg">
<path d="M180.744 10.0571C180.572 10.8286 180.172 26.1429 180.144 31.6286C180.144 35 180.201 35.4571 180.744 36.2C181.144 36.7143 181.658 37.0286 182.258 37.0857C183.315 37.2 183.658 36.6 183.172 35.5143C182.372 33.8 182.286 30.5429 182.744 22.1429C183.172 14.0857 183.115 10.5143 182.515 9.77143C182.001 9.17143 180.886 9.34286 180.744 10.0571Z" fill="#FDFFFC"/>
<path d="M248.028 12.6857C247.486 13.3428 246.857 17.4 246.486 22.8571C246.114 27.8857 246.114 27.8857 245.057 29.6285C243.314 32.5142 240.6 34.5714 239.057 34.1714C237.971 33.9142 237.428 33.2285 237.428 32.1142C237.428 30.8 238.057 29.6285 239.286 28.6857C240.371 27.8571 241.028 27.7714 243.228 28.1428C244.486 28.3428 244.571 28.3142 244.571 27.7428C244.571 25.4571 241.428 24.4 238.657 25.7428C234.057 27.9714 233.428 36.2 237.828 37.0285C240.428 37.5142 243.428 36 245.771 33.0571C246.4 32.2285 247.057 31.5714 247.228 31.5714C247.4 31.5714 247.857 32.3714 248.257 33.3714C248.943 35.0285 250.286 36.8571 250.857 36.8571C250.971 36.8571 251.228 36.6571 251.428 36.4285C251.828 35.9428 251.886 36.1428 250.171 31.3428C248.971 28.0857 248.886 26.6285 249.743 24.5142C250.2 23.3142 250.371 22.1428 250.486 18.9714C250.686 14.0857 250.543 13.0571 249.543 12.6285C248.628 12.2 248.428 12.2 248.028 12.6857Z" fill="#FDFFFC"/>
<path d="M308.857 12.9143C308.229 14.3714 307.429 20.4857 307.429 23.7143C307.429 26.9429 307.4 27.1429 306.514 28.8572C304.829 32.1429 301.829 34.5429 299.971 34.1429C298.057 33.7143 297.829 31.4572 299.514 29.5143C300.743 28.1429 301.857 27.6857 303.314 28C303.914 28.1429 304.743 28.2857 305.114 28.2857C305.686 28.2857 305.743 28.2 305.571 27.4857C305.257 26.1143 304.2 25.3429 302.486 25.2C300.629 25.0572 299.143 25.7143 297.714 27.3143C296.4 28.8286 296 29.9714 296 32.3429C296 34.7714 296.343 35.5714 297.714 36.5143C298.571 37.1143 298.943 37.1714 300.371 37.0286C302.914 36.7714 304.571 35.7143 306.971 32.7714C307.571 32.0286 308.171 31.4286 308.286 31.4286C308.4 31.4286 308.8 32.2 309.143 33.1714C309.829 35 311.429 37 312.057 36.8C312.657 36.6 312.657 35 312.057 33.8C311.4 32.5143 310 28.0286 310 27.2C310 26.8857 310.343 25.6286 310.743 24.4C311.429 22.3429 311.514 21.7429 311.514 17.7429C311.486 13.5143 311.457 13.2857 310.857 12.8C310 12.1143 309.2 12.1429 308.857 12.9143Z" fill="#FDFFFC"/>
<path d="M60.7139 16.057C60.6568 16.257 60.5711 17.4856 60.5139 18.7713C60.4568 20.057 60.3425 21.1713 60.2568 21.257C60.1711 21.3713 58.9997 21.5999 57.6854 21.7713C56.3711 21.9427 55.0568 22.2856 54.7997 22.5142C54.1139 23.0856 54.1425 24.6284 54.8568 25.2856C55.3425 25.7142 55.5711 25.7427 56.6282 25.457C59.5711 24.6284 60.0854 24.5427 60.3997 24.857C60.5711 25.0284 60.7997 27.3427 60.9139 30.1999C61.1139 35.057 61.1711 35.3142 61.9425 36.5427C63.0568 38.3427 63.7997 38.5713 66.2854 37.7427C67.3711 37.3999 68.6568 36.7713 69.1425 36.3713C71.4282 34.4856 71.8568 30.857 69.8568 30.857C69.2282 30.857 68.5711 31.857 68.5711 32.8284C68.5711 34.0856 66.0282 35.5427 64.7139 35.0284C63.9139 34.7427 63.6282 33.3142 63.4854 28.5427L63.3711 23.7999L65.4568 23.3142C66.6282 23.057 68.1711 22.7427 68.9139 22.657C70.3711 22.4856 71.2568 21.7999 70.9711 21.0284C70.7139 20.3427 69.6568 20.1999 66.4282 20.3999C63.0854 20.5999 63.1425 20.6284 63.1425 18.3142C63.1425 17.5713 62.9425 16.7142 62.6854 16.3427C62.2282 15.657 60.9139 15.4856 60.7139 16.057Z" fill="#FDFFFC"/>
<path d="M114.371 15.9142C114.114 15.9999 114 16.8285 114 18.5999C114 21.5428 114.029 21.5142 110.8 21.8856C109.829 21.9999 108.714 22.2856 108.371 22.5142C107.486 23.0856 107.514 24.2856 108.429 25.1428C109.143 25.8285 109.171 25.8285 110.657 25.3428C111.457 25.0856 112.543 24.7999 113.057 24.7142C114.2 24.4856 114.2 24.4571 114.4 30.257C114.543 34.0856 114.657 34.857 115.257 36.1713C116.371 38.5999 117.629 38.8285 121.2 37.1999C122.8 36.4856 123.2 36.1428 123.771 35.0856C125.029 32.6856 124.971 30.857 123.6 30.857C122.8 30.857 122.429 31.257 122.143 32.4856C121.829 33.9999 121 34.7999 119.543 35.0285C117.457 35.3428 117.371 35.1428 117.057 29.257C116.829 24.8856 116.857 24.1428 117.229 23.857C117.457 23.6856 118.914 23.3142 120.457 23.0285C123.943 22.3999 124.571 22.1713 124.571 21.4571C124.571 20.3713 123.886 20.1999 120.429 20.3713C118.4 20.4856 117.086 20.4571 117 20.257C116.886 20.1142 116.743 19.2571 116.657 18.3428C116.429 16.1428 115.714 15.3713 114.371 15.9142Z" fill="#FDFFFC"/>
<path d="M190.858 16.2572C190.715 16.5715 190.572 17.8572 190.572 19.0858V21.3715L188.772 21.6858C187.772 21.8572 186.629 22 186.2 22C185.458 22 184.286 23.1429 184.286 23.8858C184.286 24.0858 184.6 24.6 184.972 25.0572L185.658 25.8286L187.172 25.3715C189.6 24.6286 190.486 24.5143 190.715 24.8572C190.829 25.0286 191.029 27.4286 191.172 30.1715C191.429 35.5143 191.8 36.8572 193.2 37.8286C194.086 38.4572 194.8 38.4 197 37.6C199.258 36.8 199.829 36.2858 200.743 34.5143C201.829 32.3715 201.486 30.6858 199.972 30.9143C199.429 30.9715 199.229 31.2572 199 32.1429C198.572 33.8286 198.115 34.4858 197.115 34.8286C194.486 35.7429 194.029 35.0572 193.743 29.8C193.543 26.5715 193.6 23.7143 193.829 23.7143C194.2 23.7143 200.629 22.2858 200.858 22.1429C201 22.0572 201.143 21.6572 201.143 21.2858C201.143 20.3429 200.486 20.2 196.743 20.3143L193.572 20.4286L193.429 18.7143C193.343 17.7715 193.115 16.7143 192.915 16.3429C192.458 15.5429 191.286 15.5143 190.858 16.2572Z" fill="#FDFFFC"/>
<path d="M138.77 18.1714C135.999 19.0286 131.542 24.2 130.113 28.2286C129.142 30.9428 129.142 34.9714 130.113 37C131.028 38.9714 133.342 41.2857 135.342 42.2286C136.885 42.9428 137.256 43 140.713 42.9714C144.599 42.9714 150.828 42.0571 151.599 41.4C151.828 41.2 151.999 40.8 151.942 40.4857C151.799 39.5143 150.485 39.2857 147.428 39.6857C139.628 40.6857 136.742 40.3714 134.656 38.3714L133.57 37.2857L135.57 37.1143C137.77 36.9143 138.313 36.7428 139.513 35.9143L140.342 35.3714L141.399 36.4C142.342 37.3143 142.599 37.4286 143.942 37.4286C145.17 37.4286 145.599 37.2857 146.17 36.7143C147.113 35.7714 147.942 33.7428 148.342 31.4286C149.199 26.4571 146.399 20.5428 142.199 18.4286C140.542 17.6 140.599 17.6286 138.77 18.1714ZM143.313 22.3143C144.885 23.8286 145.799 25.8571 145.942 28.1143C146.085 30.4857 145.685 32.2571 144.713 33.3428C144.17 34 143.942 34.0857 143.513 33.8286C143.228 33.6571 142.97 33.1428 142.913 32.6857C142.77 31.0286 142.542 30.5428 141.685 30.0286C141.17 29.7143 140.942 29.4 141.113 29.3143C141.628 28.9714 141.456 28.0571 140.799 27.6C139.885 26.9714 137.37 27 136.056 27.6857C135.485 27.9714 134.485 28.6286 133.856 29.1428C132.913 29.8857 132.685 29.9714 132.628 29.5714C132.485 28.8571 133.828 26.2857 135.456 24.1714C136.57 22.7428 137.313 22.1143 138.628 21.4571C140.285 20.6286 140.37 20.6 141.399 21.0286C141.97 21.2571 142.828 21.8571 143.313 22.3143ZM139.456 30.1714C139.113 30.6 138.856 31.2286 138.856 31.5714C138.856 33.2 136.256 34.6571 135.228 33.6286C134.856 33.2571 134.828 33.0571 135.113 32.3143C135.313 31.8571 135.685 31.2857 135.942 31.0571C136.77 30.3428 138.685 29.4286 139.37 29.4286H140.028L139.456 30.1714Z" fill="#FDFFFC"/>
<path d="M171.6 19.1141C170.771 20.0284 171.114 20.9141 172.714 21.7998C174.171 22.5998 176 22.7427 176.2 22.0855C176.257 21.9141 175.743 21.0855 175.057 20.2284C173.657 18.4855 172.486 18.1141 171.6 19.1141Z" fill="#FDFFFC"/>
<path d="M289.772 18.9142C289.4 19.2856 289.314 20.5427 289.657 21.057C290 21.5999 292.343 22.5713 293.372 22.5713C294.657 22.5713 294.6 21.7427 293.086 19.9713C292.143 18.857 291.743 18.5713 291 18.5713C290.514 18.5713 289.972 18.7142 289.772 18.9142Z" fill="#FDFFFC"/>
<path d="M274.058 22.9428C273.258 23.8 273.258 24.8285 274.115 26.5142C274.486 27.2571 275.029 28.6857 275.286 29.7142C275.944 32.0285 276.886 33.9714 278.029 35.2857C279.801 37.3142 281.515 36.4571 285.001 31.7428C287.001 29.0571 289.429 24.9428 289.429 24.2571C289.429 23.5428 288.658 22.8571 287.829 22.8571C287.229 22.8571 286.944 23.2285 285.858 25.5142C284.658 28.0285 282.486 31.2285 281.201 32.4C280.286 33.2 279.286 32.8 278.572 31.4C277.829 29.9428 276.858 26.2571 276.858 24.8571C276.858 23.6571 275.944 22.2857 275.172 22.2857C274.886 22.2857 274.401 22.5714 274.058 22.9428Z" fill="#FDFFFC"/>
<path d="M14.3714 24.1713C12.7429 24.7713 9.54286 28.1427 9.25714 29.5713C8.45714 33.9427 10.7714 36.2284 17.4 37.5998C21.4286 38.4284 22 38.457 22.8 37.7141C24.2286 36.3713 23.5429 35.8856 19.1714 34.9998C15.2 34.1998 13.8857 33.7141 12.8 32.657C11.6286 31.5141 11.7143 30.3998 13.1714 28.7713C15.2 26.4284 17.4571 26.2856 18.4857 28.4284C18.8857 29.2856 19.1143 29.4284 19.9143 29.4284C20.6571 29.4284 20.8857 29.2856 21.0286 28.7141C21.6571 26.257 19.1714 23.657 16.2857 23.7427C15.8857 23.7427 15.0286 23.9427 14.3714 24.1713Z" fill="#FDFFFC"/>
<path d="M98.9143 24.457C96.1714 25.8284 94 28.8856 94 31.3141C94.0286 33.3427 95.7143 35.4284 98.1714 36.457C99.4286 36.9713 105.229 38.2856 106.286 38.2856C107.029 38.2856 108.571 37.3427 108.571 36.8856C108.571 36.0856 107.571 35.657 103.771 34.8856C99.6 34.0284 98.0571 33.3713 97.2571 32.1141C96.6286 31.1713 97.1429 29.7999 98.6 28.3141C100.514 26.3999 102.743 26.457 103.543 28.4284C103.943 29.3713 104.086 29.457 104.914 29.3713C105.829 29.2856 105.857 29.257 105.943 27.7713C106.029 26.3427 105.971 26.1713 105 25.2856C103.229 23.5999 101.2 23.3141 98.9143 24.457Z" fill="#FDFFFC"/>
<path d="M327.514 24.1713C325.885 24.7713 322.685 28.1427 322.4 29.5713C321.6 33.9427 323.914 36.2284 330.543 37.5998C334.571 38.4284 335.143 38.457 335.943 37.7141C337.371 36.3713 336.685 35.8856 332.314 34.9998C328.343 34.1998 327.028 33.7141 325.943 32.657C324.771 31.5141 324.857 30.3998 326.314 28.7713C328.343 26.4284 330.6 26.2856 331.628 28.4284C332.028 29.2856 332.257 29.4284 333.057 29.4284C333.8 29.4284 334.028 29.2856 334.171 28.7141C334.8 26.257 332.314 23.657 329.428 23.7427C329.028 23.7427 328.171 23.9427 327.514 24.1713Z" fill="#FDFFFC"/>
<path d="M29.686 24.5713C29.2574 24.6855 28.0003 25.3427 26.886 25.9998L24.8574 27.1998L25.0289 30.1141C25.3431 35.3141 26.5431 36.4284 31.7146 36.4284C35.486 36.4284 37.0289 35.8284 39.1431 33.5141C40.3717 32.1713 40.5717 31.7998 40.5717 30.7427C40.5717 26.857 34.1717 23.1998 29.686 24.5713ZM34.6289 27.4284C36.4003 28.1141 38.0003 29.5713 38.0003 30.5141C38.0003 31.5998 36.1146 33.2855 34.286 33.8284C32.0574 34.4855 30.286 34.4284 29.1146 33.6284C28.2289 33.057 28.1431 32.8284 28.0574 31.4855C27.9717 30.057 28.0289 29.9141 29.0574 28.9427C30.5146 27.5998 31.7146 26.857 32.486 26.857C32.8574 26.857 33.8003 27.1141 34.6289 27.4284Z" fill="#FDFFFC"/>
<path d="M48.4865 25.2572C47.9722 25.7715 47.0865 26.8 46.4865 27.5429C45.8865 28.2572 45.2579 28.8572 45.115 28.8572C44.9722 28.8572 44.8579 28.1715 44.8579 27.3429C44.8579 25.7143 44.515 25.1429 43.5436 25.1429C42.6865 25.1429 42.2008 25.8572 42.3722 26.7715C42.4579 27.2286 42.4008 29.1429 42.2293 31.0858L41.915 34.6286L42.6579 35.3429C43.0293 35.7429 43.515 36 43.6579 35.8858C43.8293 35.7715 44.5722 34.7143 45.315 33.4858C46.8008 31.0286 48.6579 28.7143 49.4579 28.2858C50.4008 27.7715 51.0293 28.8 51.5722 31.7429C52.0293 34.3429 52.9722 36.5715 53.6008 36.5715C53.7436 36.5715 54.1436 36.4 54.4293 36.1715C54.9722 35.8 54.9722 35.7143 54.4865 33.6858C54.2293 32.5143 53.9436 30.9143 53.8579 30.1429C53.2293 25.1429 50.715 22.8572 48.4865 25.2572Z" fill="#FDFFFC"/>
<path d="M208.829 24.5713C208.4 24.6855 207.143 25.3427 206.029 25.9998L204 27.1998L204.171 30.1141C204.486 35.3141 205.686 36.4284 210.857 36.4284C214.629 36.4284 216.171 35.8284 218.286 33.5141C219.514 32.1713 219.714 31.7998 219.714 30.7427C219.714 26.857 213.314 23.1998 208.829 24.5713ZM213.771 27.4284C215.543 28.1141 217.143 29.5713 217.143 30.5141C217.143 31.5998 215.257 33.2855 213.429 33.8284C211.2 34.4855 209.429 34.4284 208.257 33.6284C207.371 33.057 207.286 32.8284 207.2 31.4855C207.114 30.057 207.171 29.9141 208.2 28.9427C209.657 27.5998 210.857 26.857 211.629 26.857C212 26.857 212.943 27.1141 213.771 27.4284Z" fill="#FDFFFC"/>
<path d="M227.628 25.2572C227.114 25.7715 226.228 26.8 225.628 27.5429C225.028 28.2572 224.399 28.8572 224.257 28.8572C224.114 28.8572 223.999 28.1715 223.999 27.3429C223.999 25.7143 223.657 25.1429 222.685 25.1429C221.828 25.1429 221.342 25.8572 221.514 26.7715C221.599 27.2286 221.542 29.1429 221.371 31.0858L221.057 34.6286L221.799 35.3429C222.171 35.7429 222.657 36 222.799 35.8858C222.971 35.7715 223.714 34.7143 224.457 33.4858C225.942 31.0286 227.799 28.7143 228.599 28.2858C229.542 27.7715 230.171 28.8 230.714 31.7429C231.171 34.3429 232.114 36.5715 232.742 36.5715C232.885 36.5715 233.285 36.4 233.571 36.1715C234.114 35.8 234.114 35.7143 233.628 33.6858C233.371 32.5143 233.085 30.9143 232.999 30.1429C232.371 25.1429 229.857 22.8572 227.628 25.2572Z" fill="#FDFFFC"/>
<path d="M342.829 24.5713C342.4 24.6855 341.143 25.3427 340.029 25.9998L338 27.1998L338.171 30.1141C338.486 35.3141 339.686 36.4284 344.857 36.4284C348.629 36.4284 350.171 35.8284 352.286 33.5141C353.514 32.1713 353.714 31.7998 353.714 30.7427C353.714 26.857 347.314 23.1998 342.829 24.5713ZM347.771 27.4284C349.543 28.1141 351.143 29.5713 351.143 30.5141C351.143 31.5998 349.257 33.2855 347.429 33.8284C345.2 34.4855 343.429 34.4284 342.257 33.6284C341.371 33.057 341.286 32.8284 341.2 31.4855C341.114 30.057 341.171 29.9141 342.2 28.9427C343.657 27.5998 344.857 26.857 345.629 26.857C346 26.857 346.943 27.1141 347.771 27.4284Z" fill="#FDFFFC"/>
<path d="M78.8576 25.6C77.6004 26.1429 74.9719 28.6858 74.2576 30.0572C73.5147 31.5429 73.5719 33.2572 74.429 34.7143C76.2576 37.8572 80.5147 37.4858 84.0576 33.8858L85.629 32.3143L87.5147 34.4C88.5433 35.5429 89.7719 36.6572 90.2576 36.8572C91.2576 37.2572 92.5147 36.9429 92.9719 36.1715C93.229 35.7715 93.1433 35.5715 92.429 35.0572C90.3147 33.5143 89.1147 32.1143 87.8862 29.7429C87.029 28.0858 86.3719 27.1429 85.8576 26.9143C85.4576 26.7429 85.1433 26.4 85.1433 26.1715C85.1433 25.2 80.7147 24.8 78.8576 25.6ZM83.8862 28.6286C83.4576 31.3715 81.229 33.6572 78.7433 33.9143C77.7433 34.0286 77.3719 33.9429 76.8862 33.4572C75.8862 32.4572 76.1147 31.3715 77.6576 29.7143C79.1719 28.0858 80.5433 27.4572 82.6862 27.4286H84.0862L83.8862 28.6286Z" fill="#FDFFFC"/>
<path d="M258.228 25.4858C256.886 26.1144 254.314 28.5715 253.686 29.7715C252.771 31.5429 252.828 33.3429 253.8 34.8287C254.828 36.3715 256.171 36.9715 258.171 36.7715C260.114 36.5715 261.143 36.0001 263.228 33.9715C264.2 33.0572 265 32.2858 265 32.2858C265.028 32.2858 265.714 33.1144 266.543 34.1144C267.4 35.1429 268.628 36.2572 269.286 36.6001C270.343 37.1715 270.6 37.2001 271.371 36.8858C272.428 36.4287 272.8 35.6858 272.143 35.2858C270.171 34.1144 268.628 32.4572 267.457 30.2287C266.771 28.9144 265.628 27.2858 264.943 26.6001C263.714 25.3715 263.686 25.3715 261.343 25.2572C259.8 25.1715 258.743 25.2572 258.228 25.4858ZM263.257 28.2001C262.657 30.9715 261.543 32.5715 259.571 33.4572C258 34.2001 256.971 34.1429 256.143 33.2858C255.2 32.3715 255.228 31.9144 256.428 30.2858C258 28.1429 259.257 27.5144 262.086 27.4572C263.428 27.4287 263.428 27.4287 263.257 28.2001Z" fill="#FDFFFC"/>
<path d="M164.286 27.1714C163.458 28.1428 162.543 29.3143 162.229 29.7428C161.886 30.2 161.515 30.4857 161.372 30.4C161.258 30.3143 161.143 29.5143 161.143 28.6C161.143 26.5143 160.543 25.8285 159 26.1143C158.4 26.2285 157.915 26.5143 157.829 26.8C157.486 27.8285 156.686 29.2 156.086 29.7714C155.372 30.4285 155.315 30.3714 155 28.4857C154.829 27.4 153.743 26.3428 153.143 26.7143C152.715 26.9714 152.743 35.7714 153.2 36.2285C154.058 37.0857 154.715 36.6 156.572 33.7714L158.429 31L158.572 33C158.743 35.3714 158.915 35.7143 159.972 35.7143C160.572 35.7143 160.972 35.4285 161.686 34.4285C163.286 32.2 165.772 29.6571 166.058 29.9428C166.229 30.1143 166.515 31.2 166.715 32.4C167.172 35.0571 167.886 36.4 168.915 36.5143C169.829 36.6285 170.029 36.1428 169.715 34.6857C169.572 34.0571 169.258 32.2571 169.029 30.6571C168.543 27.3428 168 26.0857 166.972 25.7143C165.886 25.2857 165.829 25.3143 164.286 27.1714Z" fill="#FDFFFC"/>
<path d="M368.342 26C368.028 26.3143 367 27.5143 366.085 28.6286L364.428 30.7143L364.285 28.8286C364.142 26.7715 363.714 26 362.714 26C361.6 26 361.2 26.2858 360.6 27.5143C360.257 28.1715 359.685 29.0858 359.285 29.5715C358.685 30.2858 358.542 30.3715 358.285 30C358.142 29.7715 358 29.2286 358 28.8C358 27.7429 357.742 27.1715 357.085 26.8286C355.942 26.2 355.714 26.8858 355.714 31.1715C355.714 35.6572 355.942 36.5715 356.971 36.5715C357.571 36.5715 358 36.0858 359.457 33.8572C360.428 32.3715 361.342 31.2286 361.485 31.3143C361.6 31.4 361.714 32.2286 361.714 33.1429C361.714 35.3143 361.885 35.7143 362.857 35.7143C363.542 35.7143 363.971 35.3143 365.514 33.3429C367.657 30.6286 368.714 29.6 369.085 29.8286C369.228 29.9143 369.428 30.6572 369.542 31.4858C369.942 34.7143 371.028 36.7429 372.2 36.5143C372.8 36.4 372.828 35.4858 372.314 32.2858C371.542 27.6286 371.371 27.0572 370.571 26.2286C369.6 25.2858 369.171 25.2286 368.342 26Z" fill="#FDFFFC"/>
<path d="M172.97 27.2C172.399 28.0857 173.142 35.5143 173.885 36.3143C174.485 37 175.342 37.0286 175.542 36.3429C175.942 34.9715 176.027 33.1143 175.713 32C175.542 31.3429 175.285 30.0857 175.142 29.2286C174.999 28.3715 174.713 27.4857 174.542 27.2572C174.142 26.7715 173.256 26.7429 172.97 27.2Z" fill="#FDFFFC"/>
<path d="M291.171 27.1142C290.8 27.3428 290.8 27.9428 291.085 31.2857C291.457 35.5142 291.8 36.6571 292.8 36.7999C294.314 37.0285 294.371 32.9999 292.914 27.7142C292.685 26.9428 291.857 26.6571 291.171 27.1142Z" fill="#FDFFFC"/>
<path d="M316.373 33.6C315.573 34.2286 315.43 34.5143 315.43 35.5715C315.43 36.5429 315.573 36.9143 316.058 37.2572C317.001 37.9143 318.115 37.8 319.115 36.9715C319.801 36.4 320.001 36 320.001 35.1715C320.001 32.9143 318.23 32.1429 316.373 33.6Z" fill="#FDFFFC"/>
</svg>
