<svg xmlns="http://www.w3.org/2000/svg" fill="none" viewBox="0 0 314 409">
  <g clip-path="url(#a)">
    <path fill="#FFC85B" fill-rule="evenodd"
      d="M21.43 20.48a1.41 1.41 0 1 0-2.818 0v.673c-.001 5.016-.002 10.061.557 15.16.688 6.265 1.161 12.548 1.636 18.857l.03.405c.486 6.438.977 12.901 1.706 19.35 1.464 12.97 1.715 25.531 1.715 38.687 0 12.783.721 24.91 2.126 37.549.793 7.141.754 14.283.714 21.543-.009 1.594-.018 3.193-.018 4.799 0 2.689.026 5.371.05 8.049.081 8.597.161 17.135-.593 25.614-1.227 13.802-1.09 27.796-.953 41.655.043 4.361.085 8.708.085 13.032 0 18.073-1.055 36.022-2.114 54.007l-.003.056c-1.057 17.953-2.116 35.941-2.116 54.043a1.41 1.41 0 0 0 2.819 0c0-18.019 1.055-35.938 2.113-53.918v-.016c1.059-17.971 2.12-36.003 2.12-54.172 0-4.386-.043-8.774-.086-13.159v-.001c-.135-13.827-.27-27.627.943-41.277.767-8.631.685-17.36.604-25.986-.025-2.654-.05-5.298-.05-7.927 0-1.571.009-3.147.018-4.726.04-7.267.081-14.608-.732-21.927-1.394-12.543-2.108-24.566-2.108-37.238 0-13.183-.251-25.871-1.734-39.003-.721-6.389-1.21-12.802-1.695-19.245l-.032-.426c-.474-6.294-.95-12.619-1.643-18.933-.542-4.94-.541-9.845-.54-14.902v-.623ZM176.158 377.36c35.786-1.346 71.482-1.869 107.291-1.869a1.532 1.532 0 1 0 0-3.064c-35.838 0-71.574.523-107.406 1.871-3.706.139-7.417.275-11.133.412-32.528 1.195-65.405 2.402-97.793 5.773-15.038 1.565-32.347 4.327-46.257 11.121a1.532 1.532 0 0 0 1.345 2.754c13.392-6.541 30.236-9.267 45.23-10.827 32.278-3.359 65.049-4.563 97.59-5.759h.002l.044-.002.047-.001.052-.002c3.666-.135 7.329-.27 10.988-.407ZM313.442 31a2.884 2.884 0 0 1 2.884 2.884c0 1.743.164 3.493.344 5.417l.033.344c.187 2.01.381 4.198.328 6.457-.099 4.265-.816 8.52-1.617 12.602-.22 1.119-.445 2.218-.666 3.303l-.002.012-.002.007c-.6 2.94-1.178 5.77-1.583 8.601-2.063 14.443-3.065 29.347-4.058 44.109v.002c-.129 1.914-.257 3.825-.388 5.733-.585 8.544-1.29 17.077-1.993 25.586l-.034.422c-.715 8.656-1.426 17.288-2.01 25.926-.72 10.656-1.245 21.344-1.76 32.046-.268 5.548-.959 10.987-1.72 16.329-.188 1.322-.38 2.636-.571 3.943l-.001.003c-.586 4.008-1.164 7.962-1.603 11.964-.747 6.811-1.752 13.662-2.749 20.459l-.001.001v.003c-.473 3.221-.943 6.431-1.384 9.618-1.38 9.979-2.487 19.867-2.551 29.752-.1 15.281.45 30.214 3.129 45.096 1.564 8.689 1.003 17.324-.343 25.739a2.884 2.884 0 1 1-5.696-.912c1.293-8.08 1.767-16.002.362-23.806-2.77-15.392-3.321-30.733-3.22-46.155.067-10.267 1.215-20.452 2.605-30.504.455-3.289.933-6.55 1.41-9.796v-.004c.989-6.739 1.968-13.411 2.704-20.12.452-4.115 1.051-8.214 1.641-12.248.189-1.289.376-2.572.558-3.846.755-5.302 1.414-10.524 1.668-15.793.516-10.698 1.043-21.439 1.767-32.158.587-8.687 1.302-17.362 2.016-26.012l.034-.405c.703-8.521 1.405-17.019 1.988-25.522l.386-5.706.001-.017c.99-14.737 2.007-29.87 4.103-44.542.431-3.015 1.061-6.097 1.672-9.09.216-1.057.429-2.102.631-3.13.788-4.017 1.423-7.874 1.51-11.624.044-1.882-.115-3.761-.304-5.786l-.039-.407c-.175-1.863-.363-3.867-.363-5.891A2.884 2.884 0 0 1 313.442 31Zm-209.173-4.677c14.294-.134 28.549-.398 42.792-.661 20.284-.375 40.544-.75 60.864-.75H280.243a2.163 2.163 0 1 0 0-4.326H207.925c-20.331 0-40.691.376-61.026.752-14.241.263-28.471.526-42.671.66-14.309.134-28.673.642-43.003 1.15-10.53.372-21.04.744-31.497.966a2.163 2.163 0 1 0 .092 4.325c10.61-.225 21.154-.6 31.68-.973 14.246-.505 28.461-1.009 42.769-1.143Z"
      clip-rule="evenodd" />
    <g clip-path="url(#b)">
      <rect width="250.91" height="334.547" x="31.557" y="32.844" fill="#252533" rx="6.257" />
      <path fill="#FDFFFC"
        d="M160.54 139.835c-1.563 3.741-.474 12.785 1.799 15.153.9.947.9.947 1.799-.142 2.7-3.267 1.184-16.669-1.894-16.669-.71 0-1.184.521-1.704 1.658ZM116.548 149.162c-2.557 2.226-2.652 8.193-.189 11.034 1.657 1.894 2.699 2.178 4.593 1.373l1.468-.615v-5.162c0-4.546-.095-5.398-.947-6.44-1.231-1.563-3.22-1.61-4.925-.19ZM188.054 176.77c-10.75 10.797-16.574 15.722-27.134 22.825-13.117 8.808-20.552 11.696-29.928 11.696-4.688 0-5.777-.142-7.813-1.041-2.936-1.374-4.783-3.078-5.494-5.162-.663-2.036-1.231-1.989-1.657.095-.663 3.504 1.989 8.997 5.54 11.601 5.636 4.073 16.29 3.789 27.94-.71 11.696-4.499 28.081-15.769 37.504-25.808 4.688-4.972 9.471-11.318 11.318-15.011 1.184-2.463 1.373-3.268 1.136-5.02-.663-4.356-.568-4.404-11.412 6.535Z" />
      <path fill="#B1B1B1"
        d="M46.366 18.006c-2.892.648-4.46 3.762-3.13 6.196 1.216 2.182 1.248 2.188 16.36 5.166 13.37 2.634 13.807 2.753 14.29 3.474.739 1.1.294 3.02-.83 3.72-.829.528-1.152.497-6.57-.57-4.847-.956-5.88-1.06-7.089-.772-1.518.359-3.484 1.815-4 2.93-.29.635-.524.655-3.343.264l-3.04-.435-2.891 1.306-2.897 1.339-2.54-.468c-6.47-1.242-12.31.833-15.823 5.637-5.52 7.47-2.895 17.696 5.552 21.763 4.661 2.235 9.84 1.84 14.202-1.085l2.193-1.444 4.087.805 4.087.805 1.533 2.244c3.682 5.366 9.9 7.546 16.31 5.748 9.517-2.699 13.55-14.312 7.808-22.586-2.238-3.173-5.505-5.133-10.289-6.075l-2.63-.519-2.235-2.35-2.21-2.31-2.98-.752-2.978-.752 1.41-.973 1.37-.947 6.02 1.186c5.703 1.124 6.058 1.16 7.178.657 1.79-.733 2.718-1.768 3.257-3.505.383-1.274.362-1.837-.078-3.109-.97-2.758-.66-2.664-16.438-5.773l-13.94-2.747-.547-.898c-.623-1.011-.404-1.79.715-2.46.525-.324 1.595-.244 5.378.435 4.105.71 4.783.778 5.2.334.328-.33.39-.647.218-1.109-.223-.538-.875-.732-4.95-1.6-3.378-.732-5.012-.956-5.74-.77ZM62.55 43.773c.642.752.642.752-7.12-.778-7.769-1.497-7.769-1.497-6.852-1.975.841-.427 1.456-.372 7.127.746 5.735 1.13 6.292 1.306 6.845 2.007Zm13.401 6.985c3.206 2.442 5.053 6.426 4.824 10.265-.383 5.618-3.76 9.89-9.005 11.292-2.158.595-2.52.59-5.656-.029-3.168-.624-3.415-.706-5.11-2.126-1.587-1.3-2.388-2.412-3.757-4.986-.407-.771-.686-.859-5.819-1.87l-5.386-1.062-.897.712c-1.971 1.652-3.963 2.74-5.767 3.208-1.696.423-2.348.393-5.104-.15-2.788-.55-3.372-.763-4.806-1.835-2.132-1.54-4.116-4.498-4.732-7.055-.422-1.696-.418-2.386.094-4.984.487-2.47.776-3.27 1.628-4.418 2.132-2.97 5.192-4.803 8.882-5.326 1.93-.278 2.54-.191 20.516 3.45l18.521 3.715 1.575 1.2Z" />
      <path fill="#B1B1B1"
        d="M35.469 46.071c-.265.178-.63 1.192-.88 2.46l-.424 2.154-2.154-.424c-1.268-.25-2.345-.298-2.61-.12-.607.407-1.506 4.97-1.099 5.576.178.266 1.193.63 2.46.88l2.154.425-.424 2.154c-.25 1.267-.298 2.344-.12 2.61.408.606 4.97 1.505 5.577 1.098.265-.178.63-1.192.88-2.46l.424-2.154 2.154.425c1.267.25 2.344.297 2.61.119.606-.407 1.505-4.97 1.098-5.576-.178-.266-1.192-.63-2.46-.88l-2.154-.424.425-2.155c.25-1.267.297-2.344.12-2.61-.179-.265-1.257-.642-2.714-.929-1.457-.287-2.598-.347-2.863-.169Zm2.573 4.983c-.25 1.267-.298 2.344-.12 2.61.178.265 1.193.63 2.46.88 1.933.38 2.142.487 2.03 1.057-.113.57-.347.59-2.28.21-1.267-.25-2.344-.298-2.61-.12-.265.178-.629 1.193-.879 2.46-.38 1.932-.488 2.142-1.058 2.03-.57-.113-.59-.347-.209-2.28.25-1.267.297-2.344.12-2.61-.179-.265-1.193-.63-2.46-.879-1.933-.38-2.142-.488-2.03-1.058.112-.57.347-.59 2.28-.21 1.267.25 2.343.298 2.609.12.265-.178.63-1.192.88-2.46.38-1.932.487-2.142 1.058-2.03.57.113.59.347.209 2.28ZM68.308 52.642c-2.772.869-2.678 4.738.13 5.686 1.141.39 1.445.351 2.469-.336 1.75-1.202 1.903-3.476.316-4.776-1.06-.801-1.72-.964-2.915-.574Zm1.433 2.915a.497.497 0 0 1-.569.382.497.497 0 0 1-.381-.569.497.497 0 0 1 .569-.382c.253.05.431.316.381.57ZM61.58 56.715c-1.404.941-1.785 2.544-.977 3.954 1.616 2.82 5.925 1.332 5.517-1.94-.266-2.16-2.682-3.26-4.54-2.014Zm2.191 2.406c-.087.444-.714.617-1.05.32-.165-.164-.185-.398-.059-.538.329-.33 1.184-.162 1.11.218ZM72.117 58.687c-.923.51-1.194.884-1.382 1.834-.362 1.838.516 3.229 2.259 3.572 1.742.343 3.082-.61 3.444-2.448.188-.95.079-1.4-.582-2.221-.445-.581-1.2-1.092-1.707-1.192-.507-.1-1.4.086-2.032.455Zm1.951 2.458c.147.424-.53.686-.891.351-.305-.29.029-.817.472-.73.159.032.324.196.42.38ZM49.637 54.196c-.31.236-.617 1.294-.86 2.859-.311 1.913-.271 2.547.116 2.92.33.327.647.39 1.109.218.468-.204.745-.775 1.183-2.664.6-2.547.472-3.395-.542-3.595-.317-.063-.766.046-1.006.262ZM53.436 54.946c-.31.236-.617 1.294-.86 2.859-.31 1.913-.27 2.547.117 2.92.33.327.647.39 1.108.218.468-.204.745-.775 1.183-2.664.601-2.547.472-3.395-.542-3.595-.316-.063-.766.046-1.006.262ZM65.946 62.278c-2.826 1.648-1.338 5.957 1.934 5.548 2.16-.265 3.26-2.681 2.014-4.54-.941-1.403-2.544-1.785-3.948-1.008Zm1.914 2.813c-.1.507-.626.502-.817-.03-.172-.462.326-.989.663-.692.133.158.204.468.154.722Z"
      />
      <g fill="#B1B1B1" clip-path="url(#c)">
        <path
          d="M257.689 307.373c-1.987 1.087-4.68 3.545-4.797 4.394-.083.443.383.872.805.725.175-.061.652-.503 1.081-.969 2.894-3.237 7.206-4.839 11.682-4.33 1.664.189 2.261.375 4.093 1.275 2.371 1.145 3.646 2.199 5.163 4.233 1.243 1.696 2.371 4.931 2.453 7.032.089 3.085-.788 6.053-2.635 8.787-1.414 2.11-1.751 4.14-1.039 6.238l.386 1.108-3.345 1.206c-2.971 1.095-3.363 1.271-3.447 1.596-.06.278.001.454.215.616.274.22.749.113 4.255-1.031 3.506-1.143 3.981-1.25 4.249-1.048.22.18.281.356.214.616-.071.36-.522.537-5.41 2.241-4.887 1.705-5.35 1.846-5.624 1.626-.387-.318-.272-.891.242-1.228.986-.62.395-1.636-.7-1.215-1.318.519-1.663 2.355-.63 3.395.43.441.49.558.403 1.101-.042.331-.024.778.056 1.006.177.51 1.095 1.275 1.638 1.362a.76.76 0 0 1 .577.469c.074.211.387.713.705 1.115.683.885 2.419 1.68 3.561 1.617 1.106-.051 4.434-1.251 5.414-1.947 1.131-.828 1.832-2.493 1.647-3.986-.076-.782-.012-1.277.251-1.823.477-.896.425-1.666-.125-2.283-.521-.587-.606-.834-.564-1.617.059-.849-.391-1.461-1.369-1.889-.729-.338-.831-.46-1.149-1.374-.589-1.688-.528-2.419.384-4.157 2.891-5.563 3.344-6.865 3.284-9.92-.047-4.321-1.97-8.423-5.224-11.193-1.489-1.274-4.785-2.866-6.71-3.24-3.342-.649-7.073-.097-9.99 1.492Zm20.1 32.645c.22.18.281.356.214.616-.077.342-.557.549-5.303 2.263-5.368 1.912-5.714 1.993-5.941 1.342-.245-.703-.023-.8 5.457-2.672 4.8-1.614 5.305-1.751 5.573-1.549Zm-.308 3.302c.19.545-.147 1.728-.696 2.471-.416.559-.65.68-2.69 1.392-2.039.711-2.298.761-2.971.582-.893-.241-1.892-.957-2.082-1.502l-.147-.422 4.219-1.471 4.22-1.472.147.422Z" />
        <path
          d="M250.742 315.493c-.841 2.225-1.032 5.467-.465 8.168.594 2.947 2.505 6.107 4.888 8.135 1.09.921 2.413 1.604 6.643 3.5 1.215.543 1.732.895 2.134 1.425.636.863.904 1.065 1.308.924.615-.214.603-.703-.052-1.618-.781-1.108-2.171-2.043-3.81-2.556-3.17-1.005-5.703-2.783-7.55-5.255-1.243-1.696-2.371-4.931-2.453-7.032-.042-1.819.127-3.199.607-4.707.417-1.349.261-1.965-.49-1.801-.346.081-.55.29-.76.817ZM242.51 318.918c-.373.229-.329.923.057 1.124.35.154 4.031.25 4.453.103.317-.11.442-.824.185-1.109-.102-.123-.557-.24-1.01-.24-2.686-.069-3.446-.04-3.685.122ZM279.286 306.759c-.885.742-1.634 1.477-1.632 1.653-.024.383.519.864.835.754.422-.147 3.245-2.512 3.423-2.85.177-.397-.213-.951-.654-.915-.177.002-1.063.627-1.972 1.358ZM262.42 318.616c-.406.418-.792 1.006-.871 1.29-.117.455-.211.527-.646.521-.802-.036-1.41.255-2.013.958-.985 1.133-1.022 3.176-.041 3.387.537.128.86-.36.743-1.147-.152-1.229.75-1.977 2.079-1.672.703.15.703.15.862-.3.768-1.983.998-2.34 1.719-2.591.563-.196.904-.177 1.544.073.438.182.842.436.885.559.049.14.304.308.564.375.438.123.508.099.908-.395.249-.304.651-.622.914-.714.598-.208 1.588.255 1.784.818.276.791 1.259.783 1.437-.008.145-.544-.777-1.662-1.689-2.073-.907-.394-2.106-.272-2.776.297-.366.305-.484.307-.859.024-.565-.434-2.376-.651-3.167-.375-.352.123-.97.555-1.377.973ZM243.474 326.545a.937.937 0 0 0-.034.584c.209.597.668.556 2.776-.239 1.723-.66 2.073-.841 2.14-1.16.067-.26.005-.436-.215-.615-.244-.191-.632-.115-2.408.445-1.489.48-2.156.772-2.259.985ZM280.745 313.543a.93.93 0 0 0-.033.584c.208.597.667.556 2.776-.239 1.722-.66 2.072-.841 2.139-1.16.067-.26.006-.436-.215-.615-.244-.191-.631-.115-2.408.445-1.489.48-2.156.772-2.259.985ZM261.121 325.122c-.081.166-.107.373-.077.461.105.299 5.663 7.076 5.948 7.272a.645.645 0 0 0 .589-.008c.765-.405.59-.738-2.375-4.377-1.581-1.934-2.97-3.599-3.119-3.685-.302-.19-.783-.042-.966.337ZM269.576 322.174c-.045.154-.231 2.506-.388 5.223l-.285 4.95.623 1.617c.508 1.341.694 1.651 1.013 1.717.26.067.436.006.616-.215.19-.244.144-.602-.262-1.88-.487-1.566-.5-1.66-.213-6.492.219-3.784.226-4.95.006-5.129-.357-.29-.986-.169-1.11.209ZM248.791 331.669c-1.538 1.246-1.827 1.603-1.698 1.972.11.317.762.602.995.422 1.533-1.146 3.324-2.737 3.321-2.972.012-.418-.518-.864-.881-.718-.159.055-.94.643-1.737 1.296ZM281.721 319.853c-.021.224.036.5.138.623.233.273 4.451.38 4.76.134.32-.269.24-.951-.122-1.14-.35-.155-4.031-.251-4.453-.104-.141.049-.279.275-.323.487Z" />
      </g>
      <path fill="#B1B1B1"
        d="M47.627 334.675c-7.673-1.951-10.195-2.371-10.376-1.719-.18.652.318.854 2.587 1.034 2.015.174 3.08.405 10.477 2.428 4.538 1.212 8.396 2.342 8.611 2.487.499.351 1.624-.104 1.381-.533-.214-.378-3.998-1.467-12.68-3.697ZM51.533 341.714c-1.425-.308-5.474-1.364-8.978-2.311-3.499-.967-6.505-1.713-6.7-1.703-.523.046-.61.746-.142 1.131.306.276.86.429 2.036.562 2.484.326 18.56 4.365 19.437 4.884.47.3.846.404 1.121.331.495-.097.68-.535.39-.871-.262-.285-3.696-1.255-7.164-2.023ZM39.067 344.861c-4.173-.834-5.101-.942-5.448-.612-.631.591.078.873 2.937 1.152.62.065 2.184.413 3.45.762 1.818.503 2.407.602 2.71.43.207-.134.377-.363.362-.538-.046-.374-.323-.451-4.01-1.194ZM44.355 352.286c-6.228-1.637-11.657-3.01-12.094-3.046-.894-.076-1.588.434-1.095.804.162.109 1.26.37 2.459.573 3.3.53 11.319 2.619 17.095 4.428 3.757 1.188 5.245 1.578 5.407 1.453.366-.325.338-.992-.071-1.127-.218-.06-5.472-1.448-11.7-3.085ZM30.26 354.942c-.964-.054-1.356.135-1.304.639.022.304.175.368.925.426 1.133.058 6.687 1.593 8.973 2.481 1.597.611 1.8.646 2.001.383.334-.44.05-.795-.903-1.122-2.5-.883-9.001-2.765-9.692-2.807ZM29.121 359.517c-1.95-.411-2.214-.378-2.153.171.022.304.426.458 3.562 1.198 3.774.894 8.75 2.525 12.354 4.032 3.427 1.458 6.324 2.599 7.174 2.834.825.249 1.515-.092 1.228-.597-.085-.151-1.46-.722-3.053-1.269-1.593-.547-3.699-1.32-4.654-1.712a226.74 226.74 0 0 1-3.548-1.406c-2.34-.924-8.568-2.795-10.91-3.251Z" />
      <g fill="#FDFFFC" clip-path="url(#d)">
        <path
          d="M73.988 254.87a.512.512 0 0 0-.23.245c-.024.042-.03.303-.035 1.15a81.639 81.639 0 0 1-.051 2.343c-.024.687-.05 1.655-.057 2.155a49.659 49.659 0 0 1-.034 1.315c-.013.225-.046.831-.077 1.348-.029.517-.064 1.174-.077 1.459-.031.67-.03 2.52.002 2.803.053.479.159.831.351 1.145.142.232.22.314.352.362.243.093.638.091.875-.002.108-.044.137-.069.181-.15.08-.153.069-.25-.06-.491a3.853 3.853 0 0 1-.329-.986c-.077-.424-.183-1.759-.166-2.084l.045-.984c.017-.426.077-1.569.13-2.542.128-2.292.16-2.942.19-3.934.027-.767.024-.875-.024-1.757-.055-1.059-.042-.991-.254-1.192-.235-.223-.517-.3-.732-.203ZM78.188 254.87a.512.512 0 0 0-.23.245c-.025.042-.031.303-.036 1.15a80.227 80.227 0 0 1-.05 2.331c-.025.681-.051 1.645-.058 2.145-.011.926-.015 1.056-.11 2.685-.03.517-.064 1.174-.078 1.459-.03.67-.029 2.52.002 2.803.053.479.16.831.352 1.145.141.232.219.314.351.362.243.093.64.091.876-.002.108-.044.137-.069.18-.15.078-.148.07-.255-.039-.456a3.677 3.677 0 0 1-.385-1.238 24.313 24.313 0 0 1-.086-.939c-.066-.86-.066-.897.13-4.454.131-2.334.16-2.957.19-3.945.027-.774.025-.891-.021-1.735-.027-.5-.053-.929-.06-.955-.004-.029-.07-.115-.144-.195-.247-.263-.55-.362-.784-.256ZM95.603 256.473a.739.739 0 0 0-.318.329c-.04.093-.278 1.419-.34 1.903-.018.144-.053.33-.075.409-.17.582-.228 1.205-.29 3.073-.024.736-.05 1.492-.058 1.68l-.013.342-.135.296c-.506 1.112-1.233 2.091-1.978 2.662-.27.205-.645.437-.811.499-.46.173-1.072.075-1.395-.223a.88.88 0 0 1-.243-.471 2.967 2.967 0 0 1 .022-.437c.058-.56.206-.878.588-1.282.237-.25.455-.423.78-.619l.226-.137h.409c.371.002.43.006.645.061.13.036.294.082.363.104.095.033.185.045.373.045.23 0 .25-.005.294-.051.1-.104.051-.462-.097-.745-.177-.338-.557-.639-.96-.761-.287-.088-.87-.126-1.164-.079-.865.141-1.7.743-2.244 1.618a4.2 4.2 0 0 0-.389.829c-.124.369-.141.524-.146 1.266-.002.727.016.9.128 1.229.107.312.164.403.434.672.223.226.278.268.464.36.327.164.49.197.94.197.289 0 .468-.013.784-.057.365-.053.433-.071.637-.157.771-.332 1.675-1.09 2.29-1.919.457-.619.767-.95.81-.873.01.016.063.164.12.327.469 1.351.875 2.078 1.326 2.37.22.143.285.172.387.172.075 0 .104-.013.168-.082.175-.185.195-.234.203-.479l.01-.224-.182-.408c-.464-1.05-.528-1.225-.829-2.233a31.4 31.4 0 0 0-.265-.851l-.06-.155.01-.563c.01-.661.004-.63.31-1.393.105-.261.21-.555.235-.652.049-.188.102-.619.188-1.536.088-.911.09-1.054.035-1.547a8.642 8.642 0 0 1-.055-1.072c-.002-.526-.009-.666-.04-.778-.086-.314-.17-.425-.413-.549a1.49 1.49 0 0 0-.464-.154c-.08-.011-.122-.002-.215.044ZM124.936 256.473a.718.718 0 0 0-.316.329c-.042.091-.252 1.265-.323 1.782-.02.152-.068.411-.11.575-.164.678-.213 1.175-.264 2.729-.017.56-.044 1.316-.057 1.68l-.024.663-.184.376c-.44.911-.897 1.583-1.45 2.133-.444.442-1.028.847-1.379.957-.195.06-.588.066-.8.009-.314-.084-.555-.256-.668-.482-.088-.177-.099-.305-.059-.683.039-.371.072-.497.192-.738.239-.48.765-.97 1.366-1.273.095-.047.117-.049.486-.038.341.009.42.02.643.078.14.037.299.083.352.101.066.024.174.036.345.036.23 0 .249-.005.294-.051.092-.098.053-.447-.078-.714-.168-.343-.572-.67-.979-.794a3.44 3.44 0 0 0-1.165-.077 3.132 3.132 0 0 0-1.056.404 4.28 4.28 0 0 0-.969.893c-.316.416-.55.902-.689 1.433-.047.179-.084.913-.071 1.337.02.506.091.833.252 1.156.058.117.133.21.323.4.216.214.274.259.457.351.327.164.491.197.94.197.289 0 .468-.013.784-.057.365-.053.434-.071.641-.159.763-.325 1.674-1.09 2.286-1.917.332-.449.568-.727.694-.824.055-.042.104-.073.108-.067.005.005.089.23.186.502.515 1.439.897 2.045 1.472 2.339a.53.53 0 0 0 .184.046c.077 0 .101-.013.188-.106.154-.161.19-.254.19-.484 0-.214.028-.13-.334-.957-.325-.743-.411-.984-.696-1.952-.093-.314-.197-.65-.235-.747-.064-.177-.064-.179-.064-.672 0-.659.013-.718.343-1.536a6.91 6.91 0 0 0 .208-.586c.048-.188.101-.621.19-1.525.086-.889.088-1.061.031-1.569a7.06 7.06 0 0 1-.047-.984 7.258 7.258 0 0 0-.02-.707c-.033-.226-.119-.445-.212-.542-.124-.128-.457-.278-.692-.309-.079-.011-.121-.002-.214.044ZM62.603 258.175a.974.974 0 0 0-.367.232l-.053.062-.016 1.245-.015 1.244-.053.069c-.044.059-.075.075-.193.095l-.592.101a12.28 12.28 0 0 1-1.448.182l-.31.015-.262.232c-.343.305-.356.332-.356.734 0 .164.01.316.022.336.053.091.475.502.572.559.096.055.12.06.241.049.075-.009.252-.055.392-.104a2.03 2.03 0 0 1 .3-.088.72.72 0 0 0 .188-.065c.206-.092.41-.15.7-.201.268-.044.755-.09.785-.073.036.02.1.179.133.327.06.264.09.947.093 2.001 0 .908.007 1.039.05 1.359.08.593.096.761.096 1.081-.002.497.07.736.387 1.287.104.181.214.375.243.433.075.148.267.329.435.411.221.108.392.146.668.146.236 0 .25-.002.52-.106.152-.058.384-.14.519-.184a9.242 9.242 0 0 0 .999-.391c.497-.25.734-.482 1.017-.997.355-.645.402-.769.46-1.2l.032-.252-.068-.212c-.088-.274-.155-.405-.241-.478-.093-.077-.148-.088-.362-.075-.39.024-.549.215-.672.791a3.914 3.914 0 0 0-.062.347c-.014.122-.034.166-.164.365-.186.283-.343.442-.517.531-.186.095-.68.216-.944.232-.195.011-.223.009-.332-.042a1.488 1.488 0 0 1-.234-.148.394.394 0 0 1-.159-.23c-.157-.469-.245-1.468-.245-2.768 0-.422-.01-.645-.031-.762-.056-.288-.064-.509-.047-1.183l.016-.652.06-.062c.044-.048.114-.077.311-.132.14-.038.334-.08.431-.093.21-.031.6-.111.933-.188a12.488 12.488 0 0 1 1.532-.287c.334-.04.406-.069.575-.241.095-.098.099-.109.106-.259.017-.285-.073-.453-.294-.564-.115-.055-.157-.059-.66-.09-.936-.058-1.027-.053-1.904.093-.648.108-.73.112-.907.055a.45.45 0 0 1-.177-.095c-.06-.093-.08-.252-.099-.827-.024-.67-.06-.862-.199-1.134-.117-.221-.285-.411-.393-.442a.963.963 0 0 0-.44.011ZM219.154 258.176c-.135.044-.376.226-.396.299-.009.031-.015.358-.018.729a62.88 62.88 0 0 1-.017 1.225l-.014.55-.057.062c-.053.057-.093.068-.632.161-.679.12-1.167.181-1.592.203l-.307.016-.27.239c-.203.181-.278.263-.307.333-.048.124-.068.478-.035.639.024.12.037.137.285.378.144.139.294.272.336.294.106.055.285.033.597-.077.139-.049.276-.089.3-.089a.729.729 0 0 0 .19-.064c.188-.086.485-.168.759-.21.252-.039.698-.079.725-.064.031.02.101.177.132.307.06.23.106 1.287.1 2.187l-.007.817.073.542c.055.413.073.621.073.873 0 .542.071.776.402 1.355.104.179.208.365.232.413.053.106.188.25.323.341.128.088.281.146.502.192.261.053.46.033.738-.069.122-.044.391-.139.597-.21 1.167-.395 1.574-.656 1.903-1.217.188-.317.44-.829.482-.973.018-.066.049-.237.068-.38l.036-.259-.082-.256c-.086-.27-.164-.402-.281-.475-.062-.04-.097-.045-.283-.036-.232.011-.338.051-.442.164-.137.143-.249.484-.307.908-.029.201-.033.215-.181.438-.184.278-.341.44-.506.524a3.188 3.188 0 0 1-.431.141c-.257.066-.347.08-.551.082-.272.002-.3-.007-.524-.179-.112-.086-.132-.113-.17-.239-.159-.513-.245-1.514-.245-2.851 0-.418-.009-.568-.038-.707-.031-.144-.037-.29-.037-.785.002-.796.02-1.019.084-1.09.055-.06.444-.174.731-.214.21-.029.531-.095 1.121-.23.533-.122.953-.199 1.342-.245.342-.04.409-.069.572-.239l.115-.124v-.183c-.002-.283-.086-.425-.318-.529-.086-.037-.177-.051-.453-.066-.19-.011-.489-.029-.666-.042-.424-.029-.625-.011-1.47.13-.601.1-.687.104-.862.047-.088-.029-.157-.066-.174-.095-.06-.093-.084-.296-.102-.856-.02-.592-.042-.751-.144-.999a1.684 1.684 0 0 0-.327-.479c-.075-.071-.086-.076-.274-.082a.866.866 0 0 0-.298.024ZM69.541 259.551a.928.928 0 0 0-.63.484c-.066.135-.07.164-.07.367 0 .21.004.228.075.36a.892.892 0 0 0 .148.201c.095.084.82.462 1.11.577.327.133.503.16.875.14.303-.018.307-.018.353-.08.038-.053.047-.095.047-.243 0-.245-.038-.316-.365-.679a6.813 6.813 0 0 1-.424-.517c-.201-.281-.396-.477-.548-.555a.568.568 0 0 0-.299-.068 1.349 1.349 0 0 0-.272.013ZM115.248 259.555a.99.99 0 0 0-.464.256 1.143 1.143 0 0 0-.162.248c-.064.132-.071.168-.071.347.003.17.012.216.062.322.102.21.201.288.69.537.76.389.957.447 1.459.418l.307-.018.051-.075c.04-.057.051-.106.051-.21 0-.258-.04-.329-.411-.747a8.56 8.56 0 0 1-.423-.515c-.331-.446-.504-.568-.813-.577a1.473 1.473 0 0 0-.276.014ZM127.824 259.563a.882.882 0 0 0-.455.247.84.84 0 0 0-.177.909c.1.219.21.303.721.559.773.387.919.429 1.419.407.296-.014.32-.018.356-.067.084-.112.088-.353.009-.546a2.231 2.231 0 0 0-.239-.305 7.007 7.007 0 0 1-.559-.68c-.184-.252-.398-.451-.553-.509a.955.955 0 0 0-.522-.015ZM205.565 259.551a.998.998 0 0 0-.464.256 1.168 1.168 0 0 0-.162.248c-.064.133-.07.17-.07.347 0 .168.008.219.057.323.095.203.19.278.663.521.767.398.986.462 1.488.434.3-.018.307-.02.351-.078.062-.084.075-.285.029-.442-.038-.13-.077-.186-.376-.517a8.544 8.544 0 0 1-.413-.508c-.345-.465-.517-.586-.827-.597a1.403 1.403 0 0 0-.276.013ZM55.954 261.697c-.188.016-.604.078-.818.12-.643.128-1.6.422-1.945.599-.234.119-.391.176-.829.305-.201.059-.404.121-.453.137-.122.037-.42.338-.526.526-.19.34-.197.663-.02.933.106.161.672.665.968.862a9.403 9.403 0 0 0 2.082 1.021c.288.097.566.225 1.51.696 1.125.559 1.574.798 1.737.922.16.121.177.311.04.442-.082.075-.208.117-.685.219l-.265.057-.873-.009c-.913-.011-.986-.017-1.37-.126a3.152 3.152 0 0 1-.366-.141c-.203-.097-.28-.153-.61-.418a2.709 2.709 0 0 0-.86-.442c-.342-.097-.298-.115-.475.181l-.154.257-.007.245c-.009.292.026.469.135.648.068.117.194.23.3.269.031.014.115.064.188.117.65.46 1.585.803 2.45.896.612.066 1.967-.009 2.581-.146.864-.19 1.463-.59 1.66-1.11.228-.601-.175-1.437-1.017-2.102-.389-.307-.846-.546-2.451-1.273-.716-.327-1.35-.661-1.82-.964a2.026 2.026 0 0 0-.256-.15c-.044 0-.139-.126-.139-.186 0-.143.108-.254.387-.393.59-.296 1.11-.411 2.089-.46l.656-.035.206-.014.097-.108c.155-.172.199-.283.208-.535.009-.199.004-.223-.051-.338-.144-.294-.345-.422-.74-.471a3.359 3.359 0 0 0-.564-.031ZM237.41 262.077a3.417 3.417 0 0 0-.847.199c-.161.068-.192.092-.539.437-.738.736-1.006 1.223-1.147 2.069-.097.586-.148 1.289-.181 2.564l-.023.909.054.145c.07.195.218.451.34.593.113.126.391.32.513.353.115.031.283.027.351-.008.091-.049.186-.162.299-.356.305-.531.364-.842.225-1.192-.144-.358-.172-.7-.155-1.799.011-.703.02-.908.047-.983.097-.277.665-1.103.807-1.179.134-.068.377-.141.565-.165a6.44 6.44 0 0 1 .732-.014c.453.009.573.018.701.053.227.065.475.177.784.361.668.391.732.42 1.112.477.243.038.504.031.557-.013.06-.051.082-.197.067-.447l-.016-.236-.159-.139c-.429-.381-1.479-1.125-1.837-1.307-.53-.265-1.457-.398-2.25-.322ZM110.131 262.365a3.325 3.325 0 0 0-1.528.641c-.161.122-.674.597-1.034.96a3.31 3.31 0 0 0-.754 1.16c-.124.352-.17.586-.181.962-.033 1.016.265 1.615 1.125 2.256.623.465 1.366.785 2.35 1.013.174.039 1.105.216 1.359.256.091.013.301.06.464.1.517.128.672.152 1.028.152.38.002.449-.015.705-.179.276-.177.455-.402.455-.572 0-.104-.108-.33-.216-.451l-.084-.095-.904-.195a47.98 47.98 0 0 0-1.868-.376c-.725-.135-1.492-.356-1.837-.53a2.246 2.246 0 0 1-.298-.195c-.21-.157-.683-.634-.716-.718-.036-.097-.027-.393.024-.683l.046-.27.168-.232c.451-.616.82-.981 1.203-1.182.258-.137.369-.164.712-.179.336-.016.473 0 .685.081.234.087.356.259.59.838.117.29.15.341.267.387.082.031.137.035.376.022.254-.015.292-.022.378-.077a.798.798 0 0 0 .184-.19l.086-.131-.002-.387c-.005-.338-.011-.415-.06-.601-.093-.351-.177-.486-.5-.796-.34-.324-.563-.495-.802-.614-.206-.102-.376-.139-.791-.175a2.527 2.527 0 0 0-.63 0ZM211.956 262.369a3.272 3.272 0 0 0-1.516.63c-.175.126-.575.5-1.03.96-.639.643-.953 1.374-.955 2.23-.002.643.144 1.132.447 1.514.322.407.848.811 1.428 1.101.685.342 1.357.53 2.771.776.237.042.549.106.69.143.469.122.623.144 1.004.146h.353l.19-.093c.327-.163.615-.473.615-.663 0-.084-.128-.345-.226-.457l-.075-.087-.959-.205a77.901 77.901 0 0 0-1.523-.31c-.736-.134-1.22-.249-1.627-.386-.555-.188-.791-.336-1.191-.747a1.811 1.811 0 0 0-.215-.202c-.037 0-.128-.192-.141-.298a1.149 1.149 0 0 1 .009-.276c.081-.546.07-.506.203-.699.557-.793 1.026-1.211 1.567-1.392.1-.033.192-.04.509-.04.355-.002.397.002.517.051.196.079.274.13.342.232.087.126.199.358.312.643.153.385.221.427.648.398.294-.018.344-.038.464-.164.168-.179.179-.212.179-.577 0-.457-.071-.797-.221-1.058-.097-.166-.63-.672-.915-.865-.296-.201-.495-.26-1.017-.307a2.355 2.355 0 0 0-.637.002ZM102.472 262.376a7.463 7.463 0 0 0-.398.062c-.855.151-1.784.763-2.564 1.691-.398.478-.942 1.426-1.178 2.067a3.417 3.417 0 0 0-.246 1.293c0 .442.042.661.184.959.294.619.694 1.154 1.14 1.516.454.367 1.236.77 1.828.938.504.143.617.157 1.366.157.606 0 .703-.007.951-.051.287-.053.805-.181 1.337-.336.17-.049.383-.1.473-.113.498-.071.871-.243 1.216-.564l.135-.123v-.316c0-.175-.011-.345-.025-.381-.033-.086-.126-.179-.196-.194-.089-.02-.836.048-1.086.099-.117.025-.309.08-.426.122-.268.097-1.072.329-1.395.402-.212.049-.312.058-.762.066-.575.012-.803-.011-1.161-.114a3.784 3.784 0 0 1-.9-.434 4.142 4.142 0 0 1-.83-.822c-.23-.336-.447-.877-.447-1.118 0-.058.015-.164.033-.235.044-.165.24-.57.38-.773.137-.199.164-.199.425.006.234.186.437.305.758.449.656.292 1.26.376 1.775.245.097-.024.221-.05.276-.059a2.552 2.552 0 0 0 1.404-.73c.45-.448.7-.988.7-1.514.005-1.006-.72-1.845-1.821-2.111a2.997 2.997 0 0 0-.946-.084Zm.4 1.499c.577.186.732.272.827.46a.518.518 0 0 1 .055.183c0 .166-.027.217-.197.385-.19.188-.413.322-.716.437l-.201.076-.498-.011c-.532-.009-.656-.029-.908-.144-.093-.04-.188-.06-.402-.078-.157-.013-.283-.033-.283-.042 0-.057.088-.165.325-.395.546-.531.999-.816 1.454-.915.206-.047.288-.04.544.044ZM246.004 262.376c-.325.038-.712.122-.897.195-.591.232-1.092.57-1.636 1.105-.451.442-.668.725-1.037 1.359-.316.546-.552 1.061-.67 1.47-.117.403-.137.548-.137.984 0 .493.031.654.191.983.395.825.923 1.426 1.587 1.809.747.431 1.187.607 1.81.729.234.044.323.049.933.049.601-.003.703-.007.95-.053.301-.054.747-.166 1.287-.321.192-.055.448-.117.572-.137a2.078 2.078 0 0 0 1.108-.506l.183-.157.007-.318c.004-.297.002-.328-.045-.42a.369.369 0 0 0-.121-.14c-.066-.037-.095-.039-.409-.015-.546.04-.769.079-1.156.21a19.71 19.71 0 0 1-1.393.4c-.214.051-.303.06-.753.068-.405.009-.562.005-.763-.026-1.16-.17-2.215-1.061-2.526-2.142-.12-.409-.054-.683.305-1.258.072-.117.15-.221.172-.227.051-.016.13.031.327.188.413.331 1.112.627 1.68.711.234.034.621.014.829-.044.086-.022.23-.053.32-.068a2.45 2.45 0 0 0 1.302-.672c.334-.323.546-.652.679-1.052.055-.171.062-.217.062-.509 0-.227-.011-.365-.038-.471-.212-.851-.922-1.472-1.905-1.671a3.714 3.714 0 0 0-.818-.053Zm.497 1.53c.531.177.703.289.763.497.088.303-.117.564-.652.831-.363.182-.376.184-.946.171-.535-.012-.601-.023-.917-.149a1.164 1.164 0 0 0-.418-.079 2.32 2.32 0 0 1-.261-.024c0-.047.113-.199.236-.319.549-.53.969-.82 1.389-.955.338-.11.411-.108.806.027ZM199.87 262.607c-.53.12-1.282.575-1.631.988a3.352 3.352 0 0 0-.586 1.057c-.124.413-.292 1.443-.369 2.266-.049.506-.071 3.191-.033 3.779.112 1.702.325 2.732.723 3.519.126.25.459.604.632.668.097.037.108.037.221.002.25-.08.51-.321.577-.531.079-.254.066-.389-.064-.63-.449-.835-.703-1.644-.783-2.502-.013-.154-.013-.667 0-1.481.029-1.697.044-2.139.075-2.139.016 0 .122.101.239.227.555.597 1.149 1.011 1.662 1.154.239.069.506.078.997.038.553-.044.935-.146 1.359-.358.706-.354 1.24-.918 1.329-1.404.04-.21.033-.997-.011-1.282-.095-.623-.307-1.123-.641-1.514a12.51 12.51 0 0 1-.279-.336c-.473-.583-1.149-1.032-2.011-1.333a3.798 3.798 0 0 0-.743-.199 1.59 1.59 0 0 0-.663.011Zm1.472 1.685c.153.048.325.181.619.479.444.451.672.8.776 1.189.095.35.053.882-.088 1.145-.297.557-1.249.772-1.921.434-.173-.089-.789-.717-.876-.893-.079-.159-.104-.347-.088-.646.015-.283.068-.44.267-.795.213-.385.436-.648.703-.829a.656.656 0 0 1 .608-.084ZM157.378 262.607c-.345.04-.749.152-1.006.283-.32.159-1.731 1.012-1.907 1.151-.133.104-.177.215-.197.48-.013.192.033.475.093.553.026.035.031.192.033.919v.875l.135.341c.497 1.242.771 1.45 2.316 1.766.31.062.336.064.962.064.86 0 .919-.009 1.737-.254.738-.223 1.132-.416 1.658-.82.488-.374 1.074-1.088 1.207-1.466.188-.539.055-1.242-.349-1.863-.135-.203-.542-.639-.785-.838a5.52 5.52 0 0 0-2.604-1.158 7.895 7.895 0 0 0-1.293-.033Zm1.32 1.395c.386.075.875.272 1.456.592.162.088.254.164.489.393.413.405.477.549.415.929-.059.373-.188.619-.464.899-.466.473-1.205.794-2.204.958-.309.048-.974.048-1.22-.005-.254-.053-.577-.177-.701-.267a2.385 2.385 0 0 1-.47-.518l-.095-.143-.005-.422a4.082 4.082 0 0 1 .02-.531c.033-.152.128-.38.201-.486.089-.131.553-.566.725-.683.08-.055.226-.175.323-.268.23-.216.404-.336.588-.4.298-.104.581-.119.942-.048ZM135.119 262.675c-.334.017-.42.037-.544.128-.168.124-.575.55-.716.754-.321.459-.425.585-.86 1.025-.25.254-.471.471-.491.482-.033.018-.037-.031-.035-.561.002-.522-.005-.604-.051-.838-.042-.21-.064-.274-.117-.338-.117-.144-.411-.254-.668-.254-.236 0-.462.137-.535.327-.059.157-.046.475.038.888a.82.82 0 0 1-.002.221c-.009.08-.038.407-.062.73-.095 1.184-.148 1.724-.206 2.055-.015.08-.026.257-.026.394l-.003.247.367.365.365.365h.106a.423.423 0 0 0 .33-.159 2.91 2.91 0 0 0 .17-.303c.117-.235.729-1.278.888-1.517.237-.349.42-.594.723-.961.237-.287 1.004-1.063 1.103-1.114.111-.058.192-.016.418.212.23.237.259.296.362.758.036.157.078.323.095.365.018.044.038.137.047.21.046.422.15.988.278 1.503.076.305.102.374.184.497.157.235.433.688.433.71 0 .013.024.046.055.075.06.062.155.071.279.031.197-.064.367-.139.415-.183.078-.071.135-.222.149-.398.013-.146.008-.173-.078-.4a7.829 7.829 0 0 1-.216-.774l-.164-.707a3.058 3.058 0 0 1-.053-.476 6.258 6.258 0 0 0-.422-2.068c-.12-.303-.522-.885-.756-1.095-.217-.196-.325-.223-.8-.196ZM167.402 262.672c-.418.02-.465.042-.831.403-.215.21-.336.353-.52.614-.133.188-.34.453-.464.586-.256.283-.807.815-.822.798a5.89 5.89 0 0 1-.007-.515c.007-.75-.049-1.112-.194-1.256-.149-.146-.385-.23-.659-.23a.606.606 0 0 0-.422.188c-.151.173-.168.327-.091.811.042.263.044.321.022.538-.013.132-.033.378-.046.541-.087 1.119-.157 1.855-.199 2.065a3.475 3.475 0 0 0-.038.402l-.013.296.243.248c.135.137.287.296.34.351.054.057.12.113.146.128.12.062.361-.006.447-.126a5.01 5.01 0 0 0 .183-.336c.166-.318.712-1.24.909-1.536a11.07 11.07 0 0 1 1.286-1.569c.215-.215.462-.434.524-.467.093-.048.197.005.409.219.219.217.254.292.363.789.015.067.048.197.075.288.028.09.057.229.066.309.038.356.153.968.276 1.461.078.312.098.363.197.511.06.09.19.298.29.459.097.164.194.312.214.325.02.016.069.029.108.029.095 0 .495-.146.555-.203.066-.062.137-.254.153-.414.011-.108.002-.157-.087-.4-.152-.415-.409-1.547-.424-1.865a8.87 8.87 0 0 0-.077-.853l-.047-.244c-.082-.446-.294-1.089-.431-1.31-.387-.615-.594-.858-.838-.984-.117-.057-.223-.068-.596-.051ZM226.552 263.016a2.464 2.464 0 0 0-.212.197.645.645 0 0 0-.184.327c-.128.411-.15.526-.166.875-.011.254-.026.361-.053.414-.033.062-.037.161-.042.74-.006.878.031 1.092.281 1.598.184.374.296.52.619.803.427.375.716.585 1.017.733.376.186.559.23.972.23.301.002.358-.004.61-.068 1.008-.254 1.572-.562 2.268-1.231.144-.137.23-.206.237-.188.004.017.022.086.035.152.075.343.27.694.506.911.098.09.188.146.363.223.614.27.743.259.904-.066a.504.504 0 0 0 .068-.303c-.002-.203-.103-.493-.254-.729-.303-.473-.415-.946-.384-1.605.022-.504.037-.579.19-.944a3.51 3.51 0 0 0 .159-.446c.04-.224-.02-.584-.137-.832-.051-.106-.097-.157-.221-.254-.228-.177-.274-.196-.453-.199-.113 0-.173.011-.224.042-.081.051-.265.288-.32.418-.04.091-.091.327-.12.542-.011.081-.022.103-.05.099-.033-.007-.04.024-.049.237l-.011.243-.252.431c-.71 1.222-1.07 1.616-1.784 1.943-.34.157-.475.188-.76.172-.261-.011-.785-.126-.9-.194-.084-.054-.311-.292-.442-.469a2.441 2.441 0 0 1-.329-.679c-.031-.117-.036-.214-.025-.519.02-.546.091-.851.317-1.335l.097-.21.004-.321c.002-.42-.04-.548-.214-.638-.086-.045-.544-.133-.785-.151-.183-.013-.19-.011-.276.051ZM182.012 262.993c-.646.098-.977.241-1.437.619-1.258 1.033-1.77 1.66-1.954 2.39-.073.291-.119.791-.093.99.047.332.212.707.518 1.176.316.488.809.785 1.456.88.369.053.915.011 1.318-.102.47-.133.966-.407 1.496-.831.329-.263 1.037-.971 1.165-1.167.055-.086.13-.188.166-.23l.066-.077.071.077.34.393c.787.929.953 1.119 1.198 1.364.243.243.29.281.57.438.4.225.507.263.745.263a.847.847 0 0 0 .354-.062c.396-.144.537-.261.628-.515.031-.089.057-.179.057-.201 0-.062-.208-.246-.276-.246-.093 0-.252-.095-.484-.291-.738-.621-1.085-.918-1.143-.982-.126-.137-.643-1.07-1.149-2.069-.356-.709-.378-.736-.717-.901-.265-.131-.397-.252-.38-.345.027-.142-.051-.228-.338-.374-.157-.079-.19-.088-.597-.137-.411-.051-1.399-.086-1.58-.06Zm1.912 1.187c0 .04-.024.217-.055.392l-.078.464c-.077.462-.455 1.165-.853 1.589a2.747 2.747 0 0 1-.86.645c-.617.308-1.238.385-1.624.202-.376-.177-.675-.772-.573-1.139.049-.179.65-.977.993-1.319.599-.597.943-.721 2.287-.82.195-.014.425-.038.509-.053.247-.047.254-.045.254.039ZM141.342 263.457c-.358.066-.723.214-.951.384-.059.045-.19.122-.287.173-.886.449-1.715 1.348-1.901 2.062-.108.409.069 1.019.433 1.503.168.223.473.524.716.707.323.244.394.279.652.33.571.11.71.124 1.404.124.705-.003.78-.009 1.432-.137.202-.038.312-.051.328-.036.013.013.006.113-.025.296-.024.151-.093.657-.154 1.125-.131.988-.168 1.245-.213 1.419-.017.071-.062.37-.099.664-.036.296-.082.607-.1.696-.068.338-.194.608-.356.76-.203.195-.24.206-.466.128-.294-.099-.583-.347-1.043-.895-.407-.484-.517-.561-.807-.561-.356 0-.816.261-.948.537a1.222 1.222 0 0 0-.098.555c.014.207.135.44.336.643.177.177.297.261.646.449.133.07.385.238.561.373.358.272.626.453.913.621l.195.115H142.597l.19-.192c.204-.206.491-.61.628-.88.19-.382.296-.813.369-1.514.148-1.45.438-2.84.973-4.67.141-.493.19-.606.491-1.159.397-.733.47-.937.503-1.412.023-.294.012-.365-.077-.497-.071-.109-.292-.217-.608-.299l-.232-.062-.177.087c-.356.17-.557.453-.647.908a1.29 1.29 0 0 1-.272.614c-.478.633-1.722 1.044-2.661.878-.414-.071-.542-.117-.706-.256-.459-.392-.596-.69-.431-.949.16-.252.639-.685.997-.901.261-.16.663-.283.92-.283.179 0 .67.07.888.126.374.097.436.095.564-.018.111-.097.128-.19.111-.548l-.018-.296-.179-.182c-.257-.258-.515-.398-.922-.499a2.974 2.974 0 0 0-.959-.031ZM69.945 263.942a.722.722 0 0 0-.223.148l-.09.095-.012.243c-.017.334.007.725.126 2.001.115 1.244.173 1.717.224 1.872.017.057.086.208.145.334.124.25.213.334.412.393.132.042.344.04.426-.002.164-.086.259-.396.33-1.079.072-.711.07-.736-.122-1.507-.201-.805-.265-1.154-.3-1.603-.025-.325-.03-.351-.11-.519-.092-.195-.211-.347-.31-.398-.1-.053-.339-.042-.496.022ZM115.696 263.927a.669.669 0 0 0-.314.223c-.042.06-.046.095-.046.486 0 .325.022.672.099 1.51.124 1.348.181 1.865.223 2.051.045.192.264.646.339.703a.703.703 0 0 0 .444.155c.181.009.192.006.263-.053.179-.151.261-.535.345-1.636.013-.168.006-.208-.133-.763-.247-.985-.305-1.282-.342-1.81-.025-.314-.027-.32-.122-.508a1.34 1.34 0 0 0-.199-.288c-.099-.099-.102-.099-.272-.106a.732.732 0 0 0-.285.036ZM128.296 263.917a.65.65 0 0 0-.316.213l-.066.083v.394c0 .484.225 3.021.311 3.512.047.257.248.688.374.792a.77.77 0 0 0 .464.148c.131 0 .162-.007.221-.058.157-.132.226-.384.299-1.092.031-.285.055-.572.055-.636 0-.076-.064-.378-.175-.823-.201-.802-.285-1.264-.305-1.646-.013-.299-.062-.451-.216-.683-.124-.186-.206-.235-.398-.232a1.11 1.11 0 0 0-.248.028ZM206.035 263.92a.693.693 0 0 0-.313.203l-.069.077v.44c0 .347.022.672.1 1.53.123 1.337.181 1.867.223 2.04.015.073.093.256.168.409l.139.274.142.077a.563.563 0 0 0 .32.084c.119.007.197 0 .234-.02.197-.106.299-.521.376-1.545l.022-.3-.177-.717c-.207-.835-.276-1.195-.309-1.648-.022-.31-.029-.336-.111-.507-.088-.19-.21-.344-.311-.397-.078-.038-.308-.038-.434 0ZM252.184 267.022c-.157.007-.21.037-.621.347-.347.263-.429.347-.473.48-.044.132-.091.793-.071.985.029.248.155.411.434.555.245.128.391.164.663.164.303 0 .433-.04.683-.206.347-.234.61-.577.663-.873.024-.128-.005-.409-.058-.575a2.022 2.022 0 0 0-.106-.254c-.037-.079-.084-.179-.099-.221-.117-.303-.442-.433-1.015-.402ZM256.554 267.026c-.144.011-.159.018-.409.193-.4.278-.623.481-.676.614-.049.124-.096.736-.073.973.028.336.223.537.669.687.144.049.213.06.416.06.305 0 .44-.038.659-.184.324-.219.557-.482.658-.749.056-.15.06-.391.011-.608-.046-.201-.272-.685-.362-.778-.166-.17-.473-.243-.893-.208ZM260.93 267.025c-.144.011-.159.018-.409.192-.287.202-.566.429-.628.515-.071.095-.104.288-.119.699-.018.451 0 .568.119.731.082.113.307.25.544.33.234.079.61.084.818.011.367-.128.815-.568.928-.911.044-.132.047-.36.002-.568-.042-.199-.267-.694-.362-.791-.166-.17-.473-.243-.893-.208Z" />
      </g>
      <g fill="#B1B1B1" clip-path="url(#e)">
        <path
          d="M254.206 53.124c-1.362-.321-2.102.15-1.297.83 2 1.695 24.237 14.314 27.599 15.667.771.3 1.967.982 2.636 1.468 1.155.812 1.301 1.042 1.735 2.787.271 1.051.617 1.964.733 2.027.279.153 1.179-2.16 1.135-2.908 0-.331-.27-1.052-.534-1.618-.564-1.121.294-.593-10.918-6.622-6.971-3.744-16.154-8.907-18.225-10.249-1.041-.688-2.125-1.19-2.864-1.382ZM249.425 51.721c-1.508.444-2.773 2.044-3.562 4.539-.252.737-2.422 5.1-4.86 9.678-2.428 4.615-4.837 9.36-5.389 10.536-.759 1.667-1.048 2.142-1.393 2.165-1.292.048-.771.363 20.998 11.852 12.796 6.773 17.51 9.074 17.738 8.656.165-.302-.576-.767-5.385-3.391-6.899-3.766-24.533-12.998-26.504-13.863-.792-.371-2.458-1.13-3.704-1.72l-2.224-1.063.645-.794c.792-.954 11.178-20.04 11.882-21.826.298-.712.856-1.734 1.242-2.276.609-.784.911-.95 1.633-.948 1.183.042 1.422-.672.474-1.31-.533-.35-.944-.425-1.591-.235Z" />
        <path
          d="M258.289 59.785c-1.478-.717-2.46-1.072-2.608-.911-.404.352.946 1.36 3.588 2.651 2.758 1.355 4.361 2.23 11.589 6.386 8.019 4.588 11.668 6.187 11.32 5.002-.072-.31-20.094-11.298-23.889-13.128ZM250.058 55.535c-.617.357-6.61 12.221-7.155 14.215-.108.363-1.266 2.595-2.585 5.011l-2.384 4.368 1.255.684c1.463.8 3.453 1.131 3.732.62.203-.372-.693-.83-3.221-1.667l-.842-.28 1.346-2.52c.737-1.407 1.678-3.185 2.05-3.977.371-.792 1.893-3.912 3.351-6.915a415.875 415.875 0 0 0 3.447-7.254l.75-1.761 1.162.634c.766.418 1.341.58 1.653.45.421-.163.307-.285-.924-.957-.79-.431-1.502-.73-1.635-.651ZM282.117 74.63c-.156.065-.638.948-1.04 1.905-1.037 2.508-5.202 9.974-6.901 12.424-2.284 3.245-3.038 4.793-2.87 5.7.091.44.281.756.448.726.503-.148 10.525-18.014 11.009-19.619.271-.938-.029-1.493-.646-1.136ZM284.178 76.932c-.169.089-.74 1.134-1.219 2.29-1.175 2.705-5.173 9.809-6.441 11.469-1.39 1.773-2.561 4.029-3.041 5.847-.438 1.63-.362 2.155.456 2.48.806.29 1.721-1.11 5.588-8.527 3.307-6.336 3.629-7.035 4.392-9.814.841-2.978.918-4.112.265-3.745ZM277.521 74.32c-1.248-.198-6.911-.153-10.022.078-3.016.224-10.409 1.284-12.916 1.845-2.782.623-8.741 2.978-8.253 3.244.069.038 1.55-.3 3.272-.746 1.698-.46 4.026-.969 5.156-1.106 3.248-.428 15.662-1.793 19.892-2.198 2.14-.219 4.03-.423 4.246-.486.503-.148-.08-.406-1.375-.63Z" />
        <path
          d="M266.947 70.663c-3.967-.356-5.547-.223-10.369.823-4.453.977-14.704 4.79-15.173 5.649-.089.162 1.705-.306 4.005-1.04 7.38-2.364 14.621-3.81 20.886-4.129 1.65-.094 3.206-.24 3.447-.35.841-.325-.435-.75-2.796-.953ZM267.738 79.26c-3.567-.258-9.809.737-13.518 2.12-2.186.857-1.373.97 1.459.254 4.244-1.091 9.82-1.696 12.817-1.387.991.119 1.014.132.505.457-.279.18-.602.274-.718.21-.395-.215-8.154 2.787-8.408 3.251-.139.256-.137.528-.021.592.14.076 1.534.173 3.13.23 1.587.022 4.113.255 5.633.452 1.508.22 3.08.324 3.485.244l.74-.14-.499-.302c-.975-.532-5.489-1.488-7.523-1.573-1.123-.04-2.068-.134-2.101-.182.002-.06 1.647-.699 3.722-1.406 2.051-.72 3.819-1.473 3.92-1.659.292-.534-.804-1.012-2.623-1.16ZM250.31 83.743a82.464 82.464 0 0 1-3.386-1.365c-2.112-.882-2.978-.842-2.372.092.294.401 1.081.891 2.923 1.716 1.421.655 6.862 3.503 12.101 6.333 8.027 4.35 9.655 5.18 10.262 5.118.38-.034.777-.209.866-.371.139-.256-1.229-1.063-7.341-4.339-4.16-2.21-8.433-4.602-9.556-5.306-1.1-.69-2.68-1.553-3.497-1.878ZM242.609 84.814c-.108.032-2.376-1.116-5.06-2.55l-4.904-2.617-2.091.517c-1.135.255-3.027.519-4.225.559-3.829.11-6.575.723-7.044 1.582-.913 1.673.472 3.002 5.116 4.933 4.389 1.793 14.99 7.338 18.101 9.427 2.878 1.963 20.747 12.59 24.117 14.369 1.221.636 3.495 1.938 5.047 2.905 3.326 2.027 4.568 2.403 5.075 1.474.393-.72.039-1.065-3.575-3.67-1.661-1.208-3.469-2.316-4.751-2.895a258.058 258.058 0 0 1-6.355-3.106l-4.327-2.181.431-.79.431-.79-1.508-1.215c-.84-.669-2.187-1.736-3.005-2.393l-1.473-1.167 3.108 1.486c5.263 2.511 6.144 3.052 6.34 3.852.164.693.141.68-.556.3-.418-.228-.794-.313-.857-.197-.228.418 1.486 1.475 5.594 3.506 4.025 2.016 4.234 2.13 4.92 3.137 1.17 1.724 1.27 1.266.244-1.163-.349-.854-.49-1.534-.325-1.504.54.114.581-.346.046-.638-.627-.342-.992-1.386-.601-1.715.342-.296.042-.52-2.448-1.758-.965-.497-1.843-1.097-2.056-1.424-.224-.364-.48-.503-.649-.414-.266.156-15.015-7.623-24.337-12.861-4.109-2.303-5.29-3.068-5.003-3.153.826-.242.624-.534-.281-.424-.523.075-1.195-.02-1.497-.184-.441-.241-.49-.208-.313.13.188.374.127.431-.445.54-.357.047-.972.013-1.358-.107-.387-.12-.719-.12-.7.01.019.131-.543.277-1.244.346-1.009.082-1.537-.055-2.699-.689-1.383-.725-1.466-.74-1.202-.173.23.517.879.931 4.076 2.586 2.338 1.185 3.823 2.056 3.793 2.22-.03.165.156.267.511.28.332 0 1.2.232 1.901.494 1.67.64 2.152.421.758-.34-.581-.317-1.018-.676-.967-.769.266-.487 1.079-.375 2.311.297 1.138.621 1.332.818 1.324 1.386.002.604.048.63.494.42.41-.198.959.01 3.444 1.367 1.626.888 2.853 1.678 2.72 1.756-.12.055-1.09-.323-2.112-.88-1.058-.548-2.025-.986-2.156-.967-.141-.017-.42.494-.596 1.092a37.28 37.28 0 0 0-.425 1.276c-.063.116-1.541-.6-3.284-1.551a244.682 244.682 0 0 0-7.281-3.673c-10.539-4.998-10.167-4.795-10.076-5.349.07-.625 1.409-.98 5.714-1.464 1.628-.166 3.692-.578 4.568-.913l1.621-.593 1.778 1.271a64.282 64.282 0 0 1 3.917 3.043c1.609 1.36 2.963 2.25 5.577 3.647 1.905 1.04 3.569 1.858 3.723 1.851.214-.004 7.103 3.063 15.631 6.993a98.481 98.481 0 0 1 5.721 2.942c2.914 1.621 3.11 1.758 3.539 2.685.241.554.709 1.352 1.049 1.779.363.439.902 1.276 1.223 1.903 2.138 4.092 2.598 5.127 2.44 5.583-.484 1.274-.522 1.675-.197 1.853.511.279 1.924-.819 2.144-1.664.288-1.079-1.168-5.703-2.275-7.212-1.205-1.713-3.617-4.145-4.079-4.126-.404.021-29.176-15.652-29.701-16.18-.182-.22-.414-.346-.509-.338Zm-5.074 2.115c-.383.093-1.192-.138-2.461-.74l-1.898-.885.811-.16c.657-.155 1.126-.02 2.45.703 1.51.825 1.613.911 1.098 1.082Zm3.744 1.923c-.171.148-.828-.03-1.736-.465-1.233-.613-1.43-.75-1.136-1.012.439-.363 3.265 1.088 2.872 1.477Zm5.913 3.529c-.133.41-.391.33-2.83-1.002-2.555-1.395-2.682-1.494-2.441-1.935.254-.465.382-.425 2.83 1.001 2.238 1.313 2.562 1.55 2.441 1.936Zm9.66 5.06c.09.442-.19.35-2.374-.842-1.371-.749-2.412-1.437-2.348-1.553.139-.256 1.121.1 3.168 1.156 1.047.511 1.484.87 1.554 1.24Zm4.268 2.18c.255.14.39.334.314.473-.076.139-.87-.174-1.869-.719-.952-.52-1.691-1.044-1.628-1.16.152-.279 1.322.119 2.142.717.346.25.809.562 1.041.689Zm8.411 4.862c-.046.306-.234.264-.752-.169a13.208 13.208 0 0 0-1.488-1.084c-.731-.429-.672-.427.426-.009 1.624.615 1.89.791 1.814 1.262Zm-18.189-9.928c-.004.45-.357.378-2.021-.44-1.316-.627-1.523-.8-1.402-1.187.12-.386.331-.331 1.772.455.882.482 1.621 1.005 1.651 1.172Zm13.313 7.206a10.878 10.878 0 0 1-1.626-.887c-.37-.262.051-.093.933.389.906.494 1.206.718.693.498Zm-29.29-14.117c-.521.349-2.756-.418-4.433-1.545l-.891-.577 1.092-.067c.879-.063 1.453.1 2.917.899 1.719.938 1.776 1 1.315 1.29Zm31.384 17.13.317.745-1.654-.782c-1.431-.691-1.672-.913-1.965-1.646l-.313-.863 1.649.9c1.301.71 1.739 1.069 1.966 1.646Zm3.069 1.614c.118.336.177.67.114.786-.178.325-1.924-1.171-2.16-1.843-.201-.682-.201-.682.798-.137.627.343 1.132.799 1.248 1.194Zm-15.402-6.416c2.648 1.777 2.842 1.973 2.671 2.453-.184.502-.313.462-3.827-1.275-2.002-.972-5.347-2.798-7.434-4.057-3.444-2.031-3.801-2.316-3.701-2.775.033-.282.236-.654.433-.849.319-.308.726-.115 4.661 2.122 2.39 1.365 5.624 3.341 7.197 4.38Z" />
      </g>
    </g>
  </g>
  <defs>
    <clipPath id="a">
      <path fill="#fff" d="M0 0h314v409H0z" />
    </clipPath>
    <clipPath id="b">
      <rect width="250.91" height="334.547" x="31.557" y="32.844" fill="#fff" rx="6.257" />
    </clipPath>
    <clipPath id="c">
      <path fill="#fff" d="m236.878 312.836 45.007-15.695 15.695 45.007-45.007 15.695z" />
    </clipPath>
    <clipPath id="d">
      <path fill="#fff" d="M50.329 254.232h213.369v21.264H50.328z" />
    </clipPath>
    <clipPath id="e">
      <path fill="#fff" d="m244.828 34.943 59.47 32.458-32.458 59.47-59.47-32.458z" />
    </clipPath>
  </defs>
</svg>