<svg width="405" height="781" viewBox="0 0 405 781" fill="none" xmlns="http://www.w3.org/2000/svg">
<path d="M177.5 76.5C177.5 76.5 149.5 101.5 144.5 149C139.5 196.5 177.5 230 177.5 230C102.833 233.36 83.3165 252.679 88.9998 318.5C129.502 330.563 142.592 343.15 148 376.5C165.379 415.526 180.602 431.196 218 447.5C168.015 475.673 141.798 492.123 131 534.5C129.275 580.339 139.737 651.652 177.5 691C201.866 684.269 233.598 771.476 224.5 776" stroke="black" stroke-width="2" stroke-linecap="round" stroke-linejoin="round" stroke-dasharray="8 8"/>
<circle cx="183.5" cy="63.5" r="22" fill="#252533" stroke="#FFC85B" stroke-width="3"/>
<circle cx="178.5" cy="689.5" r="22" fill="#252533" stroke="#FFC85B" stroke-width="3"/>
<circle cx="180" cy="229" r="9" fill="white" stroke="#252533" stroke-width="2"/>
<circle cx="88" cy="320" r="9" fill="white" stroke="#252533" stroke-width="2"/>
<circle cx="148" cy="375" r="9" fill="white" stroke="#252533" stroke-width="2"/>
<circle cx="222" cy="448" r="9" fill="white" stroke="#252533" stroke-width="2"/>
<circle cx="131" cy="537" r="9" fill="white" stroke="#252533" stroke-width="2"/>
<circle cx="148" cy="637" r="9" fill="white" stroke="#252533" stroke-width="2"/>
<path d="M157.68 32V30.128C159.2 29.04 160.472 28.08 161.496 27.248C162.536 26.416 163.368 25.648 163.992 24.944C164.616 24.24 165.064 23.576 165.336 22.952C165.624 22.312 165.768 21.664 165.768 21.008C165.768 20.16 165.504 19.472 164.976 18.944C164.448 18.416 163.712 18.152 162.768 18.152C161.776 18.152 160.984 18.488 160.392 19.16C159.816 19.816 159.488 20.72 159.408 21.872L157.176 20.84C157.288 19.832 157.584 18.96 158.064 18.224C158.544 17.488 159.192 16.92 160.008 16.52C160.84 16.12 161.8 15.92 162.888 15.92C163.784 15.92 164.568 16.048 165.24 16.304C165.928 16.56 166.504 16.92 166.968 17.384C167.432 17.832 167.784 18.36 168.024 18.968C168.28 19.576 168.408 20.224 168.408 20.912C168.408 21.92 168.16 22.896 167.664 23.84C167.168 24.768 166.384 25.72 165.312 26.696C164.24 27.672 162.832 28.72 161.088 29.84V29.888C161.28 29.856 161.544 29.84 161.88 29.84C162.216 29.824 162.552 29.816 162.888 29.816C163.224 29.8 163.496 29.792 163.704 29.792H168.696V32H157.68ZM177.622 32.24C175.718 32.24 174.222 31.552 173.134 30.176C172.062 28.784 171.526 26.752 171.526 24.08C171.526 21.408 172.062 19.384 173.134 18.008C174.222 16.616 175.718 15.92 177.622 15.92C179.542 15.92 181.038 16.616 182.11 18.008C183.198 19.384 183.742 21.408 183.742 24.08C183.742 26.752 183.198 28.784 182.11 30.176C181.038 31.552 179.542 32.24 177.622 32.24ZM177.622 30.056C178.39 30.056 179.03 29.84 179.542 29.408C180.07 28.96 180.462 28.296 180.718 27.416C180.99 26.52 181.126 25.408 181.126 24.08C181.126 22.752 180.99 21.648 180.718 20.768C180.462 19.872 180.07 19.208 179.542 18.776C179.03 18.328 178.39 18.104 177.622 18.104C176.854 18.104 176.206 18.328 175.678 18.776C175.166 19.208 174.782 19.872 174.526 20.768C174.27 21.648 174.142 22.752 174.142 24.08C174.142 25.408 174.27 26.52 174.526 27.416C174.782 28.296 175.166 28.96 175.678 29.408C176.206 29.84 176.854 30.056 177.622 30.056ZM190.028 32V21.128C190.028 20.808 190.028 20.48 190.028 20.144C190.044 19.792 190.06 19.424 190.076 19.04C189.532 19.568 188.908 20.024 188.204 20.408C187.516 20.776 186.804 21.04 186.068 21.2L185.588 18.968C185.924 18.92 186.316 18.808 186.764 18.632C187.212 18.456 187.676 18.232 188.156 17.96C188.636 17.688 189.076 17.4 189.476 17.096C189.876 16.776 190.188 16.464 190.412 16.16H192.572V32H190.028ZM201.917 15.92C203.277 15.92 204.421 16.256 205.349 16.928C206.293 17.6 206.997 18.544 207.461 19.76C207.941 20.976 208.181 22.408 208.181 24.056C208.181 25.88 207.933 27.4 207.437 28.616C206.941 29.816 206.229 30.72 205.301 31.328C204.373 31.936 203.253 32.24 201.941 32.24C200.597 32.24 199.445 31.944 198.485 31.352C197.525 30.76 196.805 29.872 196.325 28.688L198.749 27.56C198.973 28.312 199.341 28.912 199.853 29.36C200.381 29.808 201.093 30.032 201.989 30.032C202.725 30.032 203.341 29.888 203.837 29.6C204.333 29.312 204.725 28.896 205.013 28.352C205.317 27.808 205.533 27.152 205.661 26.384C205.789 25.616 205.853 24.752 205.853 23.792C205.853 23.744 205.853 23.704 205.853 23.672C205.853 23.624 205.853 23.576 205.853 23.528H205.757C205.581 24.168 205.261 24.688 204.797 25.088C204.349 25.488 203.837 25.784 203.261 25.976C202.685 26.152 202.109 26.24 201.533 26.24C200.509 26.24 199.597 26.04 198.797 25.64C198.013 25.224 197.397 24.648 196.949 23.912C196.501 23.176 196.277 22.304 196.277 21.296C196.277 20.192 196.501 19.24 196.949 18.44C197.413 17.64 198.061 17.024 198.893 16.592C199.741 16.144 200.749 15.92 201.917 15.92ZM201.941 18.176C200.933 18.176 200.157 18.448 199.613 18.992C199.085 19.536 198.821 20.296 198.821 21.272C198.821 22.136 199.101 22.816 199.661 23.312C200.237 23.792 200.997 24.032 201.941 24.032C202.549 24.032 203.085 23.912 203.549 23.672C204.013 23.416 204.373 23.072 204.629 22.64C204.901 22.208 205.037 21.704 205.037 21.128C205.037 20.52 204.901 20 204.629 19.568C204.373 19.12 204.013 18.776 203.549 18.536C203.085 18.296 202.549 18.176 201.941 18.176Z" fill="black"/>
<path d="M214.336 221.16V237H211.744V221.16H214.336ZM203.92 221.16V237H201.352V221.16H203.92ZM213.04 227.88V230.088H202.648V227.88H213.04ZM230.808 221.16V223.368H225.384V237H222.816V223.368H217.392V221.16H230.808ZM250.083 221.16V237H247.707V227.832L247.899 223.464H247.875L243.051 237H240.915L236.091 223.464H236.067L236.259 227.832V237H233.883V221.16H237.699L240.891 230.328L241.995 234.096H242.043L243.171 230.328L246.339 221.16H250.083ZM257.358 234.792H266.094V237H254.79V221.16H257.358V234.792ZM270.139 233.76C270.587 233.76 270.955 233.872 271.243 234.096C271.547 234.304 271.779 234.6 271.939 234.984C272.099 235.352 272.179 235.776 272.179 236.256C272.179 236.848 272.067 237.416 271.843 237.96C271.619 238.52 271.291 239.024 270.859 239.472C270.443 239.936 269.939 240.312 269.347 240.6L268.147 239.568C268.579 239.408 268.963 239.2 269.299 238.944C269.635 238.688 269.915 238.4 270.139 238.08C270.379 237.76 270.547 237.432 270.643 237.096L270.547 237.048C270.467 237.096 270.371 237.136 270.259 237.168C270.163 237.2 270.019 237.216 269.827 237.216C269.603 237.216 269.371 237.152 269.131 237.024C268.907 236.912 268.715 236.736 268.555 236.496C268.395 236.256 268.315 235.944 268.315 235.56C268.315 235.208 268.395 234.896 268.555 234.624C268.731 234.352 268.955 234.144 269.227 234C269.499 233.84 269.803 233.76 270.139 233.76ZM296.722 232.8C296.402 233.76 295.922 234.576 295.282 235.248C294.642 235.904 293.89 236.4 293.026 236.736C292.162 237.072 291.21 237.24 290.17 237.24C288.65 237.24 287.33 236.912 286.21 236.256C285.09 235.6 284.226 234.664 283.618 233.448C283.01 232.232 282.706 230.776 282.706 229.08C282.706 227.384 283.01 225.928 283.618 224.712C284.226 223.496 285.09 222.56 286.21 221.904C287.33 221.248 288.642 220.92 290.146 220.92C291.186 220.92 292.122 221.064 292.954 221.352C293.802 221.64 294.522 222.072 295.114 222.648C295.706 223.224 296.162 223.944 296.482 224.808L294.058 225.888C293.738 224.944 293.274 224.256 292.666 223.824C292.058 223.376 291.266 223.152 290.29 223.152C289.314 223.152 288.458 223.384 287.722 223.848C286.986 224.312 286.41 224.984 285.994 225.864C285.594 226.744 285.394 227.816 285.394 229.08C285.394 230.328 285.586 231.4 285.97 232.296C286.354 233.176 286.906 233.848 287.626 234.312C288.346 234.776 289.21 235.008 290.218 235.008C291.194 235.008 292.034 234.76 292.738 234.264C293.458 233.752 293.97 232.992 294.274 231.984L296.722 232.8ZM305.4 220.92C306.824 220.92 308.056 221.192 309.096 221.736C310.136 222.264 311.016 223.048 311.736 224.088L310.008 225.744C309.4 224.816 308.712 224.152 307.944 223.752C307.192 223.336 306.296 223.128 305.256 223.128C304.488 223.128 303.856 223.232 303.36 223.44C302.864 223.648 302.496 223.928 302.256 224.28C302.032 224.616 301.92 225 301.92 225.432C301.92 225.928 302.088 226.36 302.424 226.728C302.776 227.096 303.424 227.384 304.368 227.592L307.584 228.312C309.12 228.648 310.208 229.16 310.848 229.848C311.488 230.536 311.808 231.408 311.808 232.464C311.808 233.44 311.544 234.288 311.016 235.008C310.488 235.728 309.752 236.28 308.808 236.664C307.88 237.048 306.784 237.24 305.52 237.24C304.4 237.24 303.392 237.096 302.496 236.808C301.6 236.52 300.816 236.128 300.144 235.632C299.472 235.136 298.92 234.568 298.488 233.928L300.264 232.152C300.6 232.712 301.024 233.216 301.536 233.664C302.048 234.096 302.64 234.432 303.312 234.672C304 234.912 304.76 235.032 305.592 235.032C306.328 235.032 306.96 234.944 307.488 234.768C308.032 234.592 308.44 234.336 308.712 234C309 233.648 309.144 233.232 309.144 232.752C309.144 232.288 308.984 231.88 308.664 231.528C308.36 231.176 307.784 230.904 306.936 230.712L303.456 229.92C302.496 229.712 301.704 229.416 301.08 229.032C300.456 228.648 299.992 228.184 299.688 227.64C299.384 227.08 299.232 226.456 299.232 225.768C299.232 224.872 299.472 224.064 299.952 223.344C300.448 222.608 301.16 222.024 302.088 221.592C303.016 221.144 304.12 220.92 305.4 220.92ZM320.799 220.92C322.223 220.92 323.455 221.192 324.495 221.736C325.535 222.264 326.415 223.048 327.135 224.088L325.407 225.744C324.799 224.816 324.111 224.152 323.343 223.752C322.591 223.336 321.695 223.128 320.655 223.128C319.887 223.128 319.255 223.232 318.759 223.44C318.263 223.648 317.895 223.928 317.655 224.28C317.431 224.616 317.319 225 317.319 225.432C317.319 225.928 317.487 226.36 317.823 226.728C318.175 227.096 318.823 227.384 319.767 227.592L322.983 228.312C324.519 228.648 325.607 229.16 326.247 229.848C326.887 230.536 327.207 231.408 327.207 232.464C327.207 233.44 326.943 234.288 326.415 235.008C325.887 235.728 325.151 236.28 324.207 236.664C323.279 237.048 322.183 237.24 320.919 237.24C319.799 237.24 318.791 237.096 317.895 236.808C316.999 236.52 316.215 236.128 315.543 235.632C314.871 235.136 314.319 234.568 313.887 233.928L315.663 232.152C315.999 232.712 316.423 233.216 316.935 233.664C317.447 234.096 318.039 234.432 318.711 234.672C319.399 234.912 320.159 235.032 320.991 235.032C321.727 235.032 322.359 234.944 322.887 234.768C323.431 234.592 323.839 234.336 324.111 234C324.399 233.648 324.543 233.232 324.543 232.752C324.543 232.288 324.383 231.88 324.063 231.528C323.759 231.176 323.183 230.904 322.335 230.712L318.855 229.92C317.895 229.712 317.103 229.416 316.479 229.032C315.855 228.648 315.391 228.184 315.087 227.64C314.783 227.08 314.631 226.456 314.631 225.768C314.631 224.872 314.871 224.064 315.351 223.344C315.847 222.608 316.559 222.024 317.487 221.592C318.415 221.144 319.519 220.92 320.799 220.92ZM331.709 233.76C332.157 233.76 332.525 233.872 332.813 234.096C333.117 234.304 333.349 234.6 333.509 234.984C333.669 235.352 333.749 235.776 333.749 236.256C333.749 236.848 333.637 237.416 333.413 237.96C333.189 238.52 332.861 239.024 332.429 239.472C332.013 239.936 331.509 240.312 330.917 240.6L329.717 239.568C330.149 239.408 330.533 239.2 330.869 238.944C331.205 238.688 331.485 238.4 331.709 238.08C331.949 237.76 332.117 237.432 332.213 237.096L332.117 237.048C332.037 237.096 331.941 237.136 331.829 237.168C331.733 237.2 331.589 237.216 331.397 237.216C331.173 237.216 330.941 237.152 330.701 237.024C330.477 236.912 330.285 236.736 330.125 236.496C329.965 236.256 329.885 235.944 329.885 235.56C329.885 235.208 329.965 234.896 330.125 234.624C330.301 234.352 330.525 234.144 330.797 234C331.069 233.84 331.373 233.76 331.709 233.76ZM354.129 221.16V231.384C354.129 233.224 353.617 234.664 352.593 235.704C351.585 236.728 350.177 237.24 348.369 237.24C347.073 237.24 346.017 237 345.201 236.52C344.385 236.04 343.817 235.368 343.497 234.504C343.177 233.624 343.121 232.608 343.329 231.456L345.801 231C345.609 232.376 345.713 233.392 346.113 234.048C346.513 234.688 347.265 235.008 348.369 235.008C349.569 235.008 350.393 234.664 350.841 233.976C351.305 233.272 351.537 232.248 351.537 230.904V221.16H354.129ZM364.018 220.92C365.442 220.92 366.674 221.192 367.714 221.736C368.754 222.264 369.634 223.048 370.354 224.088L368.626 225.744C368.018 224.816 367.33 224.152 366.562 223.752C365.81 223.336 364.914 223.128 363.874 223.128C363.106 223.128 362.474 223.232 361.978 223.44C361.482 223.648 361.114 223.928 360.874 224.28C360.65 224.616 360.538 225 360.538 225.432C360.538 225.928 360.706 226.36 361.042 226.728C361.394 227.096 362.042 227.384 362.986 227.592L366.202 228.312C367.738 228.648 368.826 229.16 369.466 229.848C370.106 230.536 370.426 231.408 370.426 232.464C370.426 233.44 370.162 234.288 369.634 235.008C369.106 235.728 368.37 236.28 367.426 236.664C366.498 237.048 365.402 237.24 364.138 237.24C363.018 237.24 362.01 237.096 361.114 236.808C360.218 236.52 359.434 236.128 358.762 235.632C358.09 235.136 357.538 234.568 357.106 233.928L358.882 232.152C359.218 232.712 359.642 233.216 360.154 233.664C360.666 234.096 361.258 234.432 361.93 234.672C362.618 234.912 363.378 235.032 364.21 235.032C364.946 235.032 365.578 234.944 366.106 234.768C366.65 234.592 367.058 234.336 367.33 234C367.618 233.648 367.762 233.232 367.762 232.752C367.762 232.288 367.602 231.88 367.282 231.528C366.978 231.176 366.402 230.904 365.554 230.712L362.074 229.92C361.114 229.712 360.322 229.416 359.698 229.032C359.074 228.648 358.61 228.184 358.306 227.64C358.002 227.08 357.85 226.456 357.85 225.768C357.85 224.872 358.09 224.064 358.57 223.344C359.066 222.608 359.778 222.024 360.706 221.592C361.634 221.144 362.738 220.92 364.018 220.92Z" fill="black"/>
<path d="M28.448 312.16C29.584 312.16 30.56 312.36 31.376 312.76C32.208 313.16 32.856 313.728 33.32 314.464C33.784 315.2 34.016 316.088 34.016 317.128C34.016 318.152 33.784 319.04 33.32 319.792C32.856 320.528 32.208 321.096 31.376 321.496C30.56 321.896 29.584 322.096 28.448 322.096H24.92V328H22.352V312.16H28.448ZM28.04 319.888C29.176 319.888 30.008 319.656 30.536 319.192C31.08 318.712 31.352 318.024 31.352 317.128C31.352 316.216 31.08 315.528 30.536 315.064C30.008 314.584 29.176 314.344 28.04 314.344H24.92V319.888H28.04ZM50.3829 312.16V328H47.7909V312.16H50.3829ZM39.9669 312.16V328H37.3989V312.16H39.9669ZM49.0869 318.88V321.088H38.6949V318.88H49.0869ZM61.1668 312.16C62.3028 312.16 63.2788 312.36 64.0948 312.76C64.9268 313.16 65.5748 313.728 66.0388 314.464C66.5028 315.2 66.7348 316.088 66.7348 317.128C66.7348 318.152 66.5028 319.04 66.0388 319.792C65.5748 320.528 64.9268 321.096 64.0948 321.496C63.2788 321.896 62.3028 322.096 61.1668 322.096H57.6388V328H55.0708V312.16H61.1668ZM60.7588 319.888C61.8948 319.888 62.7268 319.656 63.2548 319.192C63.7988 318.712 64.0708 318.024 64.0708 317.128C64.0708 316.216 63.7988 315.528 63.2548 315.064C62.7268 314.584 61.8948 314.344 60.7588 314.344H57.6388V319.888H60.7588Z" fill="black"/>
<path d="M184.288 367.16L178.408 383H175.408L169.528 367.16H172.264L175.96 377.696L176.92 380.84L177.88 377.72L181.576 367.16H184.288ZM190.358 383.24C189.574 383.24 188.846 383.096 188.174 382.808C187.518 382.52 186.99 382.056 186.59 381.416C186.19 380.776 185.99 379.944 185.99 378.92V371H188.558V378.272C188.558 379.36 188.79 380.112 189.254 380.528C189.718 380.928 190.366 381.128 191.198 381.128C191.598 381.128 191.982 381.064 192.35 380.936C192.734 380.792 193.078 380.576 193.382 380.288C193.686 379.984 193.918 379.6 194.078 379.136C194.254 378.672 194.342 378.128 194.342 377.504V371H196.91V383H194.654L194.534 381.056C194.118 381.808 193.558 382.36 192.854 382.712C192.15 383.064 191.318 383.24 190.358 383.24ZM206.202 383.24C205.002 383.24 203.946 382.992 203.034 382.496C202.122 382 201.41 381.288 200.898 380.36C200.402 379.416 200.154 378.296 200.154 377C200.154 375.704 200.402 374.592 200.898 373.664C201.41 372.72 202.114 372 203.01 371.504C203.906 371.008 204.922 370.76 206.058 370.76C207.226 370.76 208.218 371 209.034 371.48C209.85 371.96 210.474 372.616 210.906 373.448C211.338 374.28 211.554 375.224 211.554 376.28C211.554 376.568 211.546 376.84 211.53 377.096C211.514 377.352 211.49 377.576 211.458 377.768H201.81V375.8H210.33L209.058 376.184C209.058 375.096 208.786 374.264 208.242 373.688C207.698 373.096 206.954 372.8 206.01 372.8C205.322 372.8 204.722 372.96 204.21 373.28C203.698 373.6 203.306 374.08 203.034 374.72C202.762 375.344 202.626 376.112 202.626 377.024C202.626 377.92 202.77 378.68 203.058 379.304C203.346 379.928 203.754 380.4 204.282 380.72C204.81 381.04 205.434 381.2 206.154 381.2C206.954 381.2 207.602 381.048 208.098 380.744C208.594 380.44 208.986 380.016 209.274 379.472L211.314 380.432C211.026 381.008 210.634 381.512 210.138 381.944C209.658 382.36 209.082 382.68 208.41 382.904C207.738 383.128 207.002 383.24 206.202 383.24ZM216.093 379.76C216.637 379.76 217.069 379.92 217.389 380.24C217.725 380.544 217.893 380.96 217.893 381.488C217.893 382.016 217.725 382.44 217.389 382.76C217.069 383.08 216.637 383.24 216.093 383.24C215.533 383.24 215.085 383.08 214.749 382.76C214.429 382.44 214.269 382.016 214.269 381.488C214.269 380.96 214.429 380.544 214.749 380.24C215.085 379.92 215.533 379.76 216.093 379.76ZM222.913 368.984C222.353 368.984 221.921 368.848 221.617 368.576C221.329 368.288 221.185 367.888 221.185 367.376C221.185 366.864 221.329 366.472 221.617 366.2C221.921 365.928 222.353 365.792 222.913 365.792C223.457 365.792 223.873 365.928 224.161 366.2C224.465 366.472 224.617 366.864 224.617 367.376C224.617 367.888 224.465 368.288 224.161 368.576C223.873 368.848 223.457 368.984 222.913 368.984ZM224.185 371V384.056C224.185 385.08 223.993 385.888 223.609 386.48C223.241 387.088 222.753 387.52 222.145 387.776C221.553 388.032 220.921 388.16 220.249 388.16C219.705 388.16 219.209 388.088 218.761 387.944C218.313 387.8 217.937 387.608 217.633 387.368L218.065 385.304C218.289 385.496 218.561 385.656 218.881 385.784C219.185 385.912 219.529 385.976 219.913 385.976C220.425 385.976 220.833 385.808 221.137 385.472C221.457 385.152 221.617 384.6 221.617 383.816V371H224.185ZM232.763 383.24C231.563 383.24 230.467 383.008 229.475 382.544C228.483 382.08 227.699 381.424 227.123 380.576L228.899 379.04C229.251 379.696 229.755 380.224 230.411 380.624C231.083 381.008 231.883 381.2 232.811 381.2C233.547 381.2 234.131 381.072 234.563 380.816C234.995 380.56 235.211 380.2 235.211 379.736C235.211 379.432 235.107 379.168 234.899 378.944C234.707 378.704 234.331 378.52 233.771 378.392L231.251 377.864C229.971 377.608 229.059 377.2 228.515 376.64C227.971 376.064 227.699 375.336 227.699 374.456C227.699 373.8 227.891 373.192 228.275 372.632C228.659 372.072 229.219 371.624 229.955 371.288C230.707 370.936 231.603 370.76 232.643 370.76C233.843 370.76 234.867 370.976 235.715 371.408C236.563 371.824 237.211 372.424 237.659 373.208L235.883 374.696C235.579 374.056 235.131 373.584 234.539 373.28C233.947 372.96 233.331 372.8 232.691 372.8C232.179 372.8 231.739 372.864 231.371 372.992C231.003 373.12 230.723 373.296 230.531 373.52C230.339 373.744 230.243 374.008 230.243 374.312C230.243 374.632 230.363 374.912 230.603 375.152C230.843 375.392 231.275 375.576 231.899 375.704L234.635 376.28C235.787 376.504 236.595 376.888 237.059 377.432C237.539 377.96 237.779 378.608 237.779 379.376C237.779 380.144 237.579 380.824 237.179 381.416C236.779 381.992 236.203 382.44 235.451 382.76C234.699 383.08 233.803 383.24 232.763 383.24Z" fill="black"/>
<path d="M258.336 440.16V456H255.288L249.168 446.016L247.632 443.208H247.608L247.704 445.776V456H245.352V440.16H248.376L254.472 450.12L256.032 452.976H256.056L255.96 450.384V440.16H258.336ZM267.708 443.76C268.876 443.76 269.908 444.008 270.804 444.504C271.7 445 272.396 445.72 272.892 446.664C273.404 447.592 273.66 448.704 273.66 450C273.66 451.296 273.404 452.416 272.892 453.36C272.396 454.288 271.7 455 270.804 455.496C269.908 455.992 268.876 456.24 267.708 456.24C266.54 456.24 265.508 455.992 264.612 455.496C263.716 455 263.012 454.288 262.5 453.36C261.988 452.416 261.732 451.296 261.732 450C261.732 448.704 261.988 447.592 262.5 446.664C263.012 445.72 263.716 445 264.612 444.504C265.508 444.008 266.54 443.76 267.708 443.76ZM267.708 445.776C266.988 445.776 266.372 445.944 265.86 446.28C265.364 446.6 264.98 447.072 264.708 447.696C264.436 448.32 264.3 449.088 264.3 450C264.3 450.896 264.436 451.664 264.708 452.304C264.98 452.928 265.364 453.408 265.86 453.744C266.372 454.064 266.988 454.224 267.708 454.224C268.428 454.224 269.036 454.064 269.532 453.744C270.028 453.408 270.412 452.928 270.684 452.304C270.956 451.664 271.092 450.896 271.092 450C271.092 449.088 270.956 448.32 270.684 447.696C270.412 447.072 270.028 446.6 269.532 446.28C269.036 445.944 268.428 445.776 267.708 445.776ZM281.498 456.24C280.506 456.24 279.602 455.992 278.786 455.496C277.986 455 277.354 454.288 276.89 453.36C276.426 452.432 276.194 451.32 276.194 450.024C276.194 448.68 276.442 447.544 276.938 446.616C277.434 445.688 278.098 444.984 278.93 444.504C279.762 444.008 280.674 443.76 281.666 443.76C282.69 443.76 283.554 444.04 284.258 444.6C284.962 445.16 285.434 445.888 285.674 446.784L285.386 447.048V438.6H287.954V456H285.674L285.482 452.736L285.818 452.76C285.706 453.48 285.442 454.104 285.026 454.632C284.61 455.144 284.09 455.544 283.466 455.832C282.858 456.104 282.202 456.24 281.498 456.24ZM282.05 454.176C282.738 454.176 283.33 454 283.826 453.648C284.322 453.296 284.706 452.8 284.978 452.16C285.25 451.52 285.386 450.752 285.386 449.856C285.386 449.024 285.25 448.312 284.978 447.72C284.706 447.112 284.322 446.648 283.826 446.328C283.346 446.008 282.786 445.848 282.146 445.848C281.074 445.848 280.242 446.216 279.65 446.952C279.058 447.688 278.762 448.704 278.762 450C278.762 451.296 279.05 452.32 279.626 453.072C280.202 453.808 281.01 454.176 282.05 454.176ZM297.217 456.24C296.017 456.24 294.961 455.992 294.049 455.496C293.137 455 292.425 454.288 291.913 453.36C291.417 452.416 291.169 451.296 291.169 450C291.169 448.704 291.417 447.592 291.913 446.664C292.425 445.72 293.129 445 294.025 444.504C294.921 444.008 295.937 443.76 297.073 443.76C298.241 443.76 299.233 444 300.049 444.48C300.865 444.96 301.489 445.616 301.921 446.448C302.353 447.28 302.569 448.224 302.569 449.28C302.569 449.568 302.561 449.84 302.545 450.096C302.529 450.352 302.505 450.576 302.473 450.768H292.825V448.8H301.345L300.073 449.184C300.073 448.096 299.801 447.264 299.257 446.688C298.713 446.096 297.969 445.8 297.025 445.8C296.337 445.8 295.737 445.96 295.225 446.28C294.713 446.6 294.321 447.08 294.049 447.72C293.777 448.344 293.641 449.112 293.641 450.024C293.641 450.92 293.785 451.68 294.073 452.304C294.361 452.928 294.769 453.4 295.297 453.72C295.825 454.04 296.449 454.2 297.169 454.2C297.969 454.2 298.617 454.048 299.113 453.744C299.609 453.44 300.001 453.016 300.289 452.472L302.329 453.432C302.041 454.008 301.649 454.512 301.153 454.944C300.673 455.36 300.097 455.68 299.425 455.904C298.753 456.128 298.017 456.24 297.217 456.24ZM307.108 452.76C307.652 452.76 308.084 452.92 308.404 453.24C308.74 453.544 308.908 453.96 308.908 454.488C308.908 455.016 308.74 455.44 308.404 455.76C308.084 456.08 307.652 456.24 307.108 456.24C306.548 456.24 306.1 456.08 305.764 455.76C305.444 455.44 305.284 455.016 305.284 454.488C305.284 453.96 305.444 453.544 305.764 453.24C306.1 452.92 306.548 452.76 307.108 452.76ZM313.929 441.984C313.369 441.984 312.937 441.848 312.633 441.576C312.345 441.288 312.201 440.888 312.201 440.376C312.201 439.864 312.345 439.472 312.633 439.2C312.937 438.928 313.369 438.792 313.929 438.792C314.473 438.792 314.889 438.928 315.177 439.2C315.481 439.472 315.633 439.864 315.633 440.376C315.633 440.888 315.481 441.288 315.177 441.576C314.889 441.848 314.473 441.984 313.929 441.984ZM315.201 444V457.056C315.201 458.08 315.009 458.888 314.625 459.48C314.257 460.088 313.769 460.52 313.161 460.776C312.569 461.032 311.937 461.16 311.265 461.16C310.721 461.16 310.225 461.088 309.777 460.944C309.329 460.8 308.953 460.608 308.649 460.368L309.081 458.304C309.305 458.496 309.577 458.656 309.897 458.784C310.201 458.912 310.545 458.976 310.929 458.976C311.441 458.976 311.849 458.808 312.153 458.472C312.473 458.152 312.633 457.6 312.633 456.816V444H315.201ZM323.779 456.24C322.579 456.24 321.483 456.008 320.491 455.544C319.499 455.08 318.715 454.424 318.139 453.576L319.915 452.04C320.267 452.696 320.771 453.224 321.427 453.624C322.099 454.008 322.899 454.2 323.827 454.2C324.563 454.2 325.147 454.072 325.579 453.816C326.011 453.56 326.227 453.2 326.227 452.736C326.227 452.432 326.123 452.168 325.915 451.944C325.723 451.704 325.347 451.52 324.787 451.392L322.267 450.864C320.987 450.608 320.075 450.2 319.531 449.64C318.987 449.064 318.715 448.336 318.715 447.456C318.715 446.8 318.907 446.192 319.291 445.632C319.675 445.072 320.235 444.624 320.971 444.288C321.723 443.936 322.619 443.76 323.659 443.76C324.859 443.76 325.883 443.976 326.731 444.408C327.579 444.824 328.227 445.424 328.675 446.208L326.899 447.696C326.595 447.056 326.147 446.584 325.555 446.28C324.963 445.96 324.347 445.8 323.707 445.8C323.195 445.8 322.755 445.864 322.387 445.992C322.019 446.12 321.739 446.296 321.547 446.52C321.355 446.744 321.259 447.008 321.259 447.312C321.259 447.632 321.379 447.912 321.619 448.152C321.859 448.392 322.291 448.576 322.915 448.704L325.651 449.28C326.803 449.504 327.611 449.888 328.075 450.432C328.555 450.96 328.795 451.608 328.795 452.376C328.795 453.144 328.595 453.824 328.195 454.416C327.795 454.992 327.219 455.44 326.467 455.76C325.715 456.08 324.819 456.24 323.779 456.24Z" fill="black"/>
<path d="M166.136 529.16V531.368H160.712V545H158.144V531.368H152.72V529.16H166.136ZM177.583 533L172.327 546.416C171.975 547.344 171.591 548.08 171.175 548.624C170.775 549.168 170.311 549.56 169.783 549.8C169.255 550.04 168.639 550.16 167.935 550.16C167.359 550.16 166.823 550.08 166.327 549.92C165.847 549.776 165.423 549.576 165.055 549.32L165.679 547.328C165.983 547.584 166.303 547.776 166.639 547.904C166.991 548.032 167.367 548.096 167.767 548.096C168.199 548.096 168.583 547.976 168.919 547.736C169.271 547.512 169.583 547.056 169.855 546.368L170.383 545.072L169.111 542.096L165.367 533H168.247L170.911 540.536L171.607 542.792L172.399 540.32L174.919 533H177.583ZM179.773 550.04V533H182.053L182.245 536.36L181.909 535.952C182.101 535.328 182.397 534.776 182.797 534.296C183.197 533.816 183.693 533.44 184.285 533.168C184.893 532.896 185.557 532.76 186.277 532.76C187.253 532.76 188.141 533.008 188.941 533.504C189.741 534 190.373 534.712 190.837 535.64C191.301 536.552 191.533 537.664 191.533 538.976C191.533 540.288 191.293 541.416 190.813 542.36C190.349 543.288 189.709 544 188.893 544.496C188.093 544.992 187.197 545.24 186.205 545.24C185.181 545.24 184.309 544.976 183.589 544.448C182.869 543.904 182.357 543.216 182.053 542.384L182.341 541.976V550.04H179.773ZM185.653 543.152C186.693 543.152 187.501 542.784 188.077 542.048C188.669 541.312 188.965 540.296 188.965 539C188.965 537.704 188.677 536.688 188.101 535.952C187.525 535.2 186.725 534.824 185.701 534.824C185.029 534.824 184.437 535 183.925 535.352C183.429 535.688 183.037 536.168 182.749 536.792C182.477 537.4 182.341 538.136 182.341 539C182.341 539.848 182.477 540.584 182.749 541.208C183.021 541.832 183.405 542.312 183.901 542.648C184.397 542.984 184.981 543.152 185.653 543.152ZM200.1 545.24C198.9 545.24 197.844 544.992 196.932 544.496C196.02 544 195.308 543.288 194.796 542.36C194.3 541.416 194.052 540.296 194.052 539C194.052 537.704 194.3 536.592 194.796 535.664C195.308 534.72 196.012 534 196.908 533.504C197.804 533.008 198.82 532.76 199.956 532.76C201.124 532.76 202.116 533 202.932 533.48C203.748 533.96 204.372 534.616 204.804 535.448C205.236 536.28 205.452 537.224 205.452 538.28C205.452 538.568 205.444 538.84 205.428 539.096C205.412 539.352 205.388 539.576 205.356 539.768H195.708V537.8H204.228L202.956 538.184C202.956 537.096 202.684 536.264 202.14 535.688C201.596 535.096 200.852 534.8 199.908 534.8C199.22 534.8 198.62 534.96 198.108 535.28C197.596 535.6 197.204 536.08 196.932 536.72C196.66 537.344 196.524 538.112 196.524 539.024C196.524 539.92 196.668 540.68 196.956 541.304C197.244 541.928 197.652 542.4 198.18 542.72C198.708 543.04 199.332 543.2 200.052 543.2C200.852 543.2 201.5 543.048 201.996 542.744C202.492 542.44 202.884 542.016 203.172 541.472L205.212 542.432C204.924 543.008 204.532 543.512 204.036 543.944C203.556 544.36 202.98 544.68 202.308 544.904C201.636 545.128 200.9 545.24 200.1 545.24ZM214.361 528.92C215.785 528.92 217.017 529.192 218.057 529.736C219.097 530.264 219.977 531.048 220.697 532.088L218.969 533.744C218.361 532.816 217.673 532.152 216.905 531.752C216.153 531.336 215.257 531.128 214.217 531.128C213.449 531.128 212.817 531.232 212.321 531.44C211.825 531.648 211.457 531.928 211.217 532.28C210.993 532.616 210.881 533 210.881 533.432C210.881 533.928 211.049 534.36 211.385 534.728C211.737 535.096 212.385 535.384 213.329 535.592L216.545 536.312C218.081 536.648 219.169 537.16 219.809 537.848C220.449 538.536 220.769 539.408 220.769 540.464C220.769 541.44 220.505 542.288 219.977 543.008C219.449 543.728 218.713 544.28 217.769 544.664C216.841 545.048 215.745 545.24 214.481 545.24C213.361 545.24 212.353 545.096 211.457 544.808C210.561 544.52 209.777 544.128 209.105 543.632C208.433 543.136 207.881 542.568 207.449 541.928L209.225 540.152C209.561 540.712 209.985 541.216 210.497 541.664C211.009 542.096 211.601 542.432 212.273 542.672C212.961 542.912 213.721 543.032 214.553 543.032C215.289 543.032 215.921 542.944 216.449 542.768C216.993 542.592 217.401 542.336 217.673 542C217.961 541.648 218.105 541.232 218.105 540.752C218.105 540.288 217.945 539.88 217.625 539.528C217.321 539.176 216.745 538.904 215.897 538.712L212.417 537.92C211.457 537.712 210.665 537.416 210.041 537.032C209.417 536.648 208.953 536.184 208.649 535.64C208.345 535.08 208.193 534.456 208.193 533.768C208.193 532.872 208.433 532.064 208.913 531.344C209.409 530.608 210.121 530.024 211.049 529.592C211.977 529.144 213.081 528.92 214.361 528.92ZM229.184 532.76C230.144 532.76 230.96 532.904 231.632 533.192C232.32 533.464 232.896 533.856 233.36 534.368C233.824 534.88 234.176 535.464 234.416 536.12L231.992 537.08C231.784 536.344 231.448 535.784 230.984 535.4C230.536 535 229.944 534.8 229.208 534.8C228.488 534.8 227.872 534.968 227.36 535.304C226.848 535.624 226.456 536.096 226.184 536.72C225.928 537.344 225.8 538.112 225.8 539.024C225.8 539.92 225.936 540.68 226.208 541.304C226.48 541.928 226.872 542.4 227.384 542.72C227.896 543.04 228.504 543.2 229.208 543.2C229.752 543.2 230.224 543.112 230.624 542.936C231.024 542.744 231.352 542.48 231.608 542.144C231.88 541.792 232.064 541.368 232.16 540.872L234.488 541.664C234.264 542.384 233.912 543.016 233.432 543.56C232.968 544.088 232.384 544.504 231.68 544.808C230.976 545.096 230.168 545.24 229.256 545.24C228.072 545.24 227.024 544.992 226.112 544.496C225.2 544 224.488 543.288 223.976 542.36C223.48 541.416 223.232 540.296 223.232 539C223.232 537.704 223.48 536.592 223.976 535.664C224.488 534.72 225.192 534 226.088 533.504C227 533.008 228.032 532.76 229.184 532.76ZM237.476 545V533H239.66L239.9 535.16C240.22 534.376 240.692 533.784 241.316 533.384C241.956 532.968 242.74 532.76 243.668 532.76C243.908 532.76 244.148 532.784 244.388 532.832C244.628 532.864 244.828 532.92 244.988 533L244.628 535.256C244.452 535.192 244.252 535.144 244.028 535.112C243.82 535.064 243.532 535.04 243.164 535.04C242.668 535.04 242.18 535.176 241.7 535.448C241.22 535.704 240.82 536.096 240.5 536.624C240.196 537.152 240.044 537.824 240.044 538.64V545H237.476ZM248.71 530.984C248.15 530.984 247.718 530.848 247.414 530.576C247.126 530.288 246.982 529.888 246.982 529.376C246.982 528.864 247.126 528.472 247.414 528.2C247.718 527.928 248.15 527.792 248.71 527.792C249.254 527.792 249.67 527.928 249.958 528.2C250.262 528.472 250.414 528.864 250.414 529.376C250.414 529.888 250.262 530.288 249.958 530.576C249.67 530.848 249.254 530.984 248.71 530.984ZM249.982 533V545H247.414V533H249.982ZM254 550.04V533H256.28L256.472 536.36L256.136 535.952C256.328 535.328 256.624 534.776 257.024 534.296C257.424 533.816 257.92 533.44 258.512 533.168C259.12 532.896 259.784 532.76 260.504 532.76C261.48 532.76 262.368 533.008 263.168 533.504C263.968 534 264.6 534.712 265.064 535.64C265.528 536.552 265.76 537.664 265.76 538.976C265.76 540.288 265.52 541.416 265.04 542.36C264.576 543.288 263.936 544 263.12 544.496C262.32 544.992 261.424 545.24 260.432 545.24C259.408 545.24 258.536 544.976 257.816 544.448C257.096 543.904 256.584 543.216 256.28 542.384L256.568 541.976V550.04H254ZM259.88 543.152C260.92 543.152 261.728 542.784 262.304 542.048C262.896 541.312 263.192 540.296 263.192 539C263.192 537.704 262.904 536.688 262.328 535.952C261.752 535.2 260.952 534.824 259.928 534.824C259.256 534.824 258.664 535 258.152 535.352C257.656 535.688 257.264 536.168 256.976 536.792C256.704 537.4 256.568 538.136 256.568 539C256.568 539.848 256.704 540.584 256.976 541.208C257.248 541.832 257.632 542.312 258.128 542.648C258.624 542.984 259.208 543.152 259.88 543.152ZM272.387 529.472V541.4C272.387 541.992 272.539 542.424 272.843 542.696C273.163 542.968 273.587 543.104 274.115 543.104C274.547 543.104 274.923 543.04 275.243 542.912C275.563 542.768 275.859 542.576 276.131 542.336L276.707 544.208C276.339 544.528 275.883 544.784 275.339 544.976C274.811 545.152 274.219 545.24 273.563 545.24C272.875 545.24 272.243 545.128 271.667 544.904C271.091 544.68 270.643 544.32 270.323 543.824C270.003 543.312 269.835 542.648 269.819 541.832V530.192L272.387 529.472ZM276.515 533V535.016H267.515V533H276.515ZM280.373 541.76C280.821 541.76 281.189 541.872 281.477 542.096C281.781 542.304 282.013 542.6 282.173 542.984C282.333 543.352 282.413 543.776 282.413 544.256C282.413 544.848 282.301 545.416 282.077 545.96C281.853 546.52 281.525 547.024 281.093 547.472C280.677 547.936 280.173 548.312 279.581 548.6L278.381 547.568C278.813 547.408 279.197 547.2 279.533 546.944C279.869 546.688 280.149 546.4 280.373 546.08C280.613 545.76 280.781 545.432 280.877 545.096L280.781 545.048C280.701 545.096 280.605 545.136 280.493 545.168C280.397 545.2 280.253 545.216 280.061 545.216C279.837 545.216 279.605 545.152 279.365 545.024C279.141 544.912 278.949 544.736 278.789 544.496C278.629 544.256 278.549 543.944 278.549 543.56C278.549 543.208 278.629 542.896 278.789 542.624C278.965 542.352 279.189 542.144 279.461 542C279.733 541.84 280.037 541.76 280.373 541.76ZM300.285 529.16C301.981 529.16 303.325 529.584 304.317 530.432C305.325 531.28 305.829 532.424 305.829 533.864C305.829 535.352 305.325 536.504 304.317 537.32C303.325 538.12 301.981 538.52 300.285 538.52L300.045 538.664H296.373V545H293.829V529.16H300.285ZM300.093 536.528C301.133 536.528 301.901 536.32 302.397 535.904C302.909 535.472 303.165 534.816 303.165 533.936C303.165 533.072 302.909 532.424 302.397 531.992C301.901 531.56 301.133 531.344 300.093 531.344H296.373V536.528H300.093ZM301.605 537.056L306.765 545H303.813L299.397 538.064L301.605 537.056ZM314.545 545.24C313.345 545.24 312.289 544.992 311.377 544.496C310.465 544 309.753 543.288 309.241 542.36C308.745 541.416 308.497 540.296 308.497 539C308.497 537.704 308.745 536.592 309.241 535.664C309.753 534.72 310.457 534 311.353 533.504C312.249 533.008 313.265 532.76 314.401 532.76C315.569 532.76 316.561 533 317.377 533.48C318.193 533.96 318.817 534.616 319.249 535.448C319.681 536.28 319.897 537.224 319.897 538.28C319.897 538.568 319.889 538.84 319.873 539.096C319.857 539.352 319.833 539.576 319.801 539.768H310.153V537.8H318.673L317.401 538.184C317.401 537.096 317.129 536.264 316.585 535.688C316.041 535.096 315.297 534.8 314.353 534.8C313.665 534.8 313.065 534.96 312.553 535.28C312.041 535.6 311.649 536.08 311.377 536.72C311.105 537.344 310.969 538.112 310.969 539.024C310.969 539.92 311.113 540.68 311.401 541.304C311.689 541.928 312.097 542.4 312.625 542.72C313.153 543.04 313.777 543.2 314.497 543.2C315.297 543.2 315.945 543.048 316.441 542.744C316.937 542.44 317.329 542.016 317.617 541.472L319.657 542.432C319.369 543.008 318.977 543.512 318.481 543.944C318.001 544.36 317.425 544.68 316.753 544.904C316.081 545.128 315.345 545.24 314.545 545.24ZM330.076 537.296C330.076 536.496 329.852 535.88 329.404 535.448C328.972 535 328.372 534.776 327.604 534.776C326.884 534.776 326.268 534.944 325.756 535.28C325.244 535.616 324.868 536.16 324.628 536.912L322.468 536C322.772 535.024 323.364 534.24 324.244 533.648C325.14 533.056 326.292 532.76 327.7 532.76C328.66 532.76 329.508 532.92 330.244 533.24C330.98 533.544 331.556 534.008 331.972 534.632C332.404 535.256 332.62 536.056 332.62 537.032V542.384C332.62 542.976 332.916 543.272 333.508 543.272C333.796 543.272 334.076 543.232 334.348 543.152L334.204 544.928C333.836 545.104 333.372 545.192 332.812 545.192C332.3 545.192 331.836 545.104 331.42 544.928C331.02 544.736 330.7 544.456 330.46 544.088C330.236 543.704 330.124 543.232 330.124 542.672V542.504L330.652 542.48C330.508 543.104 330.212 543.624 329.764 544.04C329.316 544.44 328.796 544.744 328.204 544.952C327.612 545.144 327.012 545.24 326.404 545.24C325.652 545.24 324.972 545.12 324.364 544.88C323.772 544.64 323.3 544.28 322.948 543.8C322.612 543.304 322.444 542.696 322.444 541.976C322.444 541.08 322.732 540.344 323.308 539.768C323.9 539.192 324.732 538.8 325.804 538.592L330.46 537.68L330.436 539.48L327.052 540.176C326.38 540.304 325.876 540.488 325.54 540.728C325.204 540.968 325.036 541.32 325.036 541.784C325.036 542.232 325.204 542.592 325.54 542.864C325.892 543.12 326.356 543.248 326.932 543.248C327.332 543.248 327.716 543.2 328.084 543.104C328.468 543.008 328.812 542.856 329.116 542.648C329.42 542.424 329.652 542.144 329.812 541.808C329.988 541.456 330.076 541.04 330.076 540.56V537.296ZM341.989 532.76C342.949 532.76 343.765 532.904 344.437 533.192C345.125 533.464 345.701 533.856 346.165 534.368C346.629 534.88 346.981 535.464 347.221 536.12L344.797 537.08C344.589 536.344 344.253 535.784 343.789 535.4C343.341 535 342.749 534.8 342.013 534.8C341.293 534.8 340.677 534.968 340.165 535.304C339.653 535.624 339.261 536.096 338.989 536.72C338.733 537.344 338.605 538.112 338.605 539.024C338.605 539.92 338.741 540.68 339.013 541.304C339.285 541.928 339.677 542.4 340.189 542.72C340.701 543.04 341.309 543.2 342.013 543.2C342.557 543.2 343.029 543.112 343.429 542.936C343.829 542.744 344.157 542.48 344.413 542.144C344.685 541.792 344.869 541.368 344.965 540.872L347.293 541.664C347.069 542.384 346.717 543.016 346.237 543.56C345.773 544.088 345.189 544.504 344.485 544.808C343.781 545.096 342.973 545.24 342.061 545.24C340.877 545.24 339.829 544.992 338.917 544.496C338.005 544 337.293 543.288 336.781 542.36C336.285 541.416 336.037 540.296 336.037 539C336.037 537.704 336.285 536.592 336.781 535.664C337.293 534.72 337.997 534 338.893 533.504C339.805 533.008 340.837 532.76 341.989 532.76ZM353.785 529.472V541.4C353.785 541.992 353.937 542.424 354.241 542.696C354.561 542.968 354.985 543.104 355.513 543.104C355.945 543.104 356.321 543.04 356.641 542.912C356.961 542.768 357.257 542.576 357.529 542.336L358.105 544.208C357.737 544.528 357.281 544.784 356.737 544.976C356.209 545.152 355.617 545.24 354.961 545.24C354.273 545.24 353.641 545.128 353.065 544.904C352.489 544.68 352.041 544.32 351.721 543.824C351.401 543.312 351.233 542.648 351.217 541.832V530.192L353.785 529.472ZM357.913 533V535.016H348.913V533H357.913ZM361.796 541.76C362.34 541.76 362.772 541.92 363.092 542.24C363.428 542.544 363.596 542.96 363.596 543.488C363.596 544.016 363.428 544.44 363.092 544.76C362.772 545.08 362.34 545.24 361.796 545.24C361.236 545.24 360.788 545.08 360.452 544.76C360.132 544.44 359.972 544.016 359.972 543.488C359.972 542.96 360.132 542.544 360.452 542.24C360.788 541.92 361.236 541.76 361.796 541.76ZM368.616 530.984C368.056 530.984 367.624 530.848 367.32 530.576C367.032 530.288 366.888 529.888 366.888 529.376C366.888 528.864 367.032 528.472 367.32 528.2C367.624 527.928 368.056 527.792 368.616 527.792C369.16 527.792 369.576 527.928 369.864 528.2C370.168 528.472 370.32 528.864 370.32 529.376C370.32 529.888 370.168 530.288 369.864 530.576C369.576 530.848 369.16 530.984 368.616 530.984ZM369.888 533V546.056C369.888 547.08 369.696 547.888 369.312 548.48C368.944 549.088 368.456 549.52 367.848 549.776C367.256 550.032 366.624 550.16 365.952 550.16C365.408 550.16 364.912 550.088 364.464 549.944C364.016 549.8 363.64 549.608 363.336 549.368L363.768 547.304C363.992 547.496 364.264 547.656 364.584 547.784C364.888 547.912 365.232 547.976 365.616 547.976C366.128 547.976 366.536 547.808 366.84 547.472C367.16 547.152 367.32 546.6 367.32 545.816V533H369.888ZM378.466 545.24C377.266 545.24 376.17 545.008 375.178 544.544C374.186 544.08 373.402 543.424 372.826 542.576L374.602 541.04C374.954 541.696 375.458 542.224 376.114 542.624C376.786 543.008 377.586 543.2 378.514 543.2C379.25 543.2 379.834 543.072 380.266 542.816C380.698 542.56 380.914 542.2 380.914 541.736C380.914 541.432 380.81 541.168 380.602 540.944C380.41 540.704 380.034 540.52 379.474 540.392L376.954 539.864C375.674 539.608 374.762 539.2 374.218 538.64C373.674 538.064 373.402 537.336 373.402 536.456C373.402 535.8 373.594 535.192 373.978 534.632C374.362 534.072 374.922 533.624 375.658 533.288C376.41 532.936 377.306 532.76 378.346 532.76C379.546 532.76 380.57 532.976 381.418 533.408C382.266 533.824 382.914 534.424 383.362 535.208L381.586 536.696C381.282 536.056 380.834 535.584 380.242 535.28C379.65 534.96 379.034 534.8 378.394 534.8C377.882 534.8 377.442 534.864 377.074 534.992C376.706 535.12 376.426 535.296 376.234 535.52C376.042 535.744 375.946 536.008 375.946 536.312C375.946 536.632 376.066 536.912 376.306 537.152C376.546 537.392 376.978 537.576 377.602 537.704L380.338 538.28C381.49 538.504 382.298 538.888 382.762 539.432C383.242 539.96 383.482 540.608 383.482 541.376C383.482 542.144 383.282 542.824 382.882 543.416C382.482 543.992 381.906 544.44 381.154 544.76C380.402 545.08 379.506 545.24 378.466 545.24Z" fill="black"/>
<path d="M176.752 628.92C178.176 628.92 179.408 629.192 180.448 629.736C181.488 630.264 182.368 631.048 183.088 632.088L181.36 633.744C180.752 632.816 180.064 632.152 179.296 631.752C178.544 631.336 177.648 631.128 176.608 631.128C175.84 631.128 175.208 631.232 174.712 631.44C174.216 631.648 173.848 631.928 173.608 632.28C173.384 632.616 173.272 633 173.272 633.432C173.272 633.928 173.44 634.36 173.776 634.728C174.128 635.096 174.776 635.384 175.72 635.592L178.936 636.312C180.472 636.648 181.56 637.16 182.2 637.848C182.84 638.536 183.16 639.408 183.16 640.464C183.16 641.44 182.896 642.288 182.368 643.008C181.84 643.728 181.104 644.28 180.16 644.664C179.232 645.048 178.136 645.24 176.872 645.24C175.752 645.24 174.744 645.096 173.848 644.808C172.952 644.52 172.168 644.128 171.496 643.632C170.824 643.136 170.272 642.568 169.84 641.928L171.616 640.152C171.952 640.712 172.376 641.216 172.888 641.664C173.4 642.096 173.992 642.432 174.664 642.672C175.352 642.912 176.112 643.032 176.944 643.032C177.68 643.032 178.312 642.944 178.84 642.768C179.384 642.592 179.792 642.336 180.064 642C180.352 641.648 180.496 641.232 180.496 640.752C180.496 640.288 180.336 639.88 180.016 639.528C179.712 639.176 179.136 638.904 178.288 638.712L174.808 637.92C173.848 637.712 173.056 637.416 172.432 637.032C171.808 636.648 171.344 636.184 171.04 635.64C170.736 635.08 170.584 634.456 170.584 633.768C170.584 632.872 170.824 632.064 171.304 631.344C171.8 630.608 172.512 630.024 173.44 629.592C174.368 629.144 175.472 628.92 176.752 628.92ZM186.297 650.04V633H188.577L188.769 636.36L188.433 635.952C188.625 635.328 188.921 634.776 189.321 634.296C189.721 633.816 190.217 633.44 190.809 633.168C191.417 632.896 192.081 632.76 192.801 632.76C193.777 632.76 194.665 633.008 195.465 633.504C196.265 634 196.897 634.712 197.361 635.64C197.825 636.552 198.057 637.664 198.057 638.976C198.057 640.288 197.817 641.416 197.337 642.36C196.873 643.288 196.233 644 195.417 644.496C194.617 644.992 193.721 645.24 192.729 645.24C191.705 645.24 190.833 644.976 190.113 644.448C189.393 643.904 188.881 643.216 188.577 642.384L188.865 641.976V650.04H186.297ZM192.177 643.152C193.217 643.152 194.025 642.784 194.601 642.048C195.193 641.312 195.489 640.296 195.489 639C195.489 637.704 195.201 636.688 194.625 635.952C194.049 635.2 193.249 634.824 192.225 634.824C191.553 634.824 190.961 635 190.449 635.352C189.953 635.688 189.561 636.168 189.273 636.792C189.001 637.4 188.865 638.136 188.865 639C188.865 639.848 189.001 640.584 189.273 641.208C189.545 641.832 189.929 642.312 190.425 642.648C190.921 642.984 191.505 643.152 192.177 643.152ZM201.344 645V633H203.528L203.768 635.16C204.088 634.376 204.56 633.784 205.184 633.384C205.824 632.968 206.608 632.76 207.536 632.76C207.776 632.76 208.016 632.784 208.256 632.832C208.496 632.864 208.696 632.92 208.856 633L208.496 635.256C208.32 635.192 208.12 635.144 207.896 635.112C207.688 635.064 207.4 635.04 207.032 635.04C206.536 635.04 206.048 635.176 205.568 635.448C205.088 635.704 204.688 636.096 204.368 636.624C204.064 637.152 203.912 637.824 203.912 638.64V645H201.344ZM212.577 630.984C212.017 630.984 211.585 630.848 211.281 630.576C210.993 630.288 210.849 629.888 210.849 629.376C210.849 628.864 210.993 628.472 211.281 628.2C211.585 627.928 212.017 627.792 212.577 627.792C213.121 627.792 213.537 627.928 213.825 628.2C214.129 628.472 214.281 628.864 214.281 629.376C214.281 629.888 214.129 630.288 213.825 630.576C213.537 630.848 213.121 630.984 212.577 630.984ZM213.849 633V645H211.281V633H213.849ZM217.867 645V633H220.147L220.315 636.12L219.979 635.784C220.203 635.096 220.523 634.528 220.939 634.08C221.371 633.616 221.875 633.28 222.451 633.072C223.043 632.864 223.667 632.76 224.323 632.76C225.171 632.76 225.931 632.928 226.603 633.264C227.291 633.584 227.835 634.072 228.235 634.728C228.635 635.384 228.835 636.216 228.835 637.224V645H226.267V638.016C226.267 636.832 226.019 636.016 225.523 635.568C225.043 635.104 224.435 634.872 223.699 634.872C223.171 634.872 222.659 635 222.163 635.256C221.667 635.496 221.251 635.888 220.915 636.432C220.595 636.976 220.435 637.704 220.435 638.616V645H217.867ZM243.286 630.48L243.694 632.496C243.646 632.496 243.598 632.496 243.55 632.496C243.502 632.48 243.454 632.472 243.406 632.472C242.638 632.472 242.054 632.64 241.654 632.976C241.254 633.296 241.054 633.768 241.054 634.392L239.806 633.816C239.806 633.176 239.942 632.608 240.214 632.112C240.486 631.6 240.87 631.2 241.366 630.912C241.878 630.624 242.454 630.48 243.094 630.48C243.126 630.48 243.158 630.48 243.19 630.48C243.222 630.48 243.254 630.48 243.286 630.48ZM239.494 643.128C240.71 643.128 241.654 643.4 242.326 643.944C242.998 644.472 243.334 645.208 243.334 646.152C243.334 646.984 243.07 647.696 242.542 648.288C242.014 648.896 241.294 649.36 240.382 649.68C239.486 650 238.454 650.16 237.286 650.16C235.318 650.16 233.862 649.856 232.918 649.248C231.974 648.64 231.502 647.88 231.502 646.968C231.502 646.328 231.726 645.768 232.174 645.288C232.638 644.808 233.414 644.536 234.502 644.472L234.358 644.856C233.686 644.712 233.142 644.456 232.726 644.088C232.326 643.704 232.126 643.168 232.126 642.48C232.126 641.792 232.39 641.208 232.918 640.728C233.446 640.248 234.19 639.968 235.15 639.888L236.494 640.536H236.206C235.47 640.6 234.95 640.768 234.646 641.04C234.342 641.312 234.19 641.616 234.19 641.952C234.19 642.352 234.334 642.648 234.622 642.84C234.926 643.032 235.35 643.128 235.894 643.128H239.494ZM237.286 648.24C238.166 648.24 238.886 648.152 239.446 647.976C240.022 647.816 240.446 647.6 240.718 647.328C241.006 647.072 241.15 646.784 241.15 646.464C241.15 646.096 240.998 645.8 240.694 645.576C240.406 645.352 239.878 645.24 239.11 645.24H235.246C234.798 645.24 234.422 645.352 234.118 645.576C233.814 645.816 233.662 646.136 233.662 646.536C233.662 647.064 233.982 647.48 234.622 647.784C235.262 648.088 236.15 648.24 237.286 648.24ZM237.19 632.76C238.246 632.76 239.158 632.928 239.926 633.264C240.71 633.6 241.31 634.072 241.726 634.68C242.158 635.288 242.374 636 242.374 636.816C242.374 637.632 242.158 638.344 241.726 638.952C241.31 639.56 240.71 640.032 239.926 640.368C239.158 640.704 238.246 640.872 237.19 640.872C235.526 640.872 234.246 640.504 233.35 639.768C232.47 639.016 232.03 638.032 232.03 636.816C232.03 636 232.246 635.288 232.678 634.68C233.11 634.072 233.71 633.6 234.478 633.264C235.262 632.928 236.166 632.76 237.19 632.76ZM237.19 634.56C236.454 634.56 235.838 634.768 235.342 635.184C234.862 635.584 234.622 636.128 234.622 636.816C234.622 637.504 234.862 638.056 235.342 638.472C235.838 638.888 236.454 639.096 237.19 639.096C237.942 639.096 238.558 638.888 239.038 638.472C239.534 638.056 239.782 637.504 239.782 636.816C239.782 636.128 239.534 635.584 239.038 635.184C238.558 634.768 237.942 634.56 237.19 634.56ZM259.924 645.24C259.22 645.24 258.572 645.104 257.98 644.832C257.404 644.56 256.916 644.184 256.516 643.704C256.116 643.208 255.82 642.656 255.628 642.048L255.94 641.64L255.748 645H253.492V627.6H256.06V636.024L255.772 635.616C256.076 634.784 256.596 634.104 257.332 633.576C258.068 633.032 258.956 632.76 259.996 632.76C260.956 632.76 261.836 633.008 262.636 633.504C263.452 634 264.092 634.712 264.556 635.64C265.02 636.568 265.252 637.696 265.252 639.024C265.252 640.32 265.012 641.432 264.532 642.36C264.068 643.288 263.428 644 262.612 644.496C261.812 644.992 260.916 645.24 259.924 645.24ZM259.372 643.176C260.412 643.176 261.22 642.808 261.796 642.072C262.388 641.32 262.684 640.296 262.684 639C262.684 637.704 262.396 636.688 261.82 635.952C261.244 635.216 260.436 634.848 259.396 634.848C258.724 634.848 258.14 635.024 257.644 635.376C257.148 635.712 256.756 636.192 256.468 636.816C256.196 637.44 256.06 638.184 256.06 639.048C256.06 639.896 256.196 640.632 256.468 641.256C256.74 641.864 257.124 642.336 257.62 642.672C258.132 643.008 258.716 643.176 259.372 643.176ZM273.747 632.76C274.915 632.76 275.947 633.008 276.843 633.504C277.739 634 278.435 634.72 278.931 635.664C279.443 636.592 279.699 637.704 279.699 639C279.699 640.296 279.443 641.416 278.931 642.36C278.435 643.288 277.739 644 276.843 644.496C275.947 644.992 274.915 645.24 273.747 645.24C272.579 645.24 271.547 644.992 270.651 644.496C269.755 644 269.051 643.288 268.539 642.36C268.027 641.416 267.771 640.296 267.771 639C267.771 637.704 268.027 636.592 268.539 635.664C269.051 634.72 269.755 634 270.651 633.504C271.547 633.008 272.579 632.76 273.747 632.76ZM273.747 634.776C273.027 634.776 272.411 634.944 271.899 635.28C271.403 635.6 271.019 636.072 270.747 636.696C270.475 637.32 270.339 638.088 270.339 639C270.339 639.896 270.475 640.664 270.747 641.304C271.019 641.928 271.403 642.408 271.899 642.744C272.411 643.064 273.027 643.224 273.747 643.224C274.467 643.224 275.075 643.064 275.571 642.744C276.067 642.408 276.451 641.928 276.723 641.304C276.995 640.664 277.131 639.896 277.131 639C277.131 638.088 276.995 637.32 276.723 636.696C276.451 636.072 276.067 635.6 275.571 635.28C275.075 634.944 274.467 634.776 273.747 634.776ZM288.138 632.76C289.306 632.76 290.338 633.008 291.234 633.504C292.13 634 292.826 634.72 293.322 635.664C293.834 636.592 294.09 637.704 294.09 639C294.09 640.296 293.834 641.416 293.322 642.36C292.826 643.288 292.13 644 291.234 644.496C290.338 644.992 289.306 645.24 288.138 645.24C286.97 645.24 285.938 644.992 285.042 644.496C284.146 644 283.442 643.288 282.93 642.36C282.418 641.416 282.162 640.296 282.162 639C282.162 637.704 282.418 636.592 282.93 635.664C283.442 634.72 284.146 634 285.042 633.504C285.938 633.008 286.97 632.76 288.138 632.76ZM288.138 634.776C287.418 634.776 286.802 634.944 286.29 635.28C285.794 635.6 285.41 636.072 285.138 636.696C284.866 637.32 284.73 638.088 284.73 639C284.73 639.896 284.866 640.664 285.138 641.304C285.41 641.928 285.794 642.408 286.29 642.744C286.802 643.064 287.418 643.224 288.138 643.224C288.858 643.224 289.466 643.064 289.962 642.744C290.458 642.408 290.842 641.928 291.114 641.304C291.386 640.664 291.522 639.896 291.522 639C291.522 638.088 291.386 637.32 291.114 636.696C290.842 636.072 290.458 635.6 289.962 635.28C289.466 634.944 288.858 634.776 288.138 634.776ZM300.66 629.472V641.4C300.66 641.992 300.812 642.424 301.116 642.696C301.436 642.968 301.86 643.104 302.388 643.104C302.82 643.104 303.196 643.04 303.516 642.912C303.836 642.768 304.132 642.576 304.404 642.336L304.98 644.208C304.612 644.528 304.156 644.784 303.612 644.976C303.084 645.152 302.492 645.24 301.836 645.24C301.148 645.24 300.516 645.128 299.94 644.904C299.364 644.68 298.916 644.32 298.596 643.824C298.276 643.312 298.108 642.648 298.092 641.832V630.192L300.66 629.472ZM304.788 633V635.016H295.788V633H304.788Z" fill="black"/>
<path d="M210.68 699V697.128C212.2 696.04 213.472 695.08 214.496 694.248C215.536 693.416 216.368 692.648 216.992 691.944C217.616 691.24 218.064 690.576 218.336 689.952C218.624 689.312 218.768 688.664 218.768 688.008C218.768 687.16 218.504 686.472 217.976 685.944C217.448 685.416 216.712 685.152 215.768 685.152C214.776 685.152 213.984 685.488 213.392 686.16C212.816 686.816 212.488 687.72 212.408 688.872L210.176 687.84C210.288 686.832 210.584 685.96 211.064 685.224C211.544 684.488 212.192 683.92 213.008 683.52C213.84 683.12 214.8 682.92 215.888 682.92C216.784 682.92 217.568 683.048 218.24 683.304C218.928 683.56 219.504 683.92 219.968 684.384C220.432 684.832 220.784 685.36 221.024 685.968C221.28 686.576 221.408 687.224 221.408 687.912C221.408 688.92 221.16 689.896 220.664 690.84C220.168 691.768 219.384 692.72 218.312 693.696C217.24 694.672 215.832 695.72 214.088 696.84V696.888C214.28 696.856 214.544 696.84 214.88 696.84C215.216 696.824 215.552 696.816 215.888 696.816C216.224 696.8 216.496 696.792 216.704 696.792H221.696V699H210.68ZM230.622 699.24C228.718 699.24 227.222 698.552 226.134 697.176C225.062 695.784 224.526 693.752 224.526 691.08C224.526 688.408 225.062 686.384 226.134 685.008C227.222 683.616 228.718 682.92 230.622 682.92C232.542 682.92 234.038 683.616 235.11 685.008C236.198 686.384 236.742 688.408 236.742 691.08C236.742 693.752 236.198 695.784 235.11 697.176C234.038 698.552 232.542 699.24 230.622 699.24ZM230.622 697.056C231.39 697.056 232.03 696.84 232.542 696.408C233.07 695.96 233.462 695.296 233.718 694.416C233.99 693.52 234.126 692.408 234.126 691.08C234.126 689.752 233.99 688.648 233.718 687.768C233.462 686.872 233.07 686.208 232.542 685.776C232.03 685.328 231.39 685.104 230.622 685.104C229.854 685.104 229.206 685.328 228.678 685.776C228.166 686.208 227.782 686.872 227.526 687.768C227.27 688.648 227.142 689.752 227.142 691.08C227.142 692.408 227.27 693.52 227.526 694.416C227.782 695.296 228.166 695.96 228.678 696.408C229.206 696.84 229.854 697.056 230.622 697.056ZM239.836 699V697.128C241.356 696.04 242.628 695.08 243.652 694.248C244.692 693.416 245.524 692.648 246.148 691.944C246.772 691.24 247.22 690.576 247.492 689.952C247.78 689.312 247.924 688.664 247.924 688.008C247.924 687.16 247.66 686.472 247.132 685.944C246.604 685.416 245.868 685.152 244.924 685.152C243.932 685.152 243.14 685.488 242.548 686.16C241.972 686.816 241.644 687.72 241.564 688.872L239.332 687.84C239.444 686.832 239.74 685.96 240.22 685.224C240.7 684.488 241.348 683.92 242.164 683.52C242.996 683.12 243.956 682.92 245.044 682.92C245.94 682.92 246.724 683.048 247.396 683.304C248.084 683.56 248.66 683.92 249.124 684.384C249.588 684.832 249.94 685.36 250.18 685.968C250.436 686.576 250.564 687.224 250.564 687.912C250.564 688.92 250.316 689.896 249.82 690.84C249.324 691.768 248.54 692.72 247.468 693.696C246.396 694.672 244.988 695.72 243.244 696.84V696.888C243.436 696.856 243.7 696.84 244.036 696.84C244.372 696.824 244.708 696.816 245.044 696.816C245.38 696.8 245.652 696.792 245.86 696.792H250.852V699H239.836ZM259.274 699.24C257.786 699.24 256.49 698.912 255.386 698.256C254.298 697.584 253.554 696.648 253.154 695.448L255.65 694.272C255.794 694.848 256.018 695.344 256.322 695.76C256.626 696.176 257.026 696.496 257.522 696.72C258.018 696.928 258.634 697.032 259.37 697.032C259.994 697.032 260.522 696.92 260.954 696.696C261.386 696.472 261.714 696.16 261.938 695.76C262.178 695.36 262.298 694.904 262.298 694.392C262.298 693.864 262.194 693.424 261.986 693.072C261.794 692.72 261.482 692.464 261.05 692.304C260.634 692.144 260.098 692.064 259.442 692.064C259.25 692.064 259.05 692.072 258.842 692.088C258.65 692.088 258.442 692.104 258.218 692.136V689.976C258.362 689.992 258.498 690.008 258.626 690.024C258.77 690.024 258.906 690.024 259.034 690.024C260.074 690.024 260.818 689.816 261.266 689.4C261.714 688.984 261.938 688.336 261.938 687.456C261.938 686.704 261.706 686.128 261.242 685.728C260.794 685.328 260.146 685.128 259.298 685.128C258.418 685.128 257.73 685.336 257.234 685.752C256.754 686.152 256.386 686.736 256.13 687.504L253.778 686.52C254.002 685.784 254.378 685.144 254.906 684.6C255.434 684.056 256.082 683.64 256.85 683.352C257.634 683.048 258.49 682.896 259.418 682.896C260.554 682.896 261.498 683.08 262.25 683.448C263.018 683.816 263.586 684.32 263.954 684.96C264.338 685.6 264.53 686.312 264.53 687.096C264.53 687.704 264.442 688.24 264.266 688.704C264.09 689.152 263.85 689.544 263.546 689.88C263.258 690.2 262.938 690.448 262.586 690.624C262.25 690.8 261.906 690.92 261.554 690.984V691.032C262.018 691.048 262.442 691.144 262.826 691.32C263.226 691.48 263.578 691.712 263.882 692.016C264.202 692.304 264.45 692.656 264.626 693.072C264.802 693.488 264.89 693.944 264.89 694.44C264.89 695.4 264.65 696.24 264.17 696.96C263.69 697.68 263.026 698.24 262.178 698.64C261.346 699.04 260.378 699.24 259.274 699.24Z" fill="black"/>
</svg>
