<svg width="346" height="105" viewBox="0 0 346 105" fill="none" xmlns="http://www.w3.org/2000/svg">
<path d="M25.3943 42.798C25.3943 42.798 36.5321 55.2723 57.694 57.4999C78.8558 59.7275 93.7805 42.798 93.7805 42.798C95.2772 76.0631 103.884 84.7579 133.208 82.2259C138.583 64.1817 144.19 58.3498 159.048 55.9406C176.435 48.1978 183.416 41.416 190.68 24.7547C203.231 47.0236 210.56 58.7036 229.439 63.5143C249.861 64.2826 281.632 59.6216 299.162 42.798C296.163 31.9424 335.015 17.8056 337.031 21.8589" stroke="black" stroke-width="0.891026" stroke-linecap="round" stroke-linejoin="round" stroke-dasharray="3.56 3.56"/>
<circle cx="22.4984" cy="40.5275" r="9.80128" fill="#252533" stroke="#FFC85B" stroke-width="1.33654"/>
<path d="M10.9953 26.9102V26.0762C11.6725 25.5914 12.2392 25.1637 12.6954 24.7931C13.1587 24.4224 13.5294 24.0803 13.8074 23.7666C14.0854 23.453 14.285 23.1572 14.4061 22.8792C14.5344 22.594 14.5986 22.3053 14.5986 22.0131C14.5986 21.6353 14.481 21.3288 14.2458 21.0935C14.0105 20.8583 13.6826 20.7407 13.2621 20.7407C12.8201 20.7407 12.4673 20.8904 12.2035 21.1898C11.9469 21.482 11.8008 21.8848 11.7651 22.398L10.7707 21.9382C10.8206 21.4892 10.9525 21.1007 11.1664 20.7728C11.3802 20.4449 11.6689 20.1918 12.0324 20.0136C12.4031 19.8354 12.8308 19.7463 13.3155 19.7463C13.7147 19.7463 14.064 19.8033 14.3634 19.9174C14.6699 20.0314 14.9265 20.1918 15.1332 20.3985C15.3399 20.5981 15.4968 20.8334 15.6037 21.1042C15.7177 21.3751 15.7748 21.6638 15.7748 21.9703C15.7748 22.4194 15.6643 22.8542 15.4433 23.2748C15.2223 23.6882 14.873 24.1123 14.3954 24.5472C13.9179 24.982 13.2906 25.4489 12.5136 25.9478V25.9692C12.5991 25.955 12.7167 25.9478 12.8664 25.9478C13.0161 25.9407 13.1658 25.9372 13.3155 25.9372C13.4652 25.93 13.5864 25.9265 13.6791 25.9265H15.9031V26.9102H10.9953ZM19.8797 27.0171C19.0314 27.0171 18.3649 26.7106 17.8802 26.0975C17.4026 25.4774 17.1638 24.5721 17.1638 23.3817C17.1638 22.1913 17.4026 21.2896 17.8802 20.6765C18.3649 20.0564 19.0314 19.7463 19.8797 19.7463C20.7351 19.7463 21.4016 20.0564 21.8791 20.6765C22.3639 21.2896 22.6062 22.1913 22.6062 23.3817C22.6062 24.5721 22.3639 25.4774 21.8791 26.0975C21.4016 26.7106 20.7351 27.0171 19.8797 27.0171ZM19.8797 26.0441C20.2218 26.0441 20.507 25.9478 20.7351 25.7554C20.9703 25.5558 21.1449 25.26 21.259 24.8679C21.3802 24.4687 21.4408 23.9733 21.4408 23.3817C21.4408 22.7901 21.3802 22.2982 21.259 21.9062C21.1449 21.507 20.9703 21.2112 20.7351 21.0187C20.507 20.8191 20.2218 20.7193 19.8797 20.7193C19.5375 20.7193 19.2488 20.8191 19.0136 21.0187C18.7855 21.2112 18.6144 21.507 18.5004 21.9062C18.3863 22.2982 18.3293 22.7901 18.3293 23.3817C18.3293 23.9733 18.3863 24.4687 18.5004 24.8679C18.6144 25.26 18.7855 25.5558 19.0136 25.7554C19.2488 25.9478 19.5375 26.0441 19.8797 26.0441ZM25.4068 26.9102V22.0665C25.4068 21.924 25.4068 21.7778 25.4068 21.6282C25.414 21.4713 25.4211 21.3074 25.4282 21.1363C25.1859 21.3715 24.9079 21.5747 24.5942 21.7458C24.2877 21.9097 23.9705 22.0273 23.6426 22.0986L23.4288 21.1042C23.5785 21.0828 23.7531 21.033 23.9527 20.9545C24.1523 20.8761 24.359 20.7763 24.5728 20.6552C24.7867 20.534 24.9827 20.4057 25.1609 20.2702C25.3391 20.1277 25.4781 19.9887 25.5779 19.8532H26.5402V26.9102H25.4068ZM30.7032 19.7463C31.3091 19.7463 31.8188 19.896 32.2322 20.1954C32.6528 20.4948 32.9664 20.9153 33.1731 21.4571C33.387 21.9988 33.4939 22.6368 33.4939 23.371C33.4939 24.1836 33.3834 24.8608 33.1625 25.4025C32.9415 25.9372 32.6243 26.3399 32.2108 26.6108C31.7974 26.8816 31.2984 27.0171 30.7139 27.0171C30.1151 27.0171 29.6019 26.8852 29.1742 26.6215C28.7465 26.3577 28.4258 25.9621 28.2119 25.4346L29.2918 24.9321C29.3916 25.2671 29.5556 25.5344 29.7837 25.734C30.0189 25.9336 30.3361 26.0334 30.7353 26.0334C31.0632 26.0334 31.3376 25.9692 31.5586 25.8409C31.7796 25.7126 31.9542 25.5273 32.0825 25.2849C32.218 25.0426 32.3142 24.7503 32.3712 24.4082C32.4282 24.066 32.4568 23.6811 32.4568 23.2534C32.4568 23.232 32.4568 23.2142 32.4568 23.1999C32.4568 23.1785 32.4568 23.1572 32.4568 23.1358H32.414C32.3356 23.4209 32.193 23.6526 31.9863 23.8308C31.7867 24.009 31.5586 24.1408 31.302 24.2264C31.0454 24.3048 30.7888 24.344 30.5321 24.344C30.0759 24.344 29.6696 24.2549 29.3132 24.0767C28.9639 23.8914 28.6895 23.6347 28.4899 23.3068C28.2903 22.979 28.1905 22.5905 28.1905 22.1414C28.1905 21.6495 28.2903 21.2254 28.4899 20.869C28.6966 20.5126 28.9853 20.2382 29.356 20.0457C29.7338 19.8461 30.1829 19.7463 30.7032 19.7463ZM30.7139 20.7514C30.2648 20.7514 29.9191 20.8726 29.6768 21.1149C29.4415 21.3573 29.3239 21.6959 29.3239 22.1307C29.3239 22.5156 29.4487 22.8186 29.6981 23.0395C29.9548 23.2534 30.2933 23.3603 30.7139 23.3603C30.9848 23.3603 31.2236 23.3068 31.4303 23.1999C31.637 23.0859 31.7974 22.9326 31.9115 22.7402C32.0326 22.5477 32.0932 22.3232 32.0932 22.0665C32.0932 21.7957 32.0326 21.564 31.9115 21.3715C31.7974 21.172 31.637 21.0187 31.4303 20.9118C31.2236 20.8048 30.9848 20.7514 30.7139 20.7514Z" fill="black"/>
<circle cx="94.0032" cy="43.8692" r="4.00962" fill="white" stroke="#252533" stroke-width="0.891026"/>
<path d="M62.5215 29.654V36.7109H61.3667V29.654H62.5215ZM57.881 29.654V36.7109H56.7369V29.654H57.881ZM61.9441 32.6479V33.6316H57.3143V32.6479H61.9441ZM69.8599 29.654V30.6377H67.4434V36.7109H66.2994V30.6377H63.8829V29.654H69.8599ZM78.4473 29.654V36.7109H77.3888V32.6265L77.4743 30.6805H77.4636L75.3145 36.7109H74.3629L72.2137 30.6805H72.203L72.2886 32.6265V36.7109H71.23V29.654H72.9301L74.3522 33.7385L74.844 35.4172H74.8654L75.3679 33.7385L76.7793 29.654H78.4473ZM81.6881 35.7272H85.5801V36.7109H80.544V29.654H81.6881V35.7272ZM87.3824 35.2675C87.582 35.2675 87.746 35.3174 87.8743 35.4172C88.0097 35.5098 88.1131 35.6417 88.1844 35.8128C88.2556 35.9767 88.2913 36.1656 88.2913 36.3795C88.2913 36.6432 88.2414 36.8963 88.1416 37.1386C88.0418 37.3881 87.8957 37.6127 87.7032 37.8122C87.5179 38.019 87.2933 38.1865 87.0296 38.3148L86.495 37.855C86.6874 37.7837 86.8585 37.6911 87.0082 37.577C87.1579 37.463 87.2826 37.3347 87.3824 37.1921C87.4894 37.0495 87.5642 36.9034 87.607 36.7537L87.5642 36.7323C87.5286 36.7537 87.4858 36.7715 87.4359 36.7858C87.3931 36.8 87.329 36.8072 87.2434 36.8072C87.1436 36.8072 87.0403 36.7787 86.9334 36.7216C86.8336 36.6717 86.748 36.5933 86.6767 36.4864C86.6055 36.3795 86.5698 36.2405 86.5698 36.0694C86.5698 35.9126 86.6055 35.7736 86.6767 35.6524C86.7551 35.5312 86.8549 35.4386 86.9761 35.3744C87.0973 35.3031 87.2327 35.2675 87.3824 35.2675ZM99.2256 34.8398C99.083 35.2675 98.8692 35.631 98.584 35.9304C98.2989 36.2227 97.9639 36.4436 97.579 36.5933C97.194 36.743 96.7699 36.8179 96.3066 36.8179C95.6294 36.8179 95.0413 36.6717 94.5423 36.3795C94.0434 36.0872 93.6585 35.6702 93.3876 35.1285C93.1167 34.5867 92.9813 33.9381 92.9813 33.1825C92.9813 32.4269 93.1167 31.7782 93.3876 31.2365C93.6585 30.6947 94.0434 30.2777 94.5423 29.9855C95.0413 29.6932 95.6258 29.5471 96.2959 29.5471C96.7592 29.5471 97.1762 29.6112 97.5469 29.7396C97.9247 29.8679 98.2455 30.0603 98.5092 30.3169C98.7729 30.5736 98.9761 30.8943 99.1187 31.2792L98.0387 31.7604C97.8962 31.3398 97.6895 31.0333 97.4186 30.8409C97.1477 30.6413 96.7949 30.5415 96.36 30.5415C95.9252 30.5415 95.5439 30.6448 95.216 30.8516C94.8881 31.0583 94.6315 31.3577 94.4461 31.7497C94.2679 32.1418 94.1788 32.6193 94.1788 33.1825C94.1788 33.7385 94.2643 34.2161 94.4354 34.6152C94.6065 35.0073 94.8524 35.3067 95.1732 35.5134C95.494 35.7201 95.8789 35.8235 96.328 35.8235C96.7628 35.8235 97.137 35.713 97.4507 35.492C97.7714 35.2639 97.9995 34.9253 98.135 34.4762L99.2256 34.8398ZM103.092 29.5471C103.726 29.5471 104.275 29.6683 104.738 29.9106C105.202 30.1459 105.594 30.4951 105.915 30.9585L105.145 31.6962C104.874 31.2828 104.567 30.987 104.225 30.8088C103.89 30.6234 103.491 30.5308 103.028 30.5308C102.686 30.5308 102.404 30.5771 102.183 30.6698C101.962 30.7624 101.798 30.8872 101.691 31.044C101.591 31.1937 101.541 31.3648 101.541 31.5572C101.541 31.7782 101.616 31.9707 101.766 32.1346C101.923 32.2986 102.212 32.4269 102.632 32.5196L104.065 32.8403C104.749 32.99 105.234 33.2181 105.519 33.5246C105.804 33.8311 105.947 34.2196 105.947 34.6901C105.947 35.1249 105.829 35.5027 105.594 35.8235C105.359 36.1442 105.031 36.3902 104.61 36.5612C104.197 36.7323 103.708 36.8179 103.145 36.8179C102.646 36.8179 102.197 36.7537 101.798 36.6254C101.399 36.4971 101.05 36.3225 100.75 36.1015C100.451 35.8805 100.205 35.6275 100.012 35.3423L100.804 34.5511C100.953 34.8006 101.142 35.0251 101.37 35.2247C101.598 35.4172 101.862 35.5669 102.162 35.6738C102.468 35.7807 102.807 35.8342 103.177 35.8342C103.505 35.8342 103.787 35.795 104.022 35.7166C104.264 35.6381 104.446 35.5241 104.567 35.3744C104.696 35.2176 104.76 35.0322 104.76 34.8184C104.76 34.6117 104.689 34.4299 104.546 34.2731C104.411 34.1163 104.154 33.9951 103.776 33.9096L102.226 33.5567C101.798 33.464 101.445 33.3322 101.167 33.1611C100.889 32.99 100.683 32.7833 100.547 32.5409C100.412 32.2914 100.344 32.0134 100.344 31.7069C100.344 31.3078 100.451 30.9478 100.665 30.627C100.886 30.2991 101.203 30.0389 101.616 29.8465C102.03 29.6469 102.522 29.5471 103.092 29.5471ZM109.952 29.5471C110.586 29.5471 111.135 29.6683 111.599 29.9106C112.062 30.1459 112.454 30.4951 112.775 30.9585L112.005 31.6962C111.734 31.2828 111.428 30.987 111.085 30.8088C110.75 30.6234 110.351 30.5308 109.888 30.5308C109.546 30.5308 109.264 30.5771 109.043 30.6698C108.822 30.7624 108.658 30.8872 108.551 31.044C108.452 31.1937 108.402 31.3648 108.402 31.5572C108.402 31.7782 108.477 31.9707 108.626 32.1346C108.783 32.2986 109.072 32.4269 109.492 32.5196L110.925 32.8403C111.609 32.99 112.094 33.2181 112.379 33.5246C112.664 33.8311 112.807 34.2196 112.807 34.6901C112.807 35.1249 112.689 35.5027 112.454 35.8235C112.219 36.1442 111.891 36.3902 111.47 36.5612C111.057 36.7323 110.569 36.8179 110.006 36.8179C109.507 36.8179 109.057 36.7537 108.658 36.6254C108.259 36.4971 107.91 36.3225 107.61 36.1015C107.311 35.8805 107.065 35.6275 106.873 35.3423L107.664 34.5511C107.814 34.8006 108.002 35.0251 108.231 35.2247C108.459 35.4172 108.722 35.5669 109.022 35.6738C109.328 35.7807 109.667 35.8342 110.038 35.8342C110.365 35.8342 110.647 35.795 110.882 35.7166C111.125 35.6381 111.306 35.5241 111.428 35.3744C111.556 35.2176 111.62 35.0322 111.62 34.8184C111.62 34.6117 111.549 34.4299 111.406 34.2731C111.271 34.1163 111.014 33.9951 110.636 33.9096L109.086 33.5567C108.658 33.464 108.305 33.3322 108.027 33.1611C107.749 32.99 107.543 32.7833 107.407 32.5409C107.272 32.2914 107.204 32.0134 107.204 31.7069C107.204 31.3078 107.311 30.9478 107.525 30.627C107.746 30.2991 108.063 30.0389 108.477 29.8465C108.89 29.6469 109.382 29.5471 109.952 29.5471ZM114.813 35.2675C115.012 35.2675 115.176 35.3174 115.305 35.4172C115.44 35.5098 115.543 35.6417 115.615 35.8128C115.686 35.9767 115.722 36.1656 115.722 36.3795C115.722 36.6432 115.672 36.8963 115.572 37.1386C115.472 37.3881 115.326 37.6127 115.134 37.8122C114.948 38.019 114.724 38.1865 114.46 38.3148L113.925 37.855C114.118 37.7837 114.289 37.6911 114.439 37.577C114.588 37.463 114.713 37.3347 114.813 37.1921C114.92 37.0495 114.995 36.9034 115.037 36.7537L114.995 36.7323C114.959 36.7537 114.916 36.7715 114.866 36.7858C114.823 36.8 114.759 36.8072 114.674 36.8072C114.574 36.8072 114.471 36.7787 114.364 36.7216C114.264 36.6717 114.178 36.5933 114.107 36.4864C114.036 36.3795 114 36.2405 114 36.0694C114 35.9126 114.036 35.7736 114.107 35.6524C114.186 35.5312 114.285 35.4386 114.406 35.3744C114.528 35.3031 114.663 35.2675 114.813 35.2675ZM124.801 29.654V34.2089C124.801 35.0287 124.573 35.6702 124.117 36.1336C123.668 36.5898 123.04 36.8179 122.235 36.8179C121.657 36.8179 121.187 36.7109 120.823 36.4971C120.46 36.2832 120.207 35.9839 120.064 35.5989C119.922 35.2069 119.897 34.7542 119.989 34.241L121.091 34.0379C121.005 34.6509 121.052 35.1035 121.23 35.3958C121.408 35.6809 121.743 35.8235 122.235 35.8235C122.769 35.8235 123.137 35.6702 123.336 35.3637C123.543 35.0501 123.646 34.5939 123.646 33.9951V29.654H124.801ZM129.207 29.5471C129.841 29.5471 130.39 29.6683 130.853 29.9106C131.317 30.1459 131.709 30.4951 132.029 30.9585L131.259 31.6962C130.989 31.2828 130.682 30.987 130.34 30.8088C130.005 30.6234 129.606 30.5308 129.142 30.5308C128.8 30.5308 128.519 30.5771 128.298 30.6698C128.077 30.7624 127.913 30.8872 127.806 31.044C127.706 31.1937 127.656 31.3648 127.656 31.5572C127.656 31.7782 127.731 31.9707 127.881 32.1346C128.038 32.2986 128.326 32.4269 128.747 32.5196L130.18 32.8403C130.864 32.99 131.349 33.2181 131.634 33.5246C131.919 33.8311 132.061 34.2196 132.061 34.6901C132.061 35.1249 131.944 35.5027 131.709 35.8235C131.473 36.1442 131.145 36.3902 130.725 36.5612C130.311 36.7323 129.823 36.8179 129.26 36.8179C128.761 36.8179 128.312 36.7537 127.913 36.6254C127.514 36.4971 127.164 36.3225 126.865 36.1015C126.566 35.8805 126.32 35.6275 126.127 35.3423L126.918 34.5511C127.068 34.8006 127.257 35.0251 127.485 35.2247C127.713 35.4172 127.977 35.5669 128.276 35.6738C128.583 35.7807 128.921 35.8342 129.292 35.8342C129.62 35.8342 129.902 35.795 130.137 35.7166C130.379 35.6381 130.561 35.5241 130.682 35.3744C130.81 35.2176 130.875 35.0322 130.875 34.8184C130.875 34.6117 130.803 34.4299 130.661 34.2731C130.525 34.1163 130.269 33.9951 129.891 33.9096L128.34 33.5567C127.913 33.464 127.56 33.3322 127.282 33.1611C127.004 32.99 126.797 32.7833 126.662 32.5409C126.526 32.2914 126.459 32.0134 126.459 31.7069C126.459 31.3078 126.566 30.9478 126.779 30.627C127 30.2991 127.318 30.0389 127.731 29.8465C128.144 29.6469 128.636 29.5471 129.207 29.5471Z" fill="black"/>
<circle cx="132.763" cy="82.629" r="4.00962" fill="white" stroke="#252533" stroke-width="0.891026"/>
<path d="M125.834 90.6892C126.34 90.6892 126.775 90.7783 127.139 90.9565C127.509 91.1347 127.798 91.3877 128.005 91.7156C128.212 92.0435 128.315 92.4391 128.315 92.9025C128.315 93.3587 128.212 93.7543 128.005 94.0893C127.798 94.4172 127.509 94.6703 127.139 94.8485C126.775 95.0267 126.34 95.1158 125.834 95.1158H124.262V97.7461H123.118V90.6892H125.834ZM125.652 94.1321C126.159 94.1321 126.529 94.0287 126.764 93.822C127.007 93.6082 127.128 93.3017 127.128 92.9025C127.128 92.4962 127.007 92.1897 126.764 91.9829C126.529 91.7691 126.159 91.6622 125.652 91.6622H124.262V94.1321H125.652ZM135.607 90.6892V97.7461H134.452V90.6892H135.607ZM130.966 90.6892V97.7461H129.822V90.6892H130.966ZM135.029 93.683V94.6667H130.399V93.683H135.029ZM140.411 90.6892C140.917 90.6892 141.352 90.7783 141.715 90.9565C142.086 91.1347 142.375 91.3877 142.581 91.7156C142.788 92.0435 142.891 92.4391 142.891 92.9025C142.891 93.3587 142.788 93.7543 142.581 94.0893C142.375 94.4172 142.086 94.6703 141.715 94.8485C141.352 95.0267 140.917 95.1158 140.411 95.1158H138.839V97.7461H137.695V90.6892H140.411ZM140.229 94.1321C140.735 94.1321 141.106 94.0287 141.341 93.822C141.583 93.6082 141.705 93.3017 141.705 92.9025C141.705 92.4962 141.583 92.1897 141.341 91.9829C141.106 91.7691 140.735 91.6622 140.229 91.6622H138.839V94.1321H140.229Z" fill="black"/>
<circle cx="161.276" cy="54.1153" r="4.00962" fill="white" stroke="#252533" stroke-width="0.891026"/>
<path d="M152.494 63.5134L149.874 70.5703H148.538L145.918 63.5134H147.137L148.784 68.2073L149.211 69.608L149.639 68.218L151.286 63.5134H152.494ZM155.198 70.6772C154.849 70.6772 154.524 70.6131 154.225 70.4848C153.933 70.3565 153.697 70.1497 153.519 69.8646C153.341 69.5795 153.252 69.2088 153.252 68.7526V65.2242H154.396V68.4639C154.396 68.9486 154.499 69.2837 154.706 69.469C154.913 69.6472 155.201 69.7363 155.572 69.7363C155.75 69.7363 155.921 69.7078 156.085 69.6508C156.256 69.5866 156.41 69.4904 156.545 69.3621C156.681 69.2266 156.784 69.0556 156.855 68.8489C156.934 68.6421 156.973 68.3998 156.973 68.1218V65.2242H158.117V70.5703H157.112L157.058 69.7042C156.873 70.0393 156.624 70.2852 156.31 70.442C155.996 70.5988 155.626 70.6772 155.198 70.6772ZM162.257 70.6772C161.722 70.6772 161.251 70.5667 160.845 70.3458C160.439 70.1248 160.122 69.8076 159.894 69.3942C159.673 68.9736 159.562 68.4746 159.562 67.8972C159.562 67.3199 159.673 66.8244 159.894 66.411C160.122 65.9904 160.435 65.6697 160.834 65.4487C161.234 65.2277 161.686 65.1172 162.192 65.1172C162.713 65.1172 163.155 65.2242 163.518 65.438C163.882 65.6518 164.16 65.9441 164.352 66.3148C164.545 66.6854 164.641 67.106 164.641 67.5765C164.641 67.7048 164.637 67.826 164.63 67.94C164.623 68.0541 164.612 68.1539 164.598 68.2394H160.3V67.3626H164.096L163.529 67.5337C163.529 67.049 163.408 66.6783 163.165 66.4217C162.923 66.158 162.592 66.0261 162.171 66.0261C161.865 66.0261 161.597 66.0974 161.369 66.2399C161.141 66.3825 160.966 66.5963 160.845 66.8815C160.724 67.1595 160.663 67.5016 160.663 67.9079C160.663 68.3071 160.728 68.6457 160.856 68.9237C160.984 69.2017 161.166 69.412 161.401 69.5545C161.636 69.6971 161.914 69.7684 162.235 69.7684C162.592 69.7684 162.88 69.7007 163.101 69.5652C163.322 69.4298 163.497 69.2409 163.625 68.9985L164.534 69.4262C164.406 69.6829 164.231 69.9074 164.01 70.0999C163.796 70.2852 163.54 70.4277 163.24 70.5275C162.941 70.6273 162.613 70.6772 162.257 70.6772ZM166.663 69.1269C166.905 69.1269 167.098 69.1981 167.241 69.3407C167.39 69.4761 167.465 69.6615 167.465 69.8967C167.465 70.1319 167.39 70.3208 167.241 70.4634C167.098 70.606 166.905 70.6772 166.663 70.6772C166.414 70.6772 166.214 70.606 166.064 70.4634C165.922 70.3208 165.851 70.1319 165.851 69.8967C165.851 69.6615 165.922 69.4761 166.064 69.3407C166.214 69.1981 166.414 69.1269 166.663 69.1269ZM169.702 64.326C169.452 64.326 169.26 64.2654 169.124 64.1442C168.996 64.0159 168.932 63.8377 168.932 63.6096C168.932 63.3815 168.996 63.2069 169.124 63.0857C169.26 62.9645 169.452 62.9039 169.702 62.9039C169.944 62.9039 170.129 62.9645 170.258 63.0857C170.393 63.2069 170.461 63.3815 170.461 63.6096C170.461 63.8377 170.393 64.0159 170.258 64.1442C170.129 64.2654 169.944 64.326 169.702 64.326ZM170.268 65.2242V71.0408C170.268 71.497 170.183 71.857 170.012 72.1207C169.848 72.3916 169.63 72.584 169.36 72.6981C169.096 72.8121 168.814 72.8692 168.515 72.8692C168.272 72.8692 168.051 72.8371 167.852 72.7729C167.652 72.7088 167.485 72.6232 167.349 72.5163L167.542 71.5968C167.642 71.6823 167.763 71.7536 167.905 71.8106C168.041 71.8676 168.194 71.8962 168.365 71.8962C168.593 71.8962 168.775 71.8213 168.91 71.6716C169.053 71.5291 169.124 71.2831 169.124 70.9339V65.2242H170.268ZM174.09 70.6772C173.555 70.6772 173.067 70.5739 172.625 70.3672C172.183 70.1604 171.834 69.8682 171.577 69.4904L172.368 68.8061C172.525 69.0983 172.75 69.3336 173.042 69.5118C173.341 69.6829 173.698 69.7684 174.111 69.7684C174.439 69.7684 174.699 69.7114 174.892 69.5973C175.084 69.4833 175.181 69.3229 175.181 69.1162C175.181 68.9807 175.134 68.8631 175.042 68.7633C174.956 68.6564 174.789 68.5744 174.539 68.5174L173.416 68.2822C172.846 68.1681 172.44 67.9863 172.197 67.7369C171.955 67.4802 171.834 67.1559 171.834 66.7639C171.834 66.4716 171.919 66.2007 172.09 65.9512C172.262 65.7017 172.511 65.5022 172.839 65.3525C173.174 65.1956 173.573 65.1172 174.036 65.1172C174.571 65.1172 175.027 65.2135 175.405 65.4059C175.783 65.5913 176.072 65.8586 176.271 66.2079L175.48 66.8708C175.345 66.5856 175.145 66.3754 174.881 66.2399C174.617 66.0974 174.343 66.0261 174.058 66.0261C173.83 66.0261 173.634 66.0546 173.47 66.1116C173.306 66.1686 173.181 66.2471 173.096 66.3469C173.01 66.4466 172.967 66.5643 172.967 66.6997C172.967 66.8423 173.021 66.967 173.128 67.0739C173.235 67.1809 173.427 67.2628 173.705 67.3199L174.924 67.5765C175.437 67.6763 175.797 67.8473 176.004 68.0897C176.218 68.3249 176.325 68.6136 176.325 68.9558C176.325 69.2979 176.236 69.6009 176.057 69.8646C175.879 70.1212 175.623 70.3208 175.287 70.4634C174.952 70.606 174.553 70.6772 174.09 70.6772Z" fill="black"/>
<circle cx="191.125" cy="26.4942" r="4.00962" fill="white" stroke="#252533" stroke-width="0.891026"/>
<path d="M178.8 10.9431V18H177.442L174.716 13.552L174.032 12.301H174.021L174.064 13.4451V18H173.016V10.9431H174.363L177.079 15.3804L177.774 16.6528H177.785L177.742 15.498V10.9431H178.8ZM182.976 12.5469C183.496 12.5469 183.956 12.6574 184.355 12.8784C184.754 13.0994 185.064 13.4201 185.285 13.8407C185.513 14.2541 185.627 14.7495 185.627 15.3269C185.627 15.9043 185.513 16.4033 185.285 16.8238C185.064 17.2373 184.754 17.5545 184.355 17.7755C183.956 17.9964 183.496 18.1069 182.976 18.1069C182.455 18.1069 181.995 17.9964 181.596 17.7755C181.197 17.5545 180.883 17.2373 180.655 16.8238C180.427 16.4033 180.313 15.9043 180.313 15.3269C180.313 14.7495 180.427 14.2541 180.655 13.8407C180.883 13.4201 181.197 13.0994 181.596 12.8784C181.995 12.6574 182.455 12.5469 182.976 12.5469ZM182.976 13.4451C182.655 13.4451 182.38 13.5199 182.152 13.6696C181.931 13.8122 181.76 14.0225 181.639 14.3005C181.518 14.5785 181.457 14.9206 181.457 15.3269C181.457 15.7261 181.518 16.0683 181.639 16.3534C181.76 16.6314 181.931 16.8452 182.152 16.9949C182.38 17.1375 182.655 17.2088 182.976 17.2088C183.296 17.2088 183.567 17.1375 183.788 16.9949C184.009 16.8452 184.18 16.6314 184.301 16.3534C184.423 16.0683 184.483 15.7261 184.483 15.3269C184.483 14.9206 184.423 14.5785 184.301 14.3005C184.18 14.0225 184.009 13.8122 183.788 13.6696C183.567 13.5199 183.296 13.4451 182.976 13.4451ZM189.119 18.1069C188.677 18.1069 188.275 17.9964 187.911 17.7755C187.555 17.5545 187.273 17.2373 187.067 16.8238C186.86 16.4104 186.756 15.915 186.756 15.3376C186.756 14.7388 186.867 14.2327 187.088 13.8193C187.309 13.4059 187.605 13.0922 187.975 12.8784C188.346 12.6574 188.752 12.5469 189.194 12.5469C189.65 12.5469 190.035 12.6717 190.349 12.9212C190.663 13.1706 190.873 13.495 190.98 13.8942L190.852 14.0118V10.2481H191.996V18H190.98L190.894 16.5458L191.044 16.5565C190.994 16.8773 190.877 17.1553 190.691 17.3905C190.506 17.6186 190.274 17.7968 189.996 17.9252C189.725 18.0463 189.433 18.1069 189.119 18.1069ZM189.365 17.1874C189.672 17.1874 189.936 17.109 190.157 16.9522C190.378 16.7953 190.549 16.5744 190.67 16.2892C190.791 16.0041 190.852 15.6619 190.852 15.2628C190.852 14.8921 190.791 14.5749 190.67 14.3112C190.549 14.0403 190.378 13.8336 190.157 13.691C189.943 13.5484 189.693 13.4772 189.408 13.4772C188.931 13.4772 188.56 13.6411 188.296 13.969C188.032 14.2969 187.901 14.7495 187.901 15.3269C187.901 15.9043 188.029 16.3605 188.285 16.6955C188.542 17.0234 188.902 17.1874 189.365 17.1874ZM196.122 18.1069C195.588 18.1069 195.117 17.9964 194.711 17.7755C194.305 17.5545 193.988 17.2373 193.759 16.8238C193.538 16.4033 193.428 15.9043 193.428 15.3269C193.428 14.7495 193.538 14.2541 193.759 13.8407C193.988 13.4201 194.301 13.0994 194.7 12.8784C195.1 12.6574 195.552 12.5469 196.058 12.5469C196.579 12.5469 197.021 12.6538 197.384 12.8677C197.748 13.0815 198.026 13.3738 198.218 13.7445C198.411 14.1151 198.507 14.5357 198.507 15.0062C198.507 15.1345 198.503 15.2556 198.496 15.3697C198.489 15.4837 198.478 15.5835 198.464 15.6691H194.166V14.7923H197.961L197.395 14.9634C197.395 14.4787 197.274 14.108 197.031 13.8514C196.789 13.5876 196.457 13.4558 196.037 13.4558C195.73 13.4558 195.463 13.5271 195.235 13.6696C195.007 13.8122 194.832 14.026 194.711 14.3112C194.59 14.5892 194.529 14.9313 194.529 15.3376C194.529 15.7368 194.593 16.0754 194.722 16.3534C194.85 16.6314 195.032 16.8417 195.267 16.9842C195.502 17.1268 195.78 17.1981 196.101 17.1981C196.457 17.1981 196.746 17.1304 196.967 16.9949C197.188 16.8595 197.363 16.6706 197.491 16.4282L198.4 16.8559C198.272 17.1125 198.097 17.3371 197.876 17.5295C197.662 17.7149 197.405 17.8574 197.106 17.9572C196.807 18.057 196.479 18.1069 196.122 18.1069ZM200.529 16.5565C200.771 16.5565 200.964 16.6278 201.106 16.7704C201.256 16.9058 201.331 17.0912 201.331 17.3264C201.331 17.5616 201.256 17.7505 201.106 17.8931C200.964 18.0356 200.771 18.1069 200.529 18.1069C200.279 18.1069 200.08 18.0356 199.93 17.8931C199.788 17.7505 199.716 17.5616 199.716 17.3264C199.716 17.0912 199.788 16.9058 199.93 16.7704C200.08 16.6278 200.279 16.5565 200.529 16.5565ZM203.568 11.7557C203.318 11.7557 203.126 11.6951 202.99 11.5739C202.862 11.4456 202.798 11.2674 202.798 11.0393C202.798 10.8112 202.862 10.6366 202.99 10.5154C203.126 10.3942 203.318 10.3336 203.568 10.3336C203.81 10.3336 203.995 10.3942 204.124 10.5154C204.259 10.6366 204.327 10.8112 204.327 11.0393C204.327 11.2674 204.259 11.4456 204.124 11.5739C203.995 11.6951 203.81 11.7557 203.568 11.7557ZM204.134 12.6538V18.4705C204.134 18.9267 204.049 19.2866 203.878 19.5504C203.714 19.8213 203.496 20.0137 203.225 20.1278C202.962 20.2418 202.68 20.2988 202.381 20.2988C202.138 20.2988 201.917 20.2668 201.718 20.2026C201.518 20.1385 201.351 20.0529 201.215 19.946L201.408 19.0265C201.507 19.112 201.629 19.1833 201.771 19.2403C201.907 19.2973 202.06 19.3258 202.231 19.3258C202.459 19.3258 202.641 19.251 202.776 19.1013C202.919 18.9587 202.99 18.7128 202.99 18.3635V12.6538H204.134ZM207.956 18.1069C207.421 18.1069 206.933 18.0036 206.491 17.7968C206.049 17.5901 205.7 17.2979 205.443 16.9201L206.234 16.2358C206.391 16.528 206.616 16.7633 206.908 16.9415C207.207 17.1125 207.564 17.1981 207.977 17.1981C208.305 17.1981 208.565 17.1411 208.758 17.027C208.95 16.9129 209.046 16.7526 209.046 16.5458C209.046 16.4104 209 16.2928 208.907 16.193C208.822 16.0861 208.654 16.0041 208.405 15.9471L207.282 15.7118C206.712 15.5978 206.306 15.416 206.063 15.1665C205.821 14.9099 205.7 14.5856 205.7 14.1935C205.7 13.9013 205.785 13.6304 205.956 13.3809C206.127 13.1314 206.377 12.9318 206.705 12.7822C207.04 12.6253 207.439 12.5469 207.902 12.5469C208.437 12.5469 208.893 12.6432 209.271 12.8356C209.649 13.0209 209.937 13.2883 210.137 13.6375L209.346 14.3005C209.21 14.0153 209.011 13.8051 208.747 13.6696C208.483 13.5271 208.209 13.4558 207.924 13.4558C207.696 13.4558 207.5 13.4843 207.336 13.5413C207.172 13.5983 207.047 13.6767 206.961 13.7765C206.876 13.8763 206.833 13.9939 206.833 14.1294C206.833 14.2719 206.887 14.3967 206.993 14.5036C207.1 14.6105 207.293 14.6925 207.571 14.7495L208.79 15.0062C209.303 15.1059 209.663 15.277 209.87 15.5194C210.084 15.7546 210.19 16.0433 210.19 16.3855C210.19 16.7276 210.101 17.0306 209.923 17.2943C209.745 17.5509 209.488 17.7505 209.153 17.8931C208.818 18.0356 208.419 18.1069 207.956 18.1069Z" fill="black"/>
<circle cx="242.804" cy="63.0254" r="4.00962" fill="white" stroke="#252533" stroke-width="0.891026"/>
<path d="M197.423 72.4235V73.4072H195.006V79.4805H193.862V73.4072H191.446V72.4235H197.423ZM202.522 74.1343L200.181 80.1113C200.024 80.5248 199.853 80.8526 199.668 81.095C199.489 81.3374 199.283 81.512 199.047 81.6189C198.812 81.7259 198.538 81.7793 198.224 81.7793C197.967 81.7793 197.729 81.7437 197.508 81.6724C197.294 81.6082 197.105 81.5191 196.941 81.4051L197.219 80.5176C197.354 80.6317 197.497 80.7172 197.647 80.7742C197.804 80.8313 197.971 80.8598 198.149 80.8598C198.342 80.8598 198.513 80.8063 198.662 80.6994C198.819 80.5996 198.958 80.3964 199.079 80.0899L199.315 79.5125L198.748 78.1867L197.08 74.1343H198.363L199.55 77.4917L199.86 78.4968L200.213 77.3955L201.336 74.1343H202.522ZM203.498 81.7259V74.1343H204.514L204.6 75.6312L204.45 75.4495C204.535 75.1715 204.667 74.9255 204.846 74.7117C205.024 74.4979 205.245 74.3303 205.508 74.2092C205.779 74.088 206.075 74.0274 206.396 74.0274C206.831 74.0274 207.226 74.1379 207.583 74.3589C207.939 74.5798 208.221 74.897 208.427 75.3105C208.634 75.7168 208.738 76.2122 208.738 76.7967C208.738 77.3812 208.631 77.8838 208.417 78.3043C208.21 78.7178 207.925 79.035 207.561 79.2559C207.205 79.4769 206.806 79.5874 206.364 79.5874C205.908 79.5874 205.519 79.4698 205.198 79.2345C204.878 78.9922 204.65 78.6857 204.514 78.315L204.642 78.1332V81.7259H203.498ZM206.118 78.6572C206.581 78.6572 206.941 78.4932 207.198 78.1653C207.462 77.8374 207.593 77.3848 207.593 76.8074C207.593 76.23 207.465 75.7774 207.209 75.4495C206.952 75.1144 206.596 74.9469 206.139 74.9469C205.84 74.9469 205.576 75.0253 205.348 75.1822C205.127 75.3319 204.952 75.5457 204.824 75.8237C204.703 76.0946 204.642 76.4225 204.642 76.8074C204.642 77.1852 204.703 77.5131 204.824 77.7911C204.945 78.0691 205.116 78.2829 205.337 78.4326C205.558 78.5823 205.819 78.6572 206.118 78.6572ZM212.554 79.5874C212.02 79.5874 211.549 79.4769 211.143 79.2559C210.737 79.035 210.419 78.7178 210.191 78.3043C209.97 77.8838 209.86 77.3848 209.86 76.8074C209.86 76.23 209.97 75.7346 210.191 75.3212C210.419 74.9006 210.733 74.5798 211.132 74.3589C211.531 74.1379 211.984 74.0274 212.49 74.0274C213.01 74.0274 213.452 74.1343 213.816 74.3482C214.179 74.562 214.457 74.8543 214.65 75.2249C214.842 75.5956 214.939 76.0162 214.939 76.4866C214.939 76.6149 214.935 76.7361 214.928 76.8502C214.921 76.9642 214.91 77.064 214.896 77.1495H210.598V76.2728H214.393L213.827 76.4439C213.827 75.9591 213.705 75.5885 213.463 75.3319C213.221 75.0681 212.889 74.9362 212.469 74.9362C212.162 74.9362 211.895 75.0075 211.667 75.1501C211.439 75.2926 211.264 75.5065 211.143 75.7916C211.022 76.0696 210.961 76.4118 210.961 76.8181C210.961 77.2173 211.025 77.5559 211.154 77.8339C211.282 78.1119 211.464 78.3221 211.699 78.4647C211.934 78.6073 212.212 78.6785 212.533 78.6785C212.889 78.6785 213.178 78.6108 213.399 78.4754C213.62 78.34 213.795 78.1511 213.923 77.9087L214.832 78.3364C214.703 78.593 214.529 78.8175 214.308 79.01C214.094 79.1953 213.837 79.3379 213.538 79.4377C213.239 79.5375 212.911 79.5874 212.554 79.5874ZM218.908 72.3166C219.542 72.3166 220.091 72.4378 220.554 72.6802C221.018 72.9154 221.41 73.2647 221.731 73.728L220.961 74.4658C220.69 74.0523 220.383 73.7565 220.041 73.5783C219.706 73.393 219.307 73.3003 218.844 73.3003C218.501 73.3003 218.22 73.3466 217.999 73.4393C217.778 73.532 217.614 73.6567 217.507 73.8135C217.407 73.9632 217.357 74.1343 217.357 74.3268C217.357 74.5477 217.432 74.7402 217.582 74.9042C217.739 75.0681 218.027 75.1964 218.448 75.2891L219.881 75.6099C220.565 75.7595 221.05 75.9876 221.335 76.2942C221.62 76.6007 221.763 76.9892 221.763 77.4596C221.763 77.8944 221.645 78.2722 221.41 78.593C221.175 78.9138 220.847 79.1597 220.426 79.3308C220.013 79.5019 219.524 79.5874 218.961 79.5874C218.462 79.5874 218.013 79.5232 217.614 79.3949C217.215 79.2666 216.866 79.092 216.566 78.871C216.267 78.65 216.021 78.397 215.828 78.1119L216.62 77.3206C216.769 77.5701 216.958 77.7946 217.186 77.9942C217.414 78.1867 217.678 78.3364 217.978 78.4433C218.284 78.5502 218.623 78.6037 218.993 78.6037C219.321 78.6037 219.603 78.5645 219.838 78.4861C220.08 78.4077 220.262 78.2936 220.383 78.1439C220.512 77.9871 220.576 77.8018 220.576 77.5879C220.576 77.3812 220.505 77.1994 220.362 77.0426C220.227 76.8858 219.97 76.7646 219.592 76.6791L218.042 76.3262C217.614 76.2336 217.261 76.1017 216.983 75.9306C216.705 75.7595 216.498 75.5528 216.363 75.3105C216.228 75.061 216.16 74.783 216.16 74.4765C216.16 74.0773 216.267 73.7173 216.481 73.3965C216.702 73.0686 217.019 72.8085 217.432 72.616C217.846 72.4164 218.338 72.3166 218.908 72.3166ZM225.511 74.0274C225.939 74.0274 226.303 74.0915 226.602 74.2199C226.909 74.341 227.165 74.5157 227.372 74.7438C227.579 74.9719 227.735 75.2321 227.842 75.5243L226.762 75.952C226.67 75.6241 226.52 75.3746 226.313 75.2035C226.114 75.0253 225.85 74.9362 225.522 74.9362C225.201 74.9362 224.927 75.0111 224.699 75.1608C224.471 75.3033 224.296 75.5136 224.175 75.7916C224.061 76.0696 224.004 76.4118 224.004 76.8181C224.004 77.2173 224.064 77.5559 224.186 77.8339C224.307 78.1119 224.481 78.3221 224.709 78.4647C224.938 78.6073 225.208 78.6785 225.522 78.6785C225.764 78.6785 225.975 78.6393 226.153 78.5609C226.331 78.4754 226.477 78.3578 226.591 78.2081C226.712 78.0513 226.794 77.8624 226.837 77.6414L227.874 77.9942C227.775 78.315 227.618 78.5966 227.404 78.8389C227.197 79.0742 226.937 79.2595 226.623 79.3949C226.31 79.5232 225.95 79.5874 225.543 79.5874C225.016 79.5874 224.549 79.4769 224.143 79.2559C223.736 79.035 223.419 78.7178 223.191 78.3043C222.97 77.8838 222.86 77.3848 222.86 76.8074C222.86 76.23 222.97 75.7346 223.191 75.3212C223.419 74.9006 223.733 74.5798 224.132 74.3589C224.538 74.1379 224.998 74.0274 225.511 74.0274ZM229.206 79.4805V74.1343H230.179L230.286 75.0966C230.428 74.7473 230.639 74.4836 230.917 74.3054C231.202 74.1201 231.551 74.0274 231.964 74.0274C232.071 74.0274 232.178 74.0381 232.285 74.0595C232.392 74.0737 232.481 74.0987 232.553 74.1343L232.392 75.1394C232.314 75.1109 232.225 75.0895 232.125 75.0752C232.032 75.0539 231.904 75.0432 231.74 75.0432C231.519 75.0432 231.302 75.1037 231.088 75.2249C230.874 75.339 230.696 75.5136 230.553 75.7489C230.418 75.9841 230.35 76.2835 230.35 76.647V79.4805H229.206ZM234.21 73.2362C233.961 73.2362 233.769 73.1756 233.633 73.0544C233.505 72.9261 233.441 72.7479 233.441 72.5198C233.441 72.2917 233.505 72.117 233.633 71.9959C233.769 71.8747 233.961 71.8141 234.21 71.8141C234.453 71.8141 234.638 71.8747 234.766 71.9959C234.902 72.117 234.97 72.2917 234.97 72.5198C234.97 72.7479 234.902 72.9261 234.766 73.0544C234.638 73.1756 234.453 73.2362 234.21 73.2362ZM234.777 74.1343V79.4805H233.633V74.1343H234.777ZM236.567 81.7259V74.1343H237.583L237.669 75.6312L237.519 75.4495C237.604 75.1715 237.736 74.9255 237.914 74.7117C238.093 74.4979 238.314 74.3303 238.577 74.2092C238.848 74.088 239.144 74.0274 239.465 74.0274C239.9 74.0274 240.295 74.1379 240.652 74.3589C241.008 74.5798 241.29 74.897 241.496 75.3105C241.703 75.7168 241.806 76.2122 241.806 76.7967C241.806 77.3812 241.7 77.8838 241.486 78.3043C241.279 78.7178 240.994 79.035 240.63 79.2559C240.274 79.4769 239.875 79.5874 239.433 79.5874C238.977 79.5874 238.588 79.4698 238.267 79.2345C237.947 78.9922 237.718 78.6857 237.583 78.315L237.711 78.1332V81.7259H236.567ZM239.187 78.6572C239.65 78.6572 240.01 78.4932 240.267 78.1653C240.531 77.8374 240.662 77.3848 240.662 76.8074C240.662 76.23 240.534 75.7774 240.277 75.4495C240.021 75.1144 239.664 74.9469 239.208 74.9469C238.909 74.9469 238.645 75.0253 238.417 75.1822C238.196 75.3319 238.021 75.5457 237.893 75.8237C237.772 76.0946 237.711 76.4225 237.711 76.8074C237.711 77.1852 237.772 77.5131 237.893 77.7911C238.014 78.0691 238.185 78.2829 238.406 78.4326C238.627 78.5823 238.887 78.6572 239.187 78.6572ZM244.759 72.5625V77.8766C244.759 78.1404 244.827 78.3328 244.962 78.454C245.105 78.5752 245.293 78.6358 245.529 78.6358C245.721 78.6358 245.889 78.6073 246.031 78.5502C246.174 78.4861 246.306 78.4005 246.427 78.2936L246.683 79.1276C246.519 79.2702 246.316 79.3842 246.074 79.4698C245.839 79.5482 245.575 79.5874 245.283 79.5874C244.976 79.5874 244.695 79.5375 244.438 79.4377C244.181 79.3379 243.982 79.1775 243.839 78.9565C243.697 78.7284 243.622 78.4326 243.615 78.0691V72.8833L244.759 72.5625ZM246.598 74.1343V75.0325H242.588V74.1343H246.598ZM248.317 78.037C248.517 78.037 248.681 78.0869 248.809 78.1867C248.944 78.2794 249.048 78.4112 249.119 78.5823C249.19 78.7463 249.226 78.9352 249.226 79.149C249.226 79.4128 249.176 79.6658 249.076 79.9082C248.976 80.1576 248.83 80.3822 248.638 80.5818C248.452 80.7885 248.228 80.956 247.964 81.0843L247.43 80.6245C247.622 80.5533 247.793 80.4606 247.943 80.3465C248.092 80.2325 248.217 80.1042 248.317 79.9616C248.424 79.8191 248.499 79.6729 248.542 79.5232L248.499 79.5019C248.463 79.5232 248.42 79.5411 248.37 79.5553C248.328 79.5696 248.264 79.5767 248.178 79.5767C248.078 79.5767 247.975 79.5482 247.868 79.4912C247.768 79.4413 247.683 79.3629 247.611 79.2559C247.54 79.149 247.504 79.01 247.504 78.8389C247.504 78.6821 247.54 78.5431 247.611 78.4219C247.69 78.3008 247.79 78.2081 247.911 78.1439C248.032 78.0726 248.167 78.037 248.317 78.037ZM257.188 72.4235C257.943 72.4235 258.542 72.6124 258.984 72.9902C259.433 73.368 259.658 73.8777 259.658 74.5192C259.658 75.1822 259.433 75.6954 258.984 76.0589C258.542 76.4153 257.943 76.5935 257.188 76.5935L257.081 76.6577H255.445V79.4805H254.311V72.4235H257.188ZM257.102 75.7061C257.565 75.7061 257.908 75.6134 258.129 75.4281C258.357 75.2356 258.471 74.9434 258.471 74.5513C258.471 74.1664 258.357 73.8777 258.129 73.6852C257.908 73.4928 257.565 73.3965 257.102 73.3965H255.445V75.7061H257.102ZM257.776 75.9413L260.075 79.4805H258.759L256.792 76.3904L257.776 75.9413ZM263.541 79.5874C263.006 79.5874 262.536 79.4769 262.13 79.2559C261.723 79.035 261.406 78.7178 261.178 78.3043C260.957 77.8838 260.847 77.3848 260.847 76.8074C260.847 76.23 260.957 75.7346 261.178 75.3212C261.406 74.9006 261.72 74.5798 262.119 74.3589C262.518 74.1379 262.971 74.0274 263.477 74.0274C263.997 74.0274 264.439 74.1343 264.803 74.3482C265.166 74.562 265.444 74.8543 265.637 75.2249C265.829 75.5956 265.925 76.0162 265.925 76.4866C265.925 76.6149 265.922 76.7361 265.915 76.8502C265.908 76.9642 265.897 77.064 265.883 77.1495H261.584V76.2728H265.38L264.813 76.4439C264.813 75.9591 264.692 75.5885 264.45 75.3319C264.208 75.0681 263.876 74.9362 263.456 74.9362C263.149 74.9362 262.882 75.0075 262.654 75.1501C262.426 75.2926 262.251 75.5065 262.13 75.7916C262.009 76.0696 261.948 76.4118 261.948 76.8181C261.948 77.2173 262.012 77.5559 262.14 77.8339C262.269 78.1119 262.45 78.3221 262.686 78.4647C262.921 78.6073 263.199 78.6785 263.52 78.6785C263.876 78.6785 264.165 78.6108 264.386 78.4754C264.607 78.34 264.781 78.1511 264.91 77.9087L265.819 78.3364C265.69 78.593 265.516 78.8175 265.295 79.01C265.081 79.1953 264.824 79.3379 264.525 79.4377C264.225 79.5375 263.897 79.5874 263.541 79.5874ZM270.46 76.0482C270.46 75.6918 270.361 75.4174 270.161 75.2249C269.969 75.0253 269.701 74.9255 269.359 74.9255C269.038 74.9255 268.764 75.0004 268.536 75.1501C268.308 75.2998 268.14 75.5421 268.033 75.8772L267.071 75.4709C267.206 75.036 267.47 74.6867 267.862 74.423C268.261 74.1593 268.775 74.0274 269.402 74.0274C269.83 74.0274 270.207 74.0987 270.535 74.2412C270.863 74.3767 271.12 74.5834 271.305 74.8614C271.498 75.1394 271.594 75.4958 271.594 75.9306V78.315C271.594 78.5788 271.726 78.7106 271.989 78.7106C272.118 78.7106 272.242 78.6928 272.364 78.6572L272.299 79.4484C272.135 79.5268 271.929 79.566 271.679 79.566C271.451 79.566 271.244 79.5268 271.059 79.4484C270.881 79.3629 270.738 79.2381 270.631 79.0742C270.532 78.9031 270.482 78.6928 270.482 78.4433V78.3685L270.717 78.3578C270.653 78.6358 270.521 78.8674 270.321 79.0528C270.122 79.231 269.89 79.3664 269.626 79.4591C269.363 79.5446 269.095 79.5874 268.824 79.5874C268.489 79.5874 268.186 79.5339 267.916 79.427C267.652 79.3201 267.442 79.1597 267.285 78.9459C267.135 78.7249 267.06 78.454 267.06 78.1332C267.06 77.7341 267.189 77.4062 267.445 77.1495C267.709 76.8929 268.08 76.7183 268.557 76.6256L270.631 76.2193L270.621 77.0212L269.113 77.3313C268.814 77.3883 268.589 77.4703 268.44 77.5772C268.29 77.6842 268.215 77.841 268.215 78.0477C268.215 78.2473 268.29 78.4077 268.44 78.5289C268.596 78.6429 268.803 78.6999 269.06 78.6999C269.238 78.6999 269.409 78.6785 269.573 78.6358C269.744 78.593 269.897 78.5253 270.033 78.4326C270.168 78.3328 270.271 78.2081 270.343 78.0584C270.421 77.9016 270.46 77.7162 270.46 77.5024V76.0482ZM275.767 74.0274C276.195 74.0274 276.559 74.0915 276.858 74.2199C277.164 74.341 277.421 74.5157 277.628 74.7438C277.835 74.9719 277.991 75.2321 278.098 75.5243L277.018 75.952C276.926 75.6241 276.776 75.3746 276.569 75.2035C276.37 75.0253 276.106 74.9362 275.778 74.9362C275.457 74.9362 275.183 75.0111 274.955 75.1608C274.727 75.3033 274.552 75.5136 274.431 75.7916C274.317 76.0696 274.26 76.4118 274.26 76.8181C274.26 77.2173 274.32 77.5559 274.441 77.8339C274.563 78.1119 274.737 78.3221 274.965 78.4647C275.194 78.6073 275.464 78.6785 275.778 78.6785C276.02 78.6785 276.231 78.6393 276.409 78.5609C276.587 78.4754 276.733 78.3578 276.847 78.2081C276.968 78.0513 277.05 77.8624 277.093 77.6414L278.13 77.9942C278.031 78.315 277.874 78.5966 277.66 78.8389C277.453 79.0742 277.193 79.2595 276.879 79.3949C276.566 79.5232 276.206 79.5874 275.799 79.5874C275.272 79.5874 274.805 79.4769 274.399 79.2559C273.992 79.035 273.675 78.7178 273.447 78.3043C273.226 77.8838 273.116 77.3848 273.116 76.8074C273.116 76.23 273.226 75.7346 273.447 75.3212C273.675 74.9006 273.989 74.5798 274.388 74.3589C274.794 74.1379 275.254 74.0274 275.767 74.0274ZM281.023 72.5625V77.8766C281.023 78.1404 281.091 78.3328 281.226 78.454C281.369 78.5752 281.557 78.6358 281.793 78.6358C281.985 78.6358 282.153 78.6073 282.295 78.5502C282.438 78.4861 282.57 78.4005 282.691 78.2936L282.947 79.1276C282.784 79.2702 282.58 79.3842 282.338 79.4698C282.103 79.5482 281.839 79.5874 281.547 79.5874C281.24 79.5874 280.959 79.5375 280.702 79.4377C280.445 79.3379 280.246 79.1775 280.103 78.9565C279.961 78.7284 279.886 78.4326 279.879 78.0691V72.8833L281.023 72.5625ZM282.862 74.1343V75.0325H278.852V74.1343H282.862ZM284.592 78.037C284.834 78.037 285.027 78.1083 285.169 78.2509C285.319 78.3863 285.394 78.5716 285.394 78.8069C285.394 79.0421 285.319 79.231 285.169 79.3735C285.027 79.5161 284.834 79.5874 284.592 79.5874C284.342 79.5874 284.143 79.5161 283.993 79.3735C283.85 79.231 283.779 79.0421 283.779 78.8069C283.779 78.5716 283.85 78.3863 283.993 78.2509C284.143 78.1083 284.342 78.037 284.592 78.037ZM287.63 73.2362C287.381 73.2362 287.188 73.1756 287.053 73.0544C286.925 72.9261 286.86 72.7479 286.86 72.5198C286.86 72.2917 286.925 72.117 287.053 71.9959C287.188 71.8747 287.381 71.8141 287.63 71.8141C287.873 71.8141 288.058 71.8747 288.186 71.9959C288.322 72.117 288.389 72.2917 288.389 72.5198C288.389 72.7479 288.322 72.9261 288.186 73.0544C288.058 73.1756 287.873 73.2362 287.63 73.2362ZM288.197 74.1343V79.9509C288.197 80.4071 288.111 80.7671 287.94 81.0309C287.776 81.3017 287.559 81.4942 287.288 81.6082C287.024 81.7223 286.743 81.7793 286.443 81.7793C286.201 81.7793 285.98 81.7472 285.781 81.6831C285.581 81.6189 285.413 81.5334 285.278 81.4265L285.47 80.5069C285.57 80.5925 285.691 80.6638 285.834 80.7208C285.969 80.7778 286.123 80.8063 286.294 80.8063C286.522 80.8063 286.704 80.7315 286.839 80.5818C286.982 80.4392 287.053 80.1933 287.053 79.844V74.1343H288.197ZM292.019 79.5874C291.484 79.5874 290.996 79.484 290.554 79.2773C290.112 79.0706 289.762 78.7783 289.506 78.4005L290.297 77.7162C290.454 78.0085 290.678 78.2437 290.971 78.4219C291.27 78.593 291.626 78.6785 292.04 78.6785C292.368 78.6785 292.628 78.6215 292.82 78.5075C293.013 78.3934 293.109 78.233 293.109 78.0263C293.109 77.8909 293.063 77.7733 292.97 77.6735C292.885 77.5665 292.717 77.4846 292.468 77.4275L291.345 77.1923C290.775 77.0783 290.368 76.8965 290.126 76.647C289.884 76.3904 289.762 76.0661 289.762 75.674C289.762 75.3818 289.848 75.1109 290.019 74.8614C290.19 74.6119 290.44 74.4123 290.768 74.2626C291.103 74.1058 291.502 74.0274 291.965 74.0274C292.5 74.0274 292.956 74.1236 293.334 74.3161C293.711 74.5014 294 74.7687 294.2 75.118L293.409 75.7809C293.273 75.4958 293.074 75.2855 292.81 75.1501C292.546 75.0075 292.272 74.9362 291.986 74.9362C291.758 74.9362 291.562 74.9647 291.398 75.0218C291.234 75.0788 291.11 75.1572 291.024 75.257C290.939 75.3568 290.896 75.4744 290.896 75.6099C290.896 75.7524 290.949 75.8772 291.056 75.9841C291.163 76.091 291.356 76.173 291.634 76.23L292.853 76.4866C293.366 76.5864 293.726 76.7575 293.932 76.9999C294.146 77.2351 294.253 77.5238 294.253 77.8659C294.253 78.2081 294.164 78.511 293.986 78.7748C293.808 79.0314 293.551 79.231 293.216 79.3735C292.881 79.5161 292.482 79.5874 292.019 79.5874Z" fill="black"/>
<circle cx="283.792" cy="54.1153" r="4.00962" fill="white" stroke="#252533" stroke-width="0.891026"/>
<path d="M227.958 24.257C228.545 24.4966 229.008 24.8161 229.345 25.2155C229.685 25.6083 229.916 26.0798 230.038 26.63L229.047 27.0223C228.952 26.5372 228.78 26.1475 228.531 25.8533C228.29 25.5551 227.956 25.3186 227.527 25.1436C227.21 25.0143 226.932 24.9509 226.692 24.9532C226.453 24.9556 226.254 25.0092 226.095 25.114C225.946 25.2149 225.836 25.3544 225.763 25.5326C225.68 25.7373 225.676 25.9437 225.753 26.1521C225.836 26.3631 226.055 26.591 226.409 26.8356L227.615 27.6738C228.192 28.0708 228.555 28.4651 228.703 28.8566C228.851 29.2481 228.836 29.6617 228.659 30.0973C228.494 30.4999 228.243 30.8053 227.904 31.0135C227.565 31.2216 227.168 31.3255 226.714 31.325C226.267 31.3273 225.783 31.2221 225.261 31.0094C224.799 30.8209 224.407 30.5919 224.086 30.3223C223.765 30.0527 223.508 29.7591 223.314 29.4414C223.12 29.1238 222.988 28.7966 222.918 28.4599L223.949 28.0261C223.993 28.3136 224.084 28.5929 224.219 28.8638C224.358 29.1282 224.546 29.3664 224.782 29.5785C225.026 29.7933 225.319 29.9707 225.662 30.1107C225.966 30.2345 226.241 30.3046 226.489 30.3208C226.743 30.3397 226.954 30.3028 227.123 30.2099C227.301 30.1132 227.43 29.9658 227.511 29.7678C227.589 29.5764 227.592 29.3812 227.519 29.1821C227.453 28.9858 227.261 28.7767 226.944 28.5548L225.641 27.6425C225.28 27.3951 225.003 27.1398 224.811 26.8763C224.618 26.6129 224.505 26.3435 224.471 26.0679C224.44 25.7857 224.482 25.5028 224.598 25.2189C224.748 24.8493 224.983 24.5564 225.302 24.3402C225.631 24.12 226.023 23.9989 226.478 23.9769C226.937 23.9482 227.43 24.0416 227.958 24.257ZM228.341 34.5753L231.209 27.5461L232.149 27.9298L231.663 29.3481L231.593 29.1233C231.777 28.8982 231.992 28.7203 232.238 28.5896C232.484 28.4589 232.752 28.3872 233.042 28.3746C233.338 28.3647 233.635 28.4204 233.932 28.5415C234.334 28.7058 234.659 28.9575 234.906 29.2967C235.152 29.6359 235.293 30.036 235.328 30.4969C235.366 30.9512 235.275 31.4489 235.054 31.9901C234.833 32.5313 234.545 32.9563 234.188 33.2649C233.84 33.5697 233.456 33.7557 233.036 33.823C232.623 33.893 232.211 33.8445 231.802 33.6776C231.38 33.5053 231.064 33.2496 230.856 32.9107C230.651 32.5651 230.555 32.1951 230.57 31.8008L230.757 31.6809L229.401 35.0074L228.341 34.5753ZM231.926 32.7234C232.355 32.8984 232.75 32.8825 233.112 32.6758C233.48 32.4718 233.773 32.1025 233.991 31.5679C234.209 31.0333 234.261 30.5657 234.147 30.1652C234.036 29.7581 233.769 29.4683 233.347 29.296C233.07 29.1829 232.796 29.1559 232.525 29.215C232.264 29.2701 232.022 29.4022 231.798 29.6111C231.584 29.8162 231.404 30.0969 231.258 30.4533C231.116 30.8031 231.048 31.1296 231.055 31.4328C231.062 31.736 231.14 31.9986 231.288 32.2206C231.436 32.4427 231.649 32.6103 231.926 32.7234ZM235.396 35.0282L237.416 30.078L238.316 30.4455L238.052 31.3769C238.316 31.1074 238.61 30.9426 238.935 30.8826C239.269 30.8187 239.627 30.8648 240.01 31.021C240.109 31.0613 240.204 31.1116 240.295 31.1718C240.389 31.2254 240.462 31.2821 240.514 31.3421L239.986 32.2121C239.924 32.1561 239.85 32.1027 239.763 32.0518C239.685 31.997 239.57 31.9386 239.419 31.8767C239.214 31.7932 238.99 31.7672 238.746 31.7986C238.505 31.8235 238.274 31.9179 238.053 32.0818C237.839 32.2485 237.663 32.5001 237.526 32.8367L236.456 35.4603L235.396 35.0282ZM242.389 31.1367C242.158 31.0424 242.002 30.9136 241.923 30.7503C241.852 30.583 241.86 30.3938 241.947 30.1826C242.033 29.9714 242.158 29.8339 242.323 29.7701C242.494 29.7091 242.695 29.7257 242.926 29.8199C243.15 29.9115 243.299 30.0376 243.372 30.1982C243.452 30.3616 243.448 30.5489 243.362 30.7601C243.276 30.9713 243.146 31.1107 242.972 31.1784C242.808 31.2421 242.613 31.2282 242.389 31.1367ZM242.574 32.1823L240.555 37.1325L239.496 36.7004L241.515 31.7502L242.574 32.1823ZM242.212 37.8086L244.232 32.8584L245.172 33.2421L244.717 34.5574L244.634 34.3622C244.843 34.1161 245.07 33.9357 245.317 33.8209C245.573 33.7021 245.838 33.6483 246.111 33.6595C246.39 33.6733 246.665 33.7354 246.935 33.8458C247.285 33.9885 247.57 34.1856 247.791 34.4373C248.021 34.6851 248.163 34.9779 248.218 35.3159C248.272 35.6538 248.215 36.0306 248.045 36.4465L246.737 39.6542L245.678 39.222L246.853 36.3411C247.052 35.8526 247.087 35.4743 246.958 35.206C246.838 34.9338 246.626 34.7358 246.322 34.612C246.105 34.5231 245.872 34.4898 245.624 34.5119C245.379 34.5275 245.142 34.6192 244.912 34.7871C244.688 34.9576 244.499 35.231 244.346 35.6072L243.272 38.2407L242.212 37.8086ZM255.142 36.0962L254.971 36.9965C254.951 36.9884 254.931 36.9803 254.911 36.9722C254.894 36.9576 254.876 36.9462 254.856 36.9381C254.539 36.8089 254.27 36.7799 254.048 36.8512C253.829 36.9159 253.668 37.077 253.563 37.3344L253.145 36.8868C253.252 36.6227 253.404 36.4113 253.6 36.2525C253.798 36.0871 254.024 35.9867 254.277 35.9513C254.537 35.9187 254.798 35.9562 255.062 36.0639C255.076 36.0693 255.089 36.0747 255.102 36.08C255.115 36.0854 255.128 36.0908 255.142 36.0962ZM251.449 40.6756C251.951 40.8802 252.294 41.1512 252.48 41.4887C252.668 41.8196 252.683 42.1798 252.524 42.5692C252.384 42.9124 252.156 43.1617 251.838 43.317C251.518 43.479 251.143 43.5492 250.713 43.5278C250.289 43.509 249.837 43.4014 249.355 43.2048C248.543 42.8737 247.994 42.5033 247.707 42.0936C247.419 41.684 247.353 41.291 247.506 40.9148C247.614 40.6508 247.8 40.4575 248.066 40.3349C248.338 40.2149 248.704 40.2333 249.164 40.39L249.04 40.5242C248.787 40.3517 248.605 40.1546 248.496 39.9327C248.395 39.707 248.403 39.4523 248.519 39.1685C248.634 38.8847 248.842 38.6882 249.14 38.579C249.439 38.4698 249.793 38.4795 250.202 38.6081L250.648 39.1015L250.529 39.0531C250.214 38.9556 249.972 38.9374 249.801 38.9985C249.629 39.0595 249.515 39.1594 249.459 39.298C249.392 39.463 249.401 39.6093 249.488 39.737C249.581 39.8673 249.74 39.9783 249.964 40.0698L251.449 40.6756ZM249.678 42.4128C250.041 42.5609 250.353 42.6457 250.613 42.6674C250.878 42.6983 251.089 42.6805 251.247 42.6141C251.409 42.557 251.517 42.4624 251.571 42.3304C251.633 42.1786 251.62 42.0309 251.532 41.8873C251.451 41.7465 251.252 41.6114 250.935 41.4822L249.341 40.832C249.156 40.7566 248.983 40.7395 248.819 40.7808C248.654 40.8286 248.537 40.9351 248.47 41.1001C248.381 41.3179 248.443 41.5433 248.656 41.7764C248.869 42.0095 249.209 42.2217 249.678 42.4128ZM252.243 36.011C252.679 36.1886 253.027 36.4114 253.287 36.6792C253.554 36.9498 253.722 37.2454 253.791 37.5662C253.867 37.8897 253.836 38.2198 253.699 38.5564C253.562 38.893 253.353 39.1504 253.072 39.3285C252.799 39.5093 252.472 39.6031 252.092 39.6097C251.718 39.6191 251.314 39.535 250.878 39.3573C250.192 39.0773 249.726 38.7101 249.48 38.2557C249.243 37.7974 249.228 37.3175 249.432 36.8158C249.569 36.4792 249.778 36.2219 250.059 36.0437C250.339 35.8656 250.666 35.7719 251.04 35.7625C251.42 35.7558 251.821 35.8386 252.243 36.011ZM251.94 36.7535C251.637 36.6296 251.348 36.6118 251.073 36.6999C250.808 36.7842 250.617 36.9682 250.501 37.252C250.386 37.5358 250.392 37.8039 250.52 38.0563C250.654 38.3113 250.873 38.5008 251.177 38.6246C251.487 38.7512 251.776 38.769 252.044 38.6782C252.319 38.59 252.514 38.4041 252.63 38.1203C252.746 37.8365 252.735 37.5703 252.598 37.3218C252.47 37.0695 252.251 36.88 251.94 36.7535ZM259.521 44.9845C259.231 44.866 258.986 44.7009 258.788 44.4891C258.596 44.2799 258.458 44.0427 258.374 43.7774C258.292 43.5055 258.263 43.228 258.286 42.9449L258.483 42.8291L257.839 44.1828L256.908 43.8032L259.836 36.6254L260.895 37.0576L259.478 40.5326L259.428 40.3158C259.693 40.0238 260.022 39.8307 260.415 39.7368C260.81 39.6362 261.222 39.6734 261.651 39.8484C262.047 40.01 262.368 40.2604 262.615 40.5996C262.868 40.9415 263.012 41.3429 263.047 41.8038C263.083 42.2647 262.988 42.769 262.765 43.3168C262.547 43.8515 262.261 44.2698 261.907 44.5718C261.559 44.8766 261.175 45.0626 260.755 45.1299C260.342 45.1999 259.93 45.1514 259.521 44.9845ZM259.641 44.0402C260.07 44.2152 260.465 44.1993 260.826 43.9926C261.197 43.7821 261.492 43.4094 261.71 42.8748C261.928 42.3402 261.98 41.8726 261.866 41.4721C261.752 41.0716 261.481 40.7838 261.052 40.6088C260.775 40.4957 260.504 40.4701 260.24 40.5318C259.979 40.5869 259.737 40.719 259.513 40.9279C259.296 41.1396 259.114 41.4236 258.969 41.78C258.826 42.1298 258.759 42.4563 258.766 42.7595C258.776 43.0561 258.855 43.3154 259.003 43.5375C259.157 43.7622 259.37 43.9298 259.641 44.0402ZM267.323 42.1623C267.805 42.3588 268.189 42.6348 268.475 42.9902C268.761 43.3455 268.927 43.7597 268.973 44.2325C269.028 44.7015 268.947 45.2033 268.729 45.7379C268.51 46.2725 268.216 46.6915 267.846 46.9947C267.486 47.2941 267.079 47.4707 266.626 47.5245C266.173 47.5783 265.705 47.507 265.223 47.3105C264.741 47.1139 264.357 46.838 264.071 46.4826C263.785 46.1272 263.615 45.715 263.559 45.2461C263.507 44.7705 263.59 44.2654 263.808 43.7308C264.026 43.1962 264.319 42.7805 264.686 42.4839C265.056 42.1806 265.468 42.0021 265.921 41.9482C266.374 41.8944 266.841 41.9658 267.323 42.1623ZM266.984 42.9939C266.687 42.8728 266.405 42.8384 266.137 42.8909C265.878 42.9394 265.641 43.0695 265.423 43.2811C265.206 43.4928 265.021 43.7867 264.867 44.1629C264.717 44.5325 264.644 44.8722 264.648 45.182C264.655 45.4852 264.733 45.7478 264.881 45.9699C265.038 46.188 265.265 46.3577 265.562 46.4788C265.859 46.6 266.137 46.6363 266.396 46.5877C266.657 46.5326 266.896 46.3992 267.113 46.1876C267.333 45.9693 267.518 45.6754 267.669 45.3058C267.823 44.9296 267.896 44.5899 267.889 44.2867C267.881 43.9835 267.802 43.7242 267.652 43.5088C267.504 43.2867 267.281 43.1151 266.984 42.9939ZM273.26 44.5838C273.741 44.7803 274.125 45.0563 274.412 45.4117C274.698 45.767 274.864 46.1812 274.909 46.654C274.964 47.123 274.883 47.6248 274.665 48.1594C274.447 48.694 274.153 49.113 273.783 49.4162C273.422 49.7156 273.015 49.8922 272.562 49.946C272.109 49.9999 271.641 49.9285 271.16 49.732C270.678 49.5354 270.294 49.2595 270.008 48.9041C269.721 48.5487 269.551 48.1365 269.496 47.6676C269.443 47.192 269.526 46.6869 269.744 46.1523C269.962 45.6177 270.255 45.202 270.623 44.9054C270.993 44.6021 271.404 44.4236 271.857 44.3697C272.31 44.3159 272.778 44.3873 273.26 44.5838ZM272.92 45.4154C272.623 45.2943 272.341 45.2599 272.073 45.3124C271.815 45.3609 271.577 45.491 271.36 45.7026C271.143 45.9143 270.957 46.2082 270.804 46.5844C270.653 46.954 270.58 47.2937 270.584 47.6035C270.592 47.9067 270.669 48.1693 270.817 48.3914C270.975 48.6095 271.202 48.7792 271.499 48.9003C271.796 49.0215 272.074 49.0578 272.332 49.0093C272.593 48.9541 272.832 48.8207 273.05 48.6091C273.269 48.3908 273.455 48.0969 273.606 47.7273C273.759 47.3511 273.832 47.0114 273.825 46.7082C273.818 46.405 273.739 46.1457 273.588 45.9303C273.44 45.7082 273.217 45.5366 272.92 45.4154ZM278.979 45.3346L276.971 50.2551C276.872 50.4993 276.862 50.7031 276.941 50.8664C277.028 51.0325 277.18 51.1599 277.398 51.2488C277.576 51.3215 277.742 51.3583 277.895 51.3594C278.051 51.3538 278.206 51.3244 278.358 51.2712L278.281 52.1403C278.075 52.2104 277.844 52.2393 277.587 52.227C277.34 52.2107 277.081 52.1474 276.81 52.037C276.527 51.9212 276.285 51.7687 276.085 51.5794C275.885 51.39 275.761 51.1662 275.712 50.9077C275.666 50.6426 275.709 50.3405 275.839 50.0012L277.798 45.1995L278.979 45.3346ZM280.088 47.4846L279.749 48.3162L276.036 46.8018L276.375 45.9702L280.088 47.4846Z" fill="black"/>
<path d="M288.104 23.3457V22.5117C288.781 22.027 289.348 21.5993 289.804 21.2286C290.268 20.858 290.638 20.5158 290.916 20.2022C291.194 19.8885 291.394 19.5927 291.515 19.3147C291.643 19.0296 291.707 18.7409 291.707 18.4486C291.707 18.0708 291.59 17.7643 291.355 17.5291C291.119 17.2939 290.792 17.1762 290.371 17.1762C289.929 17.1762 289.576 17.3259 289.312 17.6253C289.056 17.9176 288.91 18.3203 288.874 18.8335L287.88 18.3738C287.93 17.9247 288.061 17.5362 288.275 17.2083C288.489 16.8804 288.778 16.6274 289.141 16.4492C289.512 16.271 289.94 16.1819 290.424 16.1819C290.824 16.1819 291.173 16.2389 291.472 16.3529C291.779 16.467 292.035 16.6274 292.242 16.8341C292.449 17.0337 292.606 17.2689 292.713 17.5398C292.827 17.8107 292.884 18.0993 292.884 18.4059C292.884 18.8549 292.773 19.2898 292.552 19.7103C292.331 20.1238 291.982 20.5479 291.504 20.9827C291.027 21.4175 290.399 21.8844 289.622 22.3834V22.4048C289.708 22.3905 289.826 22.3834 289.975 22.3834C290.125 22.3763 290.275 22.3727 290.424 22.3727C290.574 22.3656 290.695 22.362 290.788 22.362H293.012V23.3457H288.104ZM296.989 23.4526C296.14 23.4526 295.474 23.1461 294.989 22.5331C294.512 21.9129 294.273 21.0077 294.273 19.8172C294.273 18.6268 294.512 17.7251 294.989 17.1121C295.474 16.4919 296.14 16.1819 296.989 16.1819C297.844 16.1819 298.51 16.4919 298.988 17.1121C299.473 17.7251 299.715 18.6268 299.715 19.8172C299.715 21.0077 299.473 21.9129 298.988 22.5331C298.51 23.1461 297.844 23.4526 296.989 23.4526ZM296.989 22.4796C297.331 22.4796 297.616 22.3834 297.844 22.1909C298.079 21.9913 298.254 21.6955 298.368 21.3035C298.489 20.9043 298.55 20.4089 298.55 19.8172C298.55 19.2256 298.489 18.7338 298.368 18.3417C298.254 17.9425 298.079 17.6467 297.844 17.4542C297.616 17.2547 297.331 17.1549 296.989 17.1549C296.646 17.1549 296.358 17.2547 296.122 17.4542C295.894 17.6467 295.723 17.9425 295.609 18.3417C295.495 18.7338 295.438 19.2256 295.438 19.8172C295.438 20.4089 295.495 20.9043 295.609 21.3035C295.723 21.6955 295.894 21.9913 296.122 22.1909C296.358 22.3834 296.646 22.4796 296.989 22.4796ZM301.094 23.3457V22.5117C301.771 22.027 302.338 21.5993 302.794 21.2286C303.257 20.858 303.628 20.5158 303.906 20.2022C304.184 19.8885 304.383 19.5927 304.505 19.3147C304.633 19.0296 304.697 18.7409 304.697 18.4486C304.697 18.0708 304.579 17.7643 304.344 17.5291C304.109 17.2939 303.781 17.1762 303.36 17.1762C302.918 17.1762 302.566 17.3259 302.302 17.6253C302.045 17.9176 301.899 18.3203 301.864 18.8335L300.869 18.3738C300.919 17.9247 301.051 17.5362 301.265 17.2083C301.479 16.8804 301.767 16.6274 302.131 16.4492C302.501 16.271 302.929 16.1819 303.414 16.1819C303.813 16.1819 304.162 16.2389 304.462 16.3529C304.768 16.467 305.025 16.6274 305.232 16.8341C305.438 17.0337 305.595 17.2689 305.702 17.5398C305.816 17.8107 305.873 18.0993 305.873 18.4059C305.873 18.8549 305.763 19.2898 305.542 19.7103C305.321 20.1238 304.971 20.5479 304.494 20.9827C304.016 21.4175 303.389 21.8844 302.612 22.3834V22.4048C302.698 22.3905 302.815 22.3834 302.965 22.3834C303.115 22.3763 303.264 22.3727 303.414 22.3727C303.564 22.3656 303.685 22.362 303.777 22.362H306.001V23.3457H301.094ZM309.754 23.4526C309.091 23.4526 308.513 23.3065 308.021 23.0142C307.537 22.7149 307.205 22.2979 307.027 21.7632L308.139 21.2393C308.203 21.4959 308.303 21.7169 308.438 21.9022C308.574 22.0876 308.752 22.2301 308.973 22.3299C309.194 22.4226 309.468 22.4689 309.796 22.4689C310.074 22.4689 310.31 22.419 310.502 22.3192C310.694 22.2194 310.841 22.0804 310.94 21.9022C311.047 21.724 311.101 21.5209 311.101 21.2928C311.101 21.0575 311.054 20.8615 310.962 20.7047C310.876 20.5479 310.737 20.4338 310.545 20.3625C310.359 20.2913 310.121 20.2556 309.828 20.2556C309.743 20.2556 309.654 20.2592 309.561 20.2663C309.476 20.2663 309.383 20.2734 309.283 20.2877V19.3254C309.347 19.3325 309.408 19.3397 309.465 19.3468C309.529 19.3468 309.59 19.3468 309.647 19.3468C310.11 19.3468 310.441 19.2541 310.641 19.0688C310.841 18.8834 310.94 18.5948 310.94 18.2027C310.94 17.8677 310.837 17.6111 310.63 17.4329C310.431 17.2547 310.142 17.1655 309.764 17.1655C309.372 17.1655 309.066 17.2582 308.845 17.4435C308.631 17.6218 308.467 17.8819 308.353 18.2241L307.305 17.7857C307.405 17.4578 307.572 17.1727 307.808 16.9303C308.043 16.688 308.331 16.5026 308.674 16.3743C309.023 16.2389 309.404 16.1712 309.818 16.1712C310.324 16.1712 310.744 16.2531 311.079 16.4171C311.422 16.581 311.675 16.8056 311.839 17.0907C312.01 17.3758 312.095 17.693 312.095 18.0423C312.095 18.3132 312.056 18.552 311.978 18.7587C311.899 18.9583 311.792 19.1329 311.657 19.2826C311.528 19.4252 311.386 19.5357 311.229 19.6141C311.079 19.6925 310.926 19.746 310.769 19.7745V19.7959C310.976 19.803 311.165 19.8458 311.336 19.9242C311.514 19.9954 311.671 20.0988 311.806 20.2342C311.949 20.3625 312.059 20.5194 312.138 20.7047C312.216 20.89 312.256 21.0932 312.256 21.3142C312.256 21.7419 312.149 22.1161 311.935 22.4369C311.721 22.7576 311.425 23.0071 311.047 23.1853C310.677 23.3635 310.245 23.4526 309.754 23.4526Z" fill="black"/>
<circle cx="301.389" cy="38.7443" r="9.80128" fill="#252533" stroke="#FFC85B" stroke-width="1.33654"/>
</svg>
