<svg width="346" height="139" viewBox="0 0 346 139" fill="none" xmlns="http://www.w3.org/2000/svg">
<path d="M25.2522 58.3C25.2522 58.3 36.3277 70.7046 57.3713 72.9198C78.4148 75.1349 93.256 58.3 93.256 58.3C94.7444 91.3792 103.303 100.025 132.463 97.5075C137.808 79.5642 143.384 73.7648 158.159 71.3692C175.448 63.6697 182.39 56.9257 189.613 40.3576C202.094 62.502 209.382 74.1167 228.156 78.9005C248.464 79.6645 280.057 75.0296 297.489 58.3C294.507 47.5052 333.142 33.4473 335.146 37.478" stroke="#D3D3D3" stroke-width="0.886044" stroke-linecap="round" stroke-linejoin="round" stroke-dasharray="3.54 3.54"/>
<circle cx="22.3727" cy="56.0429" r="9.74648" fill="#252533" stroke="#FDFFFC" stroke-width="1.32907"/>
<path d="M10.9337 42.5684V41.739C11.6071 41.257 12.1706 40.8317 12.6243 40.4631C13.085 40.0945 13.4536 39.7543 13.7301 39.4424C14.0065 39.1305 14.205 38.8363 14.3255 38.5599C14.4531 38.2764 14.5169 37.9893 14.5169 37.6987C14.5169 37.323 14.3999 37.0182 14.166 36.7843C13.9321 36.5504 13.606 36.4334 13.1878 36.4334C12.7483 36.4334 12.3975 36.5822 12.1352 36.88C11.88 37.1706 11.7347 37.5711 11.6993 38.0814L10.7104 37.6242C10.7601 37.1777 10.8912 36.7914 11.1039 36.4653C11.3165 36.1392 11.6036 35.8876 11.9651 35.7104C12.3337 35.5332 12.759 35.4446 13.241 35.4446C13.6379 35.4446 13.9853 35.5013 14.283 35.6147C14.5878 35.7281 14.843 35.8876 15.0485 36.0932C15.2541 36.2916 15.41 36.5255 15.5163 36.7949C15.6298 37.0643 15.6865 37.3513 15.6865 37.6561C15.6865 38.1027 15.5766 38.5351 15.3569 38.9533C15.1371 39.3644 14.7898 39.7862 14.3149 40.2186C13.84 40.651 13.2162 41.1152 12.4435 41.6114V41.6327C12.5286 41.6185 12.6456 41.6114 12.7944 41.6114C12.9433 41.6043 13.0921 41.6008 13.241 41.6008C13.3898 41.5937 13.5103 41.5902 13.6025 41.5902H15.8141V42.5684H10.9337ZM19.7684 42.6747C18.9249 42.6747 18.2622 42.3699 17.7802 41.7603C17.3052 41.1436 17.0678 40.2434 17.0678 39.0596C17.0678 37.8759 17.3052 36.9792 17.7802 36.3696C18.2622 35.7529 18.9249 35.4446 19.7684 35.4446C20.619 35.4446 21.2818 35.7529 21.7567 36.3696C22.2387 36.9792 22.4797 37.8759 22.4797 39.0596C22.4797 40.2434 22.2387 41.1436 21.7567 41.7603C21.2818 42.3699 20.619 42.6747 19.7684 42.6747ZM19.7684 41.7071C20.1087 41.7071 20.3922 41.6114 20.619 41.42C20.853 41.2216 21.0266 40.9274 21.14 40.5375C21.2605 40.1406 21.3208 39.648 21.3208 39.0596C21.3208 38.4713 21.2605 37.9822 21.14 37.5923C21.0266 37.1954 20.853 36.9012 20.619 36.7098C20.3922 36.5114 20.1087 36.4121 19.7684 36.4121C19.4282 36.4121 19.1411 36.5114 18.9072 36.7098C18.6804 36.9012 18.5103 37.1954 18.3968 37.5923C18.2834 37.9822 18.2267 38.4713 18.2267 39.0596C18.2267 39.648 18.2834 40.1406 18.3968 40.5375C18.5103 40.9274 18.6804 41.2216 18.9072 41.42C19.1411 41.6114 19.4282 41.7071 19.7684 41.7071ZM25.2647 42.5684V37.7518C25.2647 37.6101 25.2647 37.4647 25.2647 37.3159C25.2718 37.1599 25.2789 36.9969 25.286 36.8268C25.045 37.0607 24.7685 37.2627 24.4566 37.4329C24.1518 37.5959 23.8364 37.7128 23.5103 37.7837L23.2977 36.7949C23.4465 36.7736 23.6202 36.724 23.8187 36.646C24.0172 36.5681 24.2227 36.4688 24.4354 36.3483C24.648 36.2278 24.843 36.1002 25.0202 35.9656C25.1974 35.8238 25.3356 35.6856 25.4348 35.5509H26.3918V42.5684H25.2647ZM30.5315 35.4446C31.134 35.4446 31.6408 35.5934 32.0519 35.8911C32.4701 36.1888 32.782 36.6071 32.9876 37.1458C33.2002 37.6845 33.3066 38.3189 33.3066 39.049C33.3066 39.8571 33.1967 40.5305 32.9769 41.0692C32.7572 41.6008 32.4418 42.0013 32.0306 42.2706C31.6195 42.54 31.1233 42.6747 30.5421 42.6747C29.9467 42.6747 29.4363 42.5436 29.011 42.2813C28.5857 42.019 28.2667 41.6256 28.0541 41.1011L29.128 40.6013C29.2272 40.9345 29.3902 41.2003 29.6171 41.3988C29.851 41.5973 30.1664 41.6965 30.5634 41.6965C30.8894 41.6965 31.1623 41.6327 31.3821 41.5051C31.6018 41.3775 31.7755 41.1932 31.9031 40.9522C32.0377 40.7112 32.1334 40.4206 32.1901 40.0803C32.2468 39.7401 32.2752 39.3573 32.2752 38.932C32.2752 38.9108 32.2752 38.8931 32.2752 38.8789C32.2752 38.8576 32.2752 38.8363 32.2752 38.8151H32.2327C32.1547 39.0986 32.0129 39.329 31.8074 39.5062C31.6089 39.6834 31.3821 39.8145 31.1269 39.8996C30.8717 39.9776 30.6165 40.0166 30.3613 40.0166C29.9077 40.0166 29.5037 39.9279 29.1492 39.7507C28.8019 39.5664 28.529 39.3113 28.3305 38.9852C28.1321 38.6591 28.0328 38.2728 28.0328 37.8263C28.0328 37.3372 28.1321 36.9154 28.3305 36.561C28.5361 36.2066 28.8232 35.9337 29.1918 35.7423C29.5674 35.5438 30.014 35.4446 30.5315 35.4446ZM30.5421 36.444C30.0955 36.444 29.7517 36.5645 29.5107 36.8055C29.2768 37.0465 29.1599 37.3832 29.1599 37.8156C29.1599 38.1984 29.2839 38.4996 29.532 38.7194C29.7872 38.932 30.1239 39.0384 30.5421 39.0384C30.8115 39.0384 31.0489 38.9852 31.2545 38.8789C31.46 38.7655 31.6195 38.6131 31.7329 38.4217C31.8534 38.2303 31.9137 38.007 31.9137 37.7518C31.9137 37.4825 31.8534 37.2521 31.7329 37.0607C31.6195 36.8622 31.46 36.7098 31.2545 36.6035C31.0489 36.4972 30.8115 36.444 30.5421 36.444Z" fill="#FDFFFC"/>
<circle cx="93.4776" cy="59.3658" r="3.9872" fill="#FFC85B" stroke="#FDFFFC" stroke-width="0.886044"/>
<path d="M62.1719 45.297V52.3145H61.0236V45.297H62.1719ZM57.5574 45.297V52.3145H56.4197V45.297H57.5574ZM61.5977 48.2741V49.2523H56.9938V48.2741H61.5977ZM69.4693 45.297V46.2752H67.0663V52.3145H65.9286V46.2752H63.5257V45.297H69.4693ZM78.0087 45.297V52.3145H76.9561V48.2528L77.0411 46.3177H77.0305L74.8933 52.3145H73.9471L71.8099 46.3177H71.7993L71.8843 48.2528V52.3145H70.8317V45.297H72.5223L73.9364 49.3586L74.4255 51.0279H74.4468L74.9465 49.3586L76.35 45.297H78.0087ZM81.2313 51.3363H85.1016V52.3145H80.0936V45.297H81.2313V51.3363ZM86.8938 50.8791C87.0923 50.8791 87.2553 50.9287 87.3829 51.0279C87.5176 51.1201 87.6204 51.2512 87.6913 51.4213C87.7621 51.5844 87.7976 51.7722 87.7976 51.9848C87.7976 52.2471 87.748 52.4988 87.6487 52.7398C87.5495 52.9878 87.4042 53.2111 87.2128 53.4096C87.0285 53.6152 86.8052 53.7817 86.5429 53.9093L86.0113 53.4521C86.2027 53.3812 86.3728 53.2891 86.5217 53.1757C86.6705 53.0623 86.7946 52.9347 86.8938 52.7929C87.0001 52.6511 87.0746 52.5058 87.1171 52.357L87.0746 52.3357C87.0391 52.357 86.9966 52.3747 86.947 52.3889C86.9044 52.4031 86.8406 52.4101 86.7556 52.4101C86.6564 52.4101 86.5536 52.3818 86.4472 52.3251C86.348 52.2755 86.2629 52.1975 86.1921 52.0912C86.1212 51.9848 86.0857 51.8466 86.0857 51.6765C86.0857 51.5206 86.1212 51.3823 86.1921 51.2618C86.27 51.1413 86.3693 51.0492 86.4898 50.9854C86.6103 50.9145 86.745 50.8791 86.8938 50.8791ZM98.6707 50.4538C98.529 50.8791 98.3163 51.2406 98.0328 51.5383C97.7493 51.8289 97.4161 52.0486 97.0333 52.1975C96.6506 52.3464 96.2288 52.4208 95.7681 52.4208C95.0947 52.4208 94.5099 52.2755 94.0137 51.9848C93.5175 51.6942 93.1347 51.2796 92.8654 50.7408C92.596 50.2021 92.4614 49.5571 92.4614 48.8057C92.4614 48.0544 92.596 47.4093 92.8654 46.8706C93.1347 46.3319 93.5175 45.9172 94.0137 45.6266C94.5099 45.336 95.0911 45.1907 95.7574 45.1907C96.2182 45.1907 96.6328 45.2545 97.0014 45.382C97.3771 45.5096 97.6961 45.701 97.9584 45.9562C98.2206 46.2114 98.4227 46.5304 98.5644 46.9131L97.4905 47.3916C97.3488 46.9734 97.1432 46.6686 96.8738 46.4772C96.6045 46.2787 96.2536 46.1795 95.8212 46.1795C95.3888 46.1795 95.0096 46.2823 94.6835 46.4878C94.3575 46.6934 94.1023 46.9911 93.918 47.381C93.7408 47.7708 93.6522 48.2457 93.6522 48.8057C93.6522 49.3586 93.7373 49.8335 93.9074 50.2305C94.0775 50.6203 94.322 50.918 94.641 51.1236C94.96 51.3292 95.3428 51.432 95.7893 51.432C96.2217 51.432 96.5939 51.3221 96.9057 51.1023C97.2247 50.8755 97.4515 50.5388 97.5862 50.0923L98.6707 50.4538ZM102.515 45.1907C103.146 45.1907 103.692 45.3112 104.153 45.5522C104.614 45.7861 105.003 46.1334 105.322 46.5942L104.557 47.3278C104.287 46.9167 103.983 46.6225 103.642 46.4453C103.309 46.261 102.912 46.1689 102.452 46.1689C102.111 46.1689 101.831 46.2149 101.612 46.3071C101.392 46.3992 101.229 46.5233 101.123 46.6792C101.023 46.8281 100.974 46.9982 100.974 47.1896C100.974 47.4093 101.048 47.6007 101.197 47.7637C101.353 47.9268 101.64 48.0544 102.058 48.1465L103.483 48.4655C104.163 48.6143 104.645 48.8412 104.929 49.146C105.213 49.4508 105.354 49.8371 105.354 50.3049C105.354 50.7373 105.237 51.113 105.003 51.432C104.769 51.7509 104.443 51.9955 104.025 52.1656C103.614 52.3357 103.129 52.4208 102.569 52.4208C102.072 52.4208 101.626 52.357 101.229 52.2294C100.832 52.1018 100.485 51.9281 100.187 51.7084C99.8892 51.4887 99.6446 51.237 99.4532 50.9535L100.24 50.1667C100.389 50.4148 100.577 50.6381 100.804 50.8365C101.03 51.0279 101.293 51.1768 101.59 51.2831C101.895 51.3894 102.232 51.4426 102.6 51.4426C102.927 51.4426 103.207 51.4036 103.44 51.3256C103.681 51.2477 103.862 51.1342 103.983 50.9854C104.11 50.8294 104.174 50.6451 104.174 50.4325C104.174 50.2269 104.103 50.0462 103.961 49.8902C103.827 49.7343 103.572 49.6138 103.196 49.5287L101.654 49.1779C101.229 49.0857 100.878 48.9546 100.602 48.7845C100.325 48.6143 100.12 48.4088 99.9849 48.1678C99.8502 47.9197 99.7828 47.6432 99.7828 47.3384C99.7828 46.9415 99.8892 46.5835 100.102 46.2645C100.322 45.9385 100.637 45.6798 101.048 45.4884C101.459 45.2899 101.948 45.1907 102.515 45.1907ZM109.337 45.1907C109.968 45.1907 110.514 45.3112 110.975 45.5522C111.435 45.7861 111.825 46.1334 112.144 46.5942L111.379 47.3278C111.109 46.9167 110.805 46.6225 110.464 46.4453C110.131 46.261 109.734 46.1689 109.273 46.1689C108.933 46.1689 108.653 46.2149 108.433 46.3071C108.214 46.3992 108.051 46.5233 107.944 46.6792C107.845 46.8281 107.796 46.9982 107.796 47.1896C107.796 47.4093 107.87 47.6007 108.019 47.7637C108.175 47.9268 108.462 48.0544 108.88 48.1465L110.305 48.4655C110.985 48.6143 111.467 48.8412 111.751 49.146C112.034 49.4508 112.176 49.8371 112.176 50.3049C112.176 50.7373 112.059 51.113 111.825 51.432C111.591 51.7509 111.265 51.9955 110.847 52.1656C110.436 52.3357 109.95 52.4208 109.39 52.4208C108.894 52.4208 108.448 52.357 108.051 52.2294C107.654 52.1018 107.306 51.9281 107.009 51.7084C106.711 51.4887 106.466 51.237 106.275 50.9535L107.062 50.1667C107.211 50.4148 107.399 50.6381 107.625 50.8365C107.852 51.0279 108.114 51.1768 108.412 51.2831C108.717 51.3894 109.054 51.4426 109.422 51.4426C109.748 51.4426 110.028 51.4036 110.262 51.3256C110.503 51.2477 110.684 51.1342 110.805 50.9854C110.932 50.8294 110.996 50.6451 110.996 50.4325C110.996 50.2269 110.925 50.0462 110.783 49.8902C110.649 49.7343 110.393 49.6138 110.018 49.5287L108.476 49.1779C108.051 49.0857 107.7 48.9546 107.423 48.7845C107.147 48.6143 106.941 48.4088 106.807 48.1678C106.672 47.9197 106.605 47.6432 106.605 47.3384C106.605 46.9415 106.711 46.5835 106.924 46.2645C107.143 45.9385 107.459 45.6798 107.87 45.4884C108.281 45.2899 108.77 45.1907 109.337 45.1907ZM114.171 50.8791C114.369 50.8791 114.532 50.9287 114.66 51.0279C114.795 51.1201 114.897 51.2512 114.968 51.4213C115.039 51.5844 115.075 51.7722 115.075 51.9848C115.075 52.2471 115.025 52.4988 114.926 52.7398C114.826 52.9878 114.681 53.2111 114.49 53.4096C114.305 53.6152 114.082 53.7817 113.82 53.9093L113.288 53.4521C113.48 53.3812 113.65 53.2891 113.799 53.1757C113.948 53.0623 114.072 52.9347 114.171 52.7929C114.277 52.6511 114.352 52.5058 114.394 52.357L114.352 52.3357C114.316 52.357 114.274 52.3747 114.224 52.3889C114.181 52.4031 114.118 52.4101 114.033 52.4101C113.933 52.4101 113.831 52.3818 113.724 52.3251C113.625 52.2755 113.54 52.1975 113.469 52.0912C113.398 51.9848 113.363 51.8466 113.363 51.6765C113.363 51.5206 113.398 51.3823 113.469 51.2618C113.547 51.1413 113.646 51.0492 113.767 50.9854C113.887 50.9145 114.022 50.8791 114.171 50.8791ZM124.103 45.297V49.8264C124.103 50.6416 123.876 51.2796 123.423 51.7403C122.976 52.194 122.352 52.4208 121.551 52.4208C120.977 52.4208 120.509 52.3145 120.148 52.1018C119.786 51.8892 119.535 51.5914 119.393 51.2087C119.251 50.8188 119.226 50.3687 119.319 49.8583L120.414 49.6563C120.329 50.2659 120.375 50.716 120.552 51.0067C120.729 51.2902 121.062 51.432 121.551 51.432C122.083 51.432 122.448 51.2796 122.646 50.9748C122.852 50.6629 122.955 50.2092 122.955 49.6138V45.297H124.103ZM128.484 45.1907C129.115 45.1907 129.661 45.3112 130.121 45.5522C130.582 45.7861 130.972 46.1334 131.291 46.5942L130.526 47.3278C130.256 46.9167 129.951 46.6225 129.611 46.4453C129.278 46.261 128.881 46.1689 128.42 46.1689C128.08 46.1689 127.8 46.2149 127.58 46.3071C127.361 46.3992 127.198 46.5233 127.091 46.6792C126.992 46.8281 126.942 46.9982 126.942 47.1896C126.942 47.4093 127.017 47.6007 127.166 47.7637C127.322 47.9268 127.609 48.0544 128.027 48.1465L129.452 48.4655C130.132 48.6143 130.614 48.8412 130.898 49.146C131.181 49.4508 131.323 49.8371 131.323 50.3049C131.323 50.7373 131.206 51.113 130.972 51.432C130.738 51.7509 130.412 51.9955 129.994 52.1656C129.583 52.3357 129.097 52.4208 128.537 52.4208C128.041 52.4208 127.594 52.357 127.198 52.2294C126.801 52.1018 126.453 51.9281 126.156 51.7084C125.858 51.4887 125.613 51.237 125.422 50.9535L126.209 50.1667C126.358 50.4148 126.545 50.6381 126.772 50.8365C126.999 51.0279 127.261 51.1768 127.559 51.2831C127.864 51.3894 128.201 51.4426 128.569 51.4426C128.895 51.4426 129.175 51.4036 129.409 51.3256C129.65 51.2477 129.831 51.1342 129.951 50.9854C130.079 50.8294 130.143 50.6451 130.143 50.4325C130.143 50.2269 130.072 50.0462 129.93 49.8902C129.795 49.7343 129.54 49.6138 129.165 49.5287L127.623 49.1779C127.198 49.0857 126.847 48.9546 126.57 48.7845C126.294 48.6143 126.088 48.4088 125.954 48.1678C125.819 47.9197 125.752 47.6432 125.752 47.3384C125.752 46.9415 125.858 46.5835 126.071 46.2645C126.29 45.9385 126.606 45.6798 127.017 45.4884C127.428 45.2899 127.917 45.1907 128.484 45.1907Z" fill="#FDFFFC"/>
<circle cx="132.021" cy="97.9087" r="3.9872" fill="#FFC85B" stroke="#FDFFFC" stroke-width="0.886044"/>
<path d="M125.131 105.992C125.634 105.992 126.066 106.081 126.428 106.258C126.796 106.435 127.083 106.687 127.289 107.013C127.495 107.339 127.597 107.732 127.597 108.193C127.597 108.647 127.495 109.04 127.289 109.373C127.083 109.7 126.796 109.951 126.428 110.128C126.066 110.306 125.634 110.394 125.131 110.394H123.568V113.01H122.43V105.992H125.131ZM124.95 109.416C125.453 109.416 125.822 109.313 126.056 109.108C126.297 108.895 126.417 108.59 126.417 108.193C126.417 107.789 126.297 107.484 126.056 107.279C125.822 107.066 125.453 106.96 124.95 106.96H123.568V109.416H124.95ZM134.848 105.992V113.01H133.7V105.992H134.848ZM130.234 105.992V113.01H129.096V105.992H130.234ZM134.274 108.969V109.948H129.67V108.969H134.274ZM139.626 105.992C140.129 105.992 140.561 106.081 140.923 106.258C141.291 106.435 141.579 106.687 141.784 107.013C141.99 107.339 142.092 107.732 142.092 108.193C142.092 108.647 141.99 109.04 141.784 109.373C141.579 109.7 141.291 109.951 140.923 110.128C140.561 110.306 140.129 110.394 139.626 110.394H138.063V113.01H136.925V105.992H139.626ZM139.445 109.416C139.948 109.416 140.317 109.313 140.551 109.108C140.792 108.895 140.912 108.59 140.912 108.193C140.912 107.789 140.792 107.484 140.551 107.279C140.317 107.066 139.948 106.96 139.445 106.96H138.063V109.416H139.445Z" fill="#FDFFFC"/>
<circle cx="160.374" cy="69.5552" r="3.9872" fill="#FFC85B" stroke="#FDFFFC" stroke-width="0.886044"/>
<path d="M151.641 78.9669L149.036 85.9844H147.707L145.102 78.9669H146.314L147.952 83.6346L148.377 85.0274L148.802 83.6452L150.44 78.9669H151.641ZM154.33 86.0907C153.983 86.0907 153.66 86.0269 153.363 85.8993C153.072 85.7717 152.838 85.5662 152.661 85.2826C152.484 84.9991 152.395 84.6305 152.395 84.1768V80.6681H153.533V83.8898C153.533 84.3718 153.635 84.7049 153.841 84.8892C154.047 85.0664 154.334 85.155 154.702 85.155C154.879 85.155 155.05 85.1267 155.213 85.07C155.383 85.0062 155.535 84.9105 155.67 84.7829C155.804 84.6482 155.907 84.4781 155.978 84.2725C156.056 84.067 156.095 83.826 156.095 83.5495V80.6681H157.233V85.9844H156.233L156.18 85.1231C155.996 85.4563 155.748 85.7008 155.436 85.8568C155.124 86.0127 154.755 86.0907 154.33 86.0907ZM161.349 86.0907C160.818 86.0907 160.35 85.9808 159.946 85.7611C159.542 85.5414 159.226 85.2259 159 84.8148C158.78 84.3966 158.67 83.9004 158.67 83.3262C158.67 82.7521 158.78 82.2594 159 81.8483C159.226 81.4301 159.538 81.1111 159.935 80.8914C160.332 80.6717 160.782 80.5618 161.286 80.5618C161.803 80.5618 162.242 80.6681 162.604 80.8808C162.965 81.0934 163.242 81.384 163.433 81.7526C163.625 82.1212 163.72 82.5394 163.72 83.0073C163.72 83.1349 163.717 83.2554 163.71 83.3688C163.703 83.4822 163.692 83.5814 163.678 83.6665H159.404V82.7946H163.178L162.615 82.9647C162.615 82.4827 162.494 82.1141 162.253 81.859C162.012 81.5967 161.682 81.4656 161.264 81.4656C160.959 81.4656 160.694 81.5364 160.467 81.6782C160.24 81.82 160.066 82.0326 159.946 82.3162C159.825 82.5926 159.765 82.9328 159.765 83.3369C159.765 83.7338 159.829 84.0705 159.956 84.347C160.084 84.6234 160.265 84.8325 160.499 84.9743C160.733 85.1161 161.009 85.1869 161.328 85.1869C161.682 85.1869 161.97 85.1196 162.189 84.9849C162.409 84.8502 162.583 84.6624 162.71 84.4214L163.614 84.8467C163.486 85.1019 163.313 85.3252 163.093 85.5165C162.88 85.7008 162.625 85.8426 162.328 85.9418C162.03 86.0411 161.704 86.0907 161.349 86.0907ZM165.731 84.549C165.972 84.549 166.164 84.6199 166.305 84.7616C166.454 84.8963 166.529 85.0806 166.529 85.3145C166.529 85.5484 166.454 85.7363 166.305 85.878C166.164 86.0198 165.972 86.0907 165.731 86.0907C165.483 86.0907 165.285 86.0198 165.136 85.878C164.994 85.7363 164.923 85.5484 164.923 85.3145C164.923 85.0806 164.994 84.8963 165.136 84.7616C165.285 84.6199 165.483 84.549 165.731 84.549ZM168.753 79.775C168.505 79.775 168.313 79.7147 168.179 79.5942C168.051 79.4666 167.987 79.2894 167.987 79.0626C167.987 78.8358 168.051 78.6621 168.179 78.5416C168.313 78.4211 168.505 78.3609 168.753 78.3609C168.994 78.3609 169.178 78.4211 169.306 78.5416C169.44 78.6621 169.508 78.8358 169.508 79.0626C169.508 79.2894 169.44 79.4666 169.306 79.5942C169.178 79.7147 168.994 79.775 168.753 79.775ZM169.316 80.6681V86.4522C169.316 86.9059 169.231 87.2638 169.061 87.5261C168.898 87.7954 168.682 87.9868 168.413 88.1002C168.15 88.2137 167.87 88.2704 167.573 88.2704C167.332 88.2704 167.112 88.2385 166.913 88.1747C166.715 88.1109 166.548 88.0258 166.414 87.9195L166.605 87.0051C166.704 87.0902 166.825 87.161 166.967 87.2177C167.101 87.2745 167.254 87.3028 167.424 87.3028C167.651 87.3028 167.831 87.2284 167.966 87.0795C168.108 86.9378 168.179 86.6932 168.179 86.3459V80.6681H169.316ZM173.117 86.0907C172.585 86.0907 172.099 85.9879 171.66 85.7824C171.22 85.5768 170.873 85.2862 170.618 84.9105L171.405 84.23C171.561 84.5206 171.784 84.7545 172.075 84.9318C172.372 85.1019 172.727 85.1869 173.138 85.1869C173.464 85.1869 173.723 85.1302 173.914 85.0168C174.105 84.9034 174.201 84.7439 174.201 84.5384C174.201 84.4037 174.155 84.2867 174.063 84.1875C173.978 84.0812 173.811 83.9996 173.563 83.9429L172.447 83.709C171.88 83.5956 171.476 83.4148 171.235 83.1668C170.994 82.9116 170.873 82.5891 170.873 82.1992C170.873 81.9086 170.958 81.6392 171.128 81.3911C171.298 81.143 171.546 80.9446 171.873 80.7957C172.206 80.6398 172.603 80.5618 173.063 80.5618C173.595 80.5618 174.049 80.6575 174.424 80.8489C174.8 81.0332 175.087 81.299 175.286 81.6463L174.499 82.3055C174.364 82.022 174.166 81.8129 173.903 81.6782C173.641 81.5364 173.368 81.4656 173.085 81.4656C172.858 81.4656 172.663 81.4939 172.5 81.5506C172.337 81.6073 172.213 81.6853 172.128 81.7845C172.043 81.8838 172 82.0007 172 82.1354C172 82.2772 172.053 82.4012 172.16 82.5075C172.266 82.6139 172.457 82.6954 172.734 82.7521L173.946 83.0073C174.456 83.1065 174.814 83.2766 175.02 83.5176C175.232 83.7515 175.339 84.0386 175.339 84.3789C175.339 84.7191 175.25 85.0204 175.073 85.2826C174.896 85.5378 174.641 85.7363 174.307 85.878C173.974 86.0198 173.577 86.0907 173.117 86.0907Z" fill="#FDFFFC"/>
<circle cx="190.056" cy="42.0865" r="3.9872" fill="#FFC85B" stroke="#FDFFFC" stroke-width="0.886044"/>
<path d="M177.801 26.6915V33.709H176.45L173.739 29.2859L173.058 28.0418H173.048L173.09 29.1795V33.709H172.048V26.6915H173.388L176.089 31.104L176.78 32.3693H176.79L176.748 31.221V26.6915H177.801ZM181.952 28.2864C182.47 28.2864 182.927 28.3963 183.324 28.616C183.721 28.8357 184.029 29.1547 184.249 29.5729C184.476 29.9841 184.589 30.4767 184.589 31.0509C184.589 31.625 184.476 32.1212 184.249 32.5394C184.029 32.9505 183.721 33.266 183.324 33.4857C182.927 33.7054 182.47 33.8153 181.952 33.8153C181.435 33.8153 180.978 33.7054 180.581 33.4857C180.184 33.266 179.872 32.9505 179.645 32.5394C179.418 32.1212 179.305 31.625 179.305 31.0509C179.305 30.4767 179.418 29.9841 179.645 29.5729C179.872 29.1547 180.184 28.8357 180.581 28.616C180.978 28.3963 181.435 28.2864 181.952 28.2864ZM181.952 29.1795C181.633 29.1795 181.361 29.254 181.134 29.4028C180.914 29.5446 180.744 29.7537 180.623 30.0301C180.503 30.3066 180.443 30.6468 180.443 31.0509C180.443 31.4478 180.503 31.788 180.623 32.0716C180.744 32.348 180.914 32.5607 181.134 32.7095C181.361 32.8513 181.633 32.9222 181.952 32.9222C182.271 32.9222 182.541 32.8513 182.761 32.7095C182.98 32.5607 183.15 32.348 183.271 32.0716C183.391 31.788 183.452 31.4478 183.452 31.0509C183.452 30.6468 183.391 30.3066 183.271 30.0301C183.15 29.7537 182.98 29.5446 182.761 29.4028C182.541 29.254 182.271 29.1795 181.952 29.1795ZM188.062 33.8153C187.623 33.8153 187.222 33.7054 186.861 33.4857C186.506 33.266 186.226 32.9505 186.021 32.5394C185.815 32.1283 185.712 31.6356 185.712 31.0615C185.712 30.4661 185.822 29.9628 186.042 29.5517C186.262 29.1405 186.556 28.8287 186.924 28.616C187.293 28.3963 187.697 28.2864 188.136 28.2864C188.59 28.2864 188.973 28.4104 189.285 28.6585C189.597 28.9066 189.806 29.2291 189.912 29.6261L189.784 29.7431V26.0004H190.922V33.709H189.912L189.827 32.263L189.976 32.2736C189.926 32.5926 189.809 32.869 189.625 33.1029C189.441 33.3298 189.21 33.507 188.934 33.6346C188.665 33.7551 188.374 33.8153 188.062 33.8153ZM188.307 32.9009C188.611 32.9009 188.874 32.8229 189.093 32.667C189.313 32.5111 189.483 32.2913 189.604 32.0078C189.724 31.7242 189.784 31.384 189.784 30.9871C189.784 30.6185 189.724 30.303 189.604 30.0408C189.483 29.7714 189.313 29.5658 189.093 29.4241C188.881 29.2823 188.633 29.2114 188.349 29.2114C187.874 29.2114 187.506 29.3745 187.243 29.7005C186.981 30.0266 186.85 30.4767 186.85 31.0509C186.85 31.625 186.977 32.0787 187.233 32.4118C187.488 32.7379 187.846 32.9009 188.307 32.9009ZM195.026 33.8153C194.494 33.8153 194.026 33.7054 193.622 33.4857C193.218 33.266 192.903 32.9505 192.676 32.5394C192.456 32.1212 192.346 31.625 192.346 31.0509C192.346 30.4767 192.456 29.9841 192.676 29.5729C192.903 29.1547 193.215 28.8357 193.612 28.616C194.009 28.3963 194.459 28.2864 194.962 28.2864C195.479 28.2864 195.919 28.3927 196.28 28.6054C196.642 28.818 196.918 29.1086 197.11 29.4772C197.301 29.8458 197.397 30.264 197.397 30.7319C197.397 30.8595 197.393 30.98 197.386 31.0934C197.379 31.2068 197.368 31.306 197.354 31.3911H193.08V30.5192H196.855L196.291 30.6893C196.291 30.2073 196.171 29.8387 195.93 29.5836C195.689 29.3213 195.359 29.1902 194.941 29.1902C194.636 29.1902 194.37 29.261 194.143 29.4028C193.916 29.5446 193.743 29.7572 193.622 30.0408C193.502 30.3172 193.442 30.6575 193.442 31.0615C193.442 31.4584 193.505 31.7951 193.633 32.0716C193.761 32.348 193.941 32.5571 194.175 32.6989C194.409 32.8407 194.686 32.9115 195.005 32.9115C195.359 32.9115 195.646 32.8442 195.866 32.7095C196.086 32.5748 196.259 32.387 196.387 32.146L197.291 32.5713C197.163 32.8265 196.989 33.0498 196.77 33.2412C196.557 33.4255 196.302 33.5672 196.004 33.6665C195.706 33.7657 195.38 33.8153 195.026 33.8153ZM199.408 32.2736C199.649 32.2736 199.84 32.3445 199.982 32.4862C200.131 32.6209 200.205 32.8052 200.205 33.0391C200.205 33.2731 200.131 33.4609 199.982 33.6027C199.84 33.7444 199.649 33.8153 199.408 33.8153C199.16 33.8153 198.961 33.7444 198.812 33.6027C198.671 33.4609 198.6 33.2731 198.6 33.0391C198.6 32.8052 198.671 32.6209 198.812 32.4862C198.961 32.3445 199.16 32.2736 199.408 32.2736ZM202.429 27.4996C202.181 27.4996 201.99 27.4393 201.855 27.3188C201.728 27.1912 201.664 27.014 201.664 26.7872C201.664 26.5604 201.728 26.3867 201.855 26.2662C201.99 26.1457 202.181 26.0855 202.429 26.0855C202.67 26.0855 202.855 26.1457 202.982 26.2662C203.117 26.3867 203.184 26.5604 203.184 26.7872C203.184 27.014 203.117 27.1912 202.982 27.3188C202.855 27.4393 202.67 27.4996 202.429 27.4996ZM202.993 28.3927V34.1768C202.993 34.6305 202.908 34.9884 202.738 35.2507C202.575 35.5201 202.358 35.7114 202.089 35.8249C201.827 35.9383 201.547 35.995 201.249 35.995C201.008 35.995 200.788 35.9631 200.59 35.8993C200.391 35.8355 200.225 35.7504 200.09 35.6441L200.282 34.7297C200.381 34.8148 200.501 34.8857 200.643 34.9424C200.778 34.9991 200.93 35.0274 201.1 35.0274C201.327 35.0274 201.508 34.953 201.642 34.8041C201.784 34.6624 201.855 34.4178 201.855 34.0705V28.3927H202.993ZM206.793 33.8153C206.261 33.8153 205.776 33.7125 205.336 33.507C204.897 33.3014 204.55 33.0108 204.294 32.6351L205.081 31.9546C205.237 32.2452 205.46 32.4792 205.751 32.6564C206.049 32.8265 206.403 32.9115 206.814 32.9115C207.14 32.9115 207.399 32.8548 207.59 32.7414C207.782 32.628 207.878 32.4685 207.878 32.263C207.878 32.1283 207.831 32.0113 207.739 31.9121C207.654 31.8058 207.488 31.7242 207.24 31.6675L206.123 31.4336C205.556 31.3202 205.152 31.1395 204.911 30.8914C204.67 30.6362 204.55 30.3137 204.55 29.9238C204.55 29.6332 204.635 29.3638 204.805 29.1157C204.975 28.8676 205.223 28.6692 205.549 28.5203C205.882 28.3644 206.279 28.2864 206.74 28.2864C207.271 28.2864 207.725 28.3821 208.101 28.5735C208.476 28.7578 208.764 29.0236 208.962 29.3709L208.175 30.0301C208.041 29.7466 207.842 29.5375 207.58 29.4028C207.318 29.261 207.045 29.1902 206.761 29.1902C206.534 29.1902 206.339 29.2185 206.176 29.2752C206.013 29.3319 205.889 29.4099 205.804 29.5091C205.719 29.6084 205.677 29.7253 205.677 29.86C205.677 30.0018 205.73 30.1258 205.836 30.2321C205.942 30.3385 206.134 30.42 206.41 30.4767L207.622 30.7319C208.133 30.8311 208.491 31.0012 208.696 31.2422C208.909 31.4762 209.015 31.7632 209.015 32.1035C209.015 32.4437 208.927 32.745 208.749 33.0072C208.572 33.2624 208.317 33.4609 207.984 33.6027C207.651 33.7444 207.254 33.8153 206.793 33.8153Z" fill="#FDFFFC"/>
<circle cx="241.447" cy="78.4146" r="3.9872" fill="#FFC85B" stroke="#FDFFFC" stroke-width="0.886044"/>
<path d="M196.319 87.8282V88.8064H193.916V94.8457H192.778V88.8064H190.375V87.8282H196.319ZM201.39 89.5294L199.062 95.473C198.906 95.8841 198.735 96.2102 198.551 96.4512C198.374 96.6922 198.168 96.8659 197.935 96.9722C197.701 97.0785 197.428 97.1317 197.116 97.1317C196.861 97.1317 196.623 97.0963 196.403 97.0254C196.191 96.9616 196.003 96.873 195.84 96.7596L196.116 95.8771C196.251 95.9905 196.393 96.0755 196.542 96.1322C196.698 96.1889 196.864 96.2173 197.041 96.2173C197.233 96.2173 197.403 96.1641 197.552 96.0578C197.708 95.9586 197.846 95.7566 197.966 95.4518L198.2 94.8776L197.637 93.5592L195.978 89.5294H197.254L198.434 92.8681L198.743 93.8675L199.093 92.7724L200.21 89.5294H201.39ZM202.361 97.0785V89.5294H203.371L203.456 91.018L203.307 90.8372C203.392 90.5608 203.523 90.3162 203.7 90.1036C203.877 89.8909 204.097 89.7244 204.359 89.6039C204.629 89.4834 204.923 89.4231 205.242 89.4231C205.674 89.4231 206.068 89.533 206.422 89.7527C206.777 89.9725 207.057 90.2879 207.262 90.699C207.468 91.1031 207.57 91.5957 207.57 92.1769C207.57 92.7582 207.464 93.2579 207.252 93.6761C207.046 94.0872 206.762 94.4027 206.401 94.6224C206.046 94.8422 205.65 94.952 205.21 94.952C204.756 94.952 204.37 94.8351 204.051 94.6012C203.732 94.3602 203.505 94.0554 203.371 93.6868L203.498 93.506V97.0785H202.361ZM204.966 94.027C205.426 94.027 205.784 93.864 206.039 93.5379C206.302 93.2118 206.433 92.7617 206.433 92.1876C206.433 91.6134 206.305 91.1633 206.05 90.8372C205.795 90.5041 205.44 90.3375 204.987 90.3375C204.689 90.3375 204.427 90.4155 204.2 90.5714C203.98 90.7203 203.807 90.9329 203.679 91.2094C203.558 91.4787 203.498 91.8048 203.498 92.1876C203.498 92.5633 203.558 92.8893 203.679 93.1658C203.799 93.4422 203.97 93.6549 204.189 93.8037C204.409 93.9526 204.668 94.027 204.966 94.027ZM211.366 94.952C210.834 94.952 210.366 94.8422 209.962 94.6224C209.558 94.4027 209.243 94.0872 209.016 93.6761C208.796 93.2579 208.686 92.7617 208.686 92.1876C208.686 91.6134 208.796 91.1208 209.016 90.7097C209.243 90.2914 209.555 89.9725 209.952 89.7527C210.349 89.533 210.799 89.4231 211.302 89.4231C211.819 89.4231 212.259 89.5294 212.62 89.7421C212.982 89.9547 213.258 90.2454 213.45 90.614C213.641 90.9826 213.737 91.4008 213.737 91.8686C213.737 91.9962 213.733 92.1167 213.726 92.2301C213.719 92.3435 213.708 92.4428 213.694 92.5278H209.42V91.6559H213.195L212.631 91.8261C212.631 91.3441 212.511 90.9755 212.27 90.7203C212.029 90.458 211.699 90.3269 211.281 90.3269C210.976 90.3269 210.71 90.3978 210.483 90.5395C210.256 90.6813 210.083 90.8939 209.962 91.1775C209.842 91.4539 209.782 91.7942 209.782 92.1982C209.782 92.5952 209.845 92.9318 209.973 93.2083C210.101 93.4847 210.281 93.6938 210.515 93.8356C210.749 93.9774 211.026 94.0483 211.345 94.0483C211.699 94.0483 211.986 93.9809 212.206 93.8462C212.426 93.7116 212.599 93.5237 212.727 93.2827L213.631 93.708C213.503 93.9632 213.329 94.1865 213.11 94.3779C212.897 94.5622 212.642 94.7039 212.344 94.8032C212.046 94.9024 211.72 94.952 211.366 94.952ZM217.684 87.7219C218.315 87.7219 218.861 87.8424 219.321 88.0834C219.782 88.3173 220.172 88.6647 220.491 89.1254L219.725 89.859C219.456 89.4479 219.151 89.1538 218.811 88.9766C218.478 88.7923 218.081 88.7001 217.62 88.7001C217.28 88.7001 217 88.7462 216.78 88.8383C216.56 88.9305 216.397 89.0545 216.291 89.2105C216.192 89.3593 216.142 89.5294 216.142 89.7208C216.142 89.9406 216.217 90.132 216.365 90.295C216.521 90.458 216.808 90.5856 217.227 90.6778L218.651 90.9967C219.332 91.1456 219.814 91.3724 220.097 91.6772C220.381 91.982 220.523 92.3683 220.523 92.8362C220.523 93.2685 220.406 93.6442 220.172 93.9632C219.938 94.2822 219.612 94.5267 219.194 94.6968C218.783 94.867 218.297 94.952 217.737 94.952C217.241 94.952 216.794 94.8882 216.397 94.7606C216 94.6331 215.653 94.4594 215.355 94.2396C215.058 94.0199 214.813 93.7683 214.622 93.4847L215.408 92.6979C215.557 92.946 215.745 93.1693 215.972 93.3678C216.199 93.5592 216.461 93.708 216.759 93.8143C217.064 93.9207 217.4 93.9738 217.769 93.9738C218.095 93.9738 218.375 93.9349 218.609 93.8569C218.85 93.7789 219.031 93.6655 219.151 93.5166C219.279 93.3607 219.343 93.1764 219.343 92.9637C219.343 92.7582 219.272 92.5774 219.13 92.4215C218.995 92.2655 218.74 92.145 218.364 92.06L216.823 91.7091C216.397 91.617 216.046 91.4858 215.77 91.3157C215.494 91.1456 215.288 90.94 215.153 90.699C215.019 90.4509 214.951 90.1745 214.951 89.8697C214.951 89.4727 215.058 89.1148 215.27 88.7958C215.49 88.4697 215.805 88.211 216.217 88.0196C216.628 87.8211 217.117 87.7219 217.684 87.7219ZM224.251 89.4231C224.676 89.4231 225.037 89.4869 225.335 89.6145C225.64 89.735 225.895 89.9087 226.101 90.1355C226.306 90.3623 226.462 90.621 226.568 90.9117L225.495 91.337C225.402 91.0109 225.254 90.7628 225.048 90.5927C224.849 90.4155 224.587 90.3269 224.261 90.3269C223.942 90.3269 223.669 90.4013 223.442 90.5502C223.216 90.6919 223.042 90.901 222.921 91.1775C222.808 91.4539 222.751 91.7942 222.751 92.1982C222.751 92.5952 222.812 92.9318 222.932 93.2083C223.053 93.4847 223.226 93.6938 223.453 93.8356C223.68 93.9774 223.949 94.0483 224.261 94.0483C224.502 94.0483 224.711 94.0093 224.888 93.9313C225.066 93.8462 225.211 93.7293 225.324 93.5804C225.445 93.4245 225.526 93.2366 225.569 93.0169L226.6 93.3678C226.501 93.6868 226.345 93.9667 226.132 94.2078C225.927 94.4417 225.668 94.626 225.356 94.7606C225.044 94.8882 224.686 94.952 224.282 94.952C223.758 94.952 223.294 94.8422 222.89 94.6224C222.486 94.4027 222.17 94.0872 221.943 93.6761C221.724 93.2579 221.614 92.7617 221.614 92.1876C221.614 91.6134 221.724 91.1208 221.943 90.7097C222.17 90.2914 222.482 89.9725 222.879 89.7527C223.283 89.533 223.74 89.4231 224.251 89.4231ZM227.924 94.8457V89.5294H228.892L228.998 90.4864C229.14 90.139 229.349 89.8768 229.625 89.6996C229.909 89.5153 230.256 89.4231 230.667 89.4231C230.774 89.4231 230.88 89.4337 230.986 89.455C231.093 89.4692 231.181 89.494 231.252 89.5294L231.093 90.5289C231.015 90.5005 230.926 90.4793 230.827 90.4651C230.735 90.4438 230.607 90.4332 230.444 90.4332C230.224 90.4332 230.008 90.4935 229.796 90.614C229.583 90.7274 229.406 90.901 229.264 91.135C229.129 91.3689 229.062 91.6666 229.062 92.0281V94.8457H227.924ZM232.901 88.6363C232.653 88.6363 232.461 88.5761 232.327 88.4556C232.199 88.328 232.135 88.1508 232.135 87.9239C232.135 87.6971 232.199 87.5234 232.327 87.4029C232.461 87.2824 232.653 87.2222 232.901 87.2222C233.142 87.2222 233.326 87.2824 233.454 87.4029C233.589 87.5234 233.656 87.6971 233.656 87.9239C233.656 88.1508 233.589 88.328 233.454 88.4556C233.326 88.5761 233.142 88.6363 232.901 88.6363ZM233.465 89.5294V94.8457H232.327V89.5294H233.465ZM235.245 97.0785V89.5294H236.255L236.34 91.018L236.191 90.8372C236.276 90.5608 236.407 90.3162 236.584 90.1036C236.761 89.8909 236.981 89.7244 237.243 89.6039C237.513 89.4834 237.807 89.4231 238.126 89.4231C238.558 89.4231 238.952 89.533 239.306 89.7527C239.661 89.9725 239.941 90.2879 240.146 90.699C240.352 91.1031 240.454 91.5957 240.454 92.1769C240.454 92.7582 240.348 93.2579 240.135 93.6761C239.93 94.0872 239.646 94.4027 239.285 94.6224C238.93 94.8422 238.534 94.952 238.094 94.952C237.64 94.952 237.254 94.8351 236.935 94.6012C236.616 94.3602 236.389 94.0554 236.255 93.6868L236.382 93.506V97.0785H235.245ZM237.85 94.027C238.31 94.027 238.668 93.864 238.923 93.5379C239.186 93.2118 239.317 92.7617 239.317 92.1876C239.317 91.6134 239.189 91.1633 238.934 90.8372C238.679 90.5041 238.324 90.3375 237.871 90.3375C237.573 90.3375 237.311 90.4155 237.084 90.5714C236.864 90.7203 236.691 90.9329 236.563 91.2094C236.442 91.4787 236.382 91.8048 236.382 92.1876C236.382 92.5633 236.442 92.8893 236.563 93.1658C236.683 93.4422 236.854 93.6549 237.073 93.8037C237.293 93.9526 237.552 94.027 237.85 94.027ZM243.39 87.9665V93.2508C243.39 93.5131 243.458 93.7045 243.592 93.825C243.734 93.9455 243.922 94.0057 244.156 94.0057C244.347 94.0057 244.514 93.9774 244.656 93.9207C244.797 93.8569 244.928 93.7718 245.049 93.6655L245.304 94.4948C245.141 94.6366 244.939 94.75 244.698 94.8351C244.464 94.913 244.202 94.952 243.911 94.952C243.606 94.952 243.326 94.9024 243.071 94.8032C242.816 94.7039 242.618 94.5444 242.476 94.3247C242.334 94.0979 242.26 93.8037 242.253 93.4422V88.2854L243.39 87.9665ZM245.219 89.5294V90.4226H241.232V89.5294H245.219ZM246.929 93.4103C247.127 93.4103 247.29 93.4599 247.418 93.5592C247.552 93.6513 247.655 93.7825 247.726 93.9526C247.797 94.1156 247.832 94.3034 247.832 94.5161C247.832 94.7784 247.783 95.03 247.684 95.271C247.584 95.5191 247.439 95.7424 247.248 95.9409C247.063 96.1464 246.84 96.313 246.578 96.4406L246.046 95.9834C246.237 95.9125 246.408 95.8204 246.556 95.7069C246.705 95.5935 246.829 95.4659 246.929 95.3242C247.035 95.1824 247.109 95.0371 247.152 94.8882L247.109 94.867C247.074 94.8882 247.031 94.906 246.982 94.9201C246.939 94.9343 246.875 94.9414 246.79 94.9414C246.691 94.9414 246.588 94.913 246.482 94.8563C246.383 94.8067 246.298 94.7287 246.227 94.6224C246.156 94.5161 246.121 94.3779 246.121 94.2078C246.121 94.0518 246.156 93.9136 246.227 93.7931C246.305 93.6726 246.404 93.5804 246.525 93.5166C246.645 93.4458 246.78 93.4103 246.929 93.4103ZM255.75 87.8282C256.501 87.8282 257.096 88.0161 257.536 88.3918C257.983 88.7674 258.206 89.2743 258.206 89.9122C258.206 90.5714 257.983 91.0818 257.536 91.4433C257.096 91.7977 256.501 91.9749 255.75 91.9749L255.643 92.0387H254.017V94.8457H252.89V87.8282H255.75ZM255.665 91.0924C256.125 91.0924 256.466 91.0003 256.685 90.816C256.912 90.6246 257.026 90.334 257.026 89.9441C257.026 89.5613 256.912 89.2743 256.685 89.0829C256.466 88.8915 256.125 88.7958 255.665 88.7958H254.017V91.0924H255.665ZM256.334 91.3263L258.62 94.8457H257.313L255.356 91.7729L256.334 91.3263ZM262.068 94.952C261.536 94.952 261.068 94.8422 260.664 94.6224C260.26 94.4027 259.945 94.0872 259.718 93.6761C259.498 93.2579 259.388 92.7617 259.388 92.1876C259.388 91.6134 259.498 91.1208 259.718 90.7097C259.945 90.2914 260.256 89.9725 260.653 89.7527C261.05 89.533 261.5 89.4231 262.004 89.4231C262.521 89.4231 262.961 89.5294 263.322 89.7421C263.684 89.9547 263.96 90.2454 264.152 90.614C264.343 90.9826 264.439 91.4008 264.439 91.8686C264.439 91.9962 264.435 92.1167 264.428 92.2301C264.421 92.3435 264.41 92.4428 264.396 92.5278H260.122V91.6559H263.896L263.333 91.8261C263.333 91.3441 263.212 90.9755 262.971 90.7203C262.73 90.458 262.401 90.3269 261.983 90.3269C261.678 90.3269 261.412 90.3978 261.185 90.5395C260.958 90.6813 260.785 90.8939 260.664 91.1775C260.544 91.4539 260.483 91.7942 260.483 92.1982C260.483 92.5952 260.547 92.9318 260.675 93.2083C260.802 93.4847 260.983 93.6938 261.217 93.8356C261.451 93.9774 261.727 94.0483 262.046 94.0483C262.401 94.0483 262.688 93.9809 262.908 93.8462C263.127 93.7116 263.301 93.5237 263.429 93.2827L264.332 93.708C264.205 93.9632 264.031 94.1865 263.811 94.3779C263.599 94.5622 263.343 94.7039 263.046 94.8032C262.748 94.9024 262.422 94.952 262.068 94.952ZM268.948 91.4327C268.948 91.0782 268.849 90.8053 268.65 90.614C268.459 90.4155 268.193 90.3162 267.853 90.3162C267.534 90.3162 267.261 90.3907 267.034 90.5395C266.807 90.6884 266.641 90.9294 266.535 91.2625L265.578 90.8585C265.712 90.4261 265.975 90.0788 266.364 89.8165C266.761 89.5543 267.272 89.4231 267.896 89.4231C268.321 89.4231 268.696 89.494 269.023 89.6358C269.349 89.7704 269.604 89.976 269.788 90.2525C269.979 90.5289 270.075 90.8833 270.075 91.3157V93.6868C270.075 93.949 270.206 94.0802 270.469 94.0802C270.596 94.0802 270.72 94.0624 270.841 94.027L270.777 94.8138C270.614 94.8918 270.408 94.9308 270.16 94.9308C269.933 94.9308 269.728 94.8918 269.544 94.8138C269.366 94.7287 269.225 94.6047 269.118 94.4417C269.019 94.2715 268.969 94.0624 268.969 93.8143V93.7399L269.203 93.7293C269.14 94.0057 269.008 94.2361 268.81 94.4204C268.611 94.5976 268.381 94.7323 268.119 94.8244C267.857 94.9095 267.591 94.952 267.321 94.952C266.988 94.952 266.687 94.8989 266.418 94.7925C266.155 94.6862 265.946 94.5267 265.79 94.3141C265.641 94.0943 265.567 93.825 265.567 93.506C265.567 93.1091 265.695 92.783 265.95 92.5278C266.212 92.2726 266.581 92.099 267.056 92.0068L269.118 91.6028L269.108 92.4002L267.608 92.7086C267.311 92.7653 267.087 92.8468 266.939 92.9531C266.79 93.0594 266.715 93.2154 266.715 93.4209C266.715 93.6194 266.79 93.7789 266.939 93.8994C267.095 94.0128 267.3 94.0695 267.555 94.0695C267.732 94.0695 267.903 94.0483 268.066 94.0057C268.236 93.9632 268.388 93.8959 268.523 93.8037C268.658 93.7045 268.76 93.5804 268.831 93.4316C268.909 93.2756 268.948 93.0913 268.948 92.8787V91.4327ZM274.225 89.4231C274.651 89.4231 275.012 89.4869 275.31 89.6145C275.615 89.735 275.87 89.9087 276.076 90.1355C276.281 90.3623 276.437 90.621 276.543 90.9117L275.469 91.337C275.377 91.0109 275.228 90.7628 275.023 90.5927C274.824 90.4155 274.562 90.3269 274.236 90.3269C273.917 90.3269 273.644 90.4013 273.417 90.5502C273.191 90.6919 273.017 90.901 272.896 91.1775C272.783 91.4539 272.726 91.7942 272.726 92.1982C272.726 92.5952 272.787 92.9318 272.907 93.2083C273.028 93.4847 273.201 93.6938 273.428 93.8356C273.655 93.9774 273.924 94.0483 274.236 94.0483C274.477 94.0483 274.686 94.0093 274.863 93.9313C275.041 93.8462 275.186 93.7293 275.299 93.5804C275.42 93.4245 275.501 93.2366 275.544 93.0169L276.575 93.3678C276.476 93.6868 276.32 93.9667 276.107 94.2078C275.902 94.4417 275.643 94.626 275.331 94.7606C275.019 94.8882 274.661 94.952 274.257 94.952C273.733 94.952 273.269 94.8422 272.864 94.6224C272.46 94.4027 272.145 94.0872 271.918 93.6761C271.698 93.2579 271.589 92.7617 271.589 92.1876C271.589 91.6134 271.698 91.1208 271.918 90.7097C272.145 90.2914 272.457 89.9725 272.854 89.7527C273.258 89.533 273.715 89.4231 274.225 89.4231ZM279.452 87.9665V93.2508C279.452 93.5131 279.519 93.7045 279.654 93.825C279.795 93.9455 279.983 94.0057 280.217 94.0057C280.408 94.0057 280.575 93.9774 280.717 93.9207C280.859 93.8569 280.99 93.7718 281.11 93.6655L281.365 94.4948C281.202 94.6366 281 94.75 280.759 94.8351C280.525 94.913 280.263 94.952 279.973 94.952C279.668 94.952 279.388 94.9024 279.133 94.8032C278.877 94.7039 278.679 94.5444 278.537 94.3247C278.395 94.0979 278.321 93.8037 278.314 93.4422V88.2854L279.452 87.9665ZM281.28 89.5294V90.4226H277.293V89.5294H281.28ZM283.001 93.4103C283.242 93.4103 283.433 93.4812 283.575 93.623C283.724 93.7576 283.798 93.9419 283.798 94.1759C283.798 94.4098 283.724 94.5976 283.575 94.7394C283.433 94.8811 283.242 94.952 283.001 94.952C282.752 94.952 282.554 94.8811 282.405 94.7394C282.263 94.5976 282.192 94.4098 282.192 94.1759C282.192 93.9419 282.263 93.7576 282.405 93.623C282.554 93.4812 282.752 93.4103 283.001 93.4103ZM286.022 88.6363C285.774 88.6363 285.583 88.5761 285.448 88.4556C285.32 88.328 285.257 88.1508 285.257 87.9239C285.257 87.6971 285.32 87.5234 285.448 87.4029C285.583 87.2824 285.774 87.2222 286.022 87.2222C286.263 87.2222 286.447 87.2824 286.575 87.4029C286.71 87.5234 286.777 87.6971 286.777 87.9239C286.777 88.1508 286.71 88.328 286.575 88.4556C286.447 88.5761 286.263 88.6363 286.022 88.6363ZM286.586 89.5294V95.3135C286.586 95.7672 286.501 96.1252 286.33 96.3874C286.167 96.6568 285.951 96.8482 285.682 96.9616C285.42 97.075 285.14 97.1317 284.842 97.1317C284.601 97.1317 284.381 97.0998 284.183 97.036C283.984 96.9722 283.818 96.8871 283.683 96.7808L283.874 95.8664C283.974 95.9515 284.094 96.0224 284.236 96.0791C284.37 96.1358 284.523 96.1641 284.693 96.1641C284.92 96.1641 285.101 96.0897 285.235 95.9409C285.377 95.7991 285.448 95.5545 285.448 95.2072V89.5294H286.586ZM290.386 94.952C289.854 94.952 289.369 94.8492 288.929 94.6437C288.49 94.4381 288.142 94.1475 287.887 93.7718L288.674 93.0913C288.83 93.382 289.053 93.6159 289.344 93.7931C289.642 93.9632 289.996 94.0483 290.407 94.0483C290.733 94.0483 290.992 93.9916 291.183 93.8781C291.375 93.7647 291.47 93.6052 291.47 93.3997C291.47 93.265 291.424 93.148 291.332 93.0488C291.247 92.9425 291.08 92.861 290.832 92.8043L289.716 92.5703C289.149 92.4569 288.745 92.2762 288.504 92.0281C288.263 91.7729 288.142 91.4504 288.142 91.0605C288.142 90.7699 288.227 90.5005 288.398 90.2525C288.568 90.0044 288.816 89.8059 289.142 89.657C289.475 89.5011 289.872 89.4231 290.333 89.4231C290.864 89.4231 291.318 89.5188 291.694 89.7102C292.069 89.8945 292.356 90.1603 292.555 90.5076L291.768 91.1669C291.633 90.8833 291.435 90.6742 291.173 90.5395C290.91 90.3978 290.637 90.3269 290.354 90.3269C290.127 90.3269 289.932 90.3552 289.769 90.4119C289.606 90.4686 289.482 90.5466 289.397 90.6459C289.312 90.7451 289.269 90.8621 289.269 90.9967C289.269 91.1385 289.323 91.2625 289.429 91.3689C289.535 91.4752 289.727 91.5567 290.003 91.6134L291.215 91.8686C291.725 91.9678 292.083 92.138 292.289 92.379C292.502 92.6129 292.608 92.9 292.608 93.2402C292.608 93.5804 292.519 93.8817 292.342 94.144C292.165 94.3991 291.91 94.5976 291.577 94.7394C291.243 94.8811 290.847 94.952 290.386 94.952Z" fill="#FDFFFC"/>
<circle cx="282.205" cy="69.5552" r="3.9872" fill="#FFC85B" stroke="#FDFFFC" stroke-width="0.886044"/>
<path d="M226.658 39.9254C227.242 40.1637 227.702 40.4814 228.037 40.8786C228.376 41.2692 228.605 41.7381 228.727 42.2852L227.741 42.6753C227.647 42.1929 227.476 41.8054 227.227 41.5128C226.989 41.2163 226.656 40.9811 226.229 40.8071C225.914 40.6786 225.638 40.6155 225.399 40.6178C225.161 40.6201 224.963 40.6734 224.806 40.7776C224.658 40.878 224.548 41.0168 224.475 41.194C224.392 41.3974 224.389 41.6028 224.465 41.8099C224.548 42.0198 224.766 42.2464 225.118 42.4897L226.317 43.3231C226.891 43.718 227.251 44.1101 227.399 44.4994C227.546 44.8887 227.531 45.2999 227.355 45.7331C227.191 46.1335 226.941 46.4371 226.604 46.6441C226.267 46.8511 225.873 46.9544 225.421 46.954C224.976 46.9562 224.495 46.8516 223.976 46.6401C223.517 46.4527 223.127 46.2249 222.808 45.9569C222.489 45.6888 222.233 45.3968 222.04 45.0809C221.847 44.765 221.716 44.4396 221.646 44.1048L222.672 43.6735C222.716 43.9594 222.805 44.2371 222.94 44.5066C223.078 44.7694 223.265 45.0063 223.5 45.2172C223.742 45.4308 224.034 45.6072 224.375 45.7464C224.677 45.8696 224.951 45.9392 225.197 45.9554C225.45 45.9742 225.66 45.9374 225.828 45.8451C226.005 45.7489 226.133 45.6024 226.214 45.4055C226.291 45.2151 226.294 45.021 226.222 44.8231C226.156 44.6278 225.965 44.4198 225.649 44.1992L224.354 43.292C223.995 43.046 223.72 42.7921 223.528 42.5302C223.337 42.2682 223.224 42.0003 223.19 41.7262C223.159 41.4457 223.201 41.1643 223.316 40.882C223.466 40.5145 223.7 40.2232 224.017 40.0082C224.344 39.7893 224.734 39.6688 225.187 39.6469C225.642 39.6184 226.133 39.7113 226.658 39.9254ZM227.039 50.1861L229.89 43.1962L230.826 43.5777L230.342 44.9881L230.273 44.7645C230.456 44.5407 230.67 44.3638 230.914 44.2338C231.158 44.1038 231.425 44.0326 231.713 44.0201C232.008 44.0102 232.303 44.0656 232.599 44.186C232.999 44.3493 233.322 44.5997 233.567 44.937C233.812 45.2743 233.952 45.6721 233.987 46.1304C234.025 46.5822 233.934 47.0772 233.714 47.6154C233.495 48.1535 233.208 48.5761 232.853 48.883C232.507 49.186 232.126 49.371 231.708 49.4379C231.297 49.5075 230.888 49.4594 230.481 49.2934C230.061 49.122 229.747 48.8678 229.54 48.5307C229.336 48.1871 229.241 47.8192 229.255 47.4271L229.442 47.3079L228.092 50.6158L227.039 50.1861ZM230.604 48.3445C231.03 48.5185 231.423 48.5028 231.783 48.2972C232.149 48.0944 232.44 47.7271 232.657 47.1955C232.874 46.6639 232.926 46.1989 232.813 45.8006C232.702 45.3958 232.437 45.1077 232.017 44.9363C231.741 44.8239 231.469 44.797 231.2 44.8557C230.94 44.9106 230.699 45.0419 230.477 45.2497C230.263 45.4535 230.084 45.7327 229.94 46.0871C229.798 46.435 229.731 46.7596 229.738 47.0611C229.745 47.3626 229.822 47.6238 229.969 47.8446C230.117 48.0654 230.328 48.232 230.604 48.3445ZM234.055 50.6364L236.063 45.7139L236.959 46.0794L236.696 47.0056C236.958 46.7375 237.251 46.5737 237.574 46.514C237.906 46.4505 238.262 46.4963 238.643 46.6516C238.741 46.6918 238.836 46.7418 238.926 46.8016C239.019 46.8549 239.092 46.9113 239.144 46.9709L238.619 47.8361C238.558 47.7804 238.483 47.7273 238.397 47.6766C238.32 47.6221 238.206 47.5641 238.055 47.5025C237.851 47.4195 237.628 47.3937 237.386 47.4249C237.146 47.4496 236.916 47.5435 236.697 47.7065C236.484 47.8723 236.309 48.1225 236.172 48.4572L235.108 51.0661L234.055 50.6364ZM241.008 46.7667C240.778 46.673 240.624 46.5449 240.545 46.3824C240.475 46.2161 240.483 46.0279 240.568 45.8179C240.654 45.6079 240.779 45.4712 240.942 45.4078C241.113 45.3471 241.312 45.3636 241.542 45.4573C241.765 45.5483 241.913 45.6737 241.986 45.8335C242.065 45.9959 242.062 46.1821 241.976 46.3922C241.89 46.6022 241.761 46.7408 241.588 46.8081C241.425 46.8715 241.231 46.8577 241.008 46.7667ZM241.193 47.8065L239.185 52.729L238.131 52.2993L240.139 47.3768L241.193 47.8065ZM240.833 53.4013L242.841 48.4788L243.776 48.8603L243.323 50.1683L243.241 49.9742C243.448 49.7295 243.675 49.55 243.92 49.4358C244.175 49.3178 244.438 49.2643 244.709 49.2754C244.987 49.2891 245.26 49.3508 245.529 49.4606C245.877 49.6025 246.161 49.7986 246.38 50.0489C246.609 50.2953 246.75 50.5865 246.805 50.9225C246.859 51.2585 246.802 51.6333 246.633 52.0468L245.332 55.2365L244.279 54.8068L245.447 51.9419C245.645 51.4563 245.68 51.08 245.552 50.8133C245.432 50.5426 245.222 50.3457 244.92 50.2226C244.703 50.1342 244.472 50.101 244.225 50.1231C243.982 50.1385 243.746 50.2297 243.517 50.3966C243.294 50.5662 243.107 50.8381 242.954 51.2122L241.886 53.831L240.833 53.4013ZM253.69 51.6985L253.52 52.5937C253.5 52.5857 253.48 52.5776 253.461 52.5696C253.444 52.555 253.425 52.5437 253.405 52.5357C253.09 52.4072 252.823 52.3784 252.602 52.4493C252.385 52.5136 252.224 52.6737 252.119 52.9297L251.704 52.4846C251.811 52.2221 251.962 52.0118 252.156 51.8539C252.354 51.6894 252.578 51.5895 252.83 51.5544C253.088 51.5219 253.348 51.5592 253.611 51.6663C253.624 51.6717 253.637 51.677 253.65 51.6824C253.663 51.6878 253.676 51.6931 253.69 51.6985ZM250.018 56.2522C250.517 56.4557 250.858 56.7252 251.043 57.0608C251.23 57.3899 251.245 57.748 251.087 58.1352C250.948 58.4765 250.72 58.7244 250.405 58.8789C250.086 59.04 249.713 59.1098 249.286 59.0885C248.865 59.0698 248.414 58.9628 247.935 58.7674C247.128 58.4381 246.582 58.0697 246.296 57.6624C246.011 57.255 245.944 56.8643 246.097 56.4901C246.204 56.2276 246.389 56.0354 246.654 55.9134C246.924 55.7942 247.288 55.8125 247.745 55.9683L247.622 56.1017C247.37 55.9302 247.19 55.7341 247.081 55.5136C246.981 55.2891 246.989 55.0358 247.104 54.7536C247.219 54.4713 247.425 54.2759 247.722 54.1674C248.019 54.0588 248.371 54.0685 248.778 54.1963L249.221 54.687L249.103 54.6388C248.79 54.5419 248.549 54.5238 248.378 54.5845C248.208 54.6452 248.095 54.7445 248.039 54.8823C247.972 55.0464 247.981 55.1919 248.067 55.3189C248.16 55.4485 248.318 55.5588 248.541 55.6499L250.018 56.2522ZM248.257 57.9798C248.618 58.127 248.928 58.2114 249.187 58.2329C249.45 58.2636 249.66 58.246 249.817 58.1799C249.978 58.1231 250.085 58.0291 250.139 57.8978C250.2 57.7468 250.188 57.6 250.1 57.4572C250.02 57.3171 249.822 57.1829 249.507 57.0543L247.922 56.4078C247.738 56.3328 247.565 56.3159 247.403 56.3569C247.238 56.4045 247.122 56.5103 247.055 56.6744C246.967 56.891 247.028 57.1151 247.24 57.3469C247.452 57.5787 247.791 57.7897 248.257 57.9798ZM250.807 51.6137C251.241 51.7904 251.587 52.0119 251.845 52.2783C252.111 52.5473 252.278 52.8413 252.347 53.1603C252.422 53.482 252.392 53.8102 252.255 54.1449C252.119 54.4797 251.911 54.7356 251.632 54.9127C251.36 55.0925 251.035 55.1857 250.657 55.1924C250.285 55.2017 249.883 55.118 249.45 54.9413C248.767 54.6629 248.304 54.2977 248.06 53.8459C247.824 53.3902 247.809 52.9129 248.012 52.4141C248.149 52.0793 248.356 51.8234 248.635 51.6463C248.914 51.4692 249.239 51.376 249.611 51.3666C249.988 51.36 250.387 51.4424 250.807 51.6137ZM250.506 52.3521C250.204 52.2289 249.917 52.2112 249.644 52.2988C249.38 52.3826 249.19 52.5656 249.075 52.8478C248.96 53.13 248.966 53.3966 249.094 53.6476C249.227 53.9012 249.445 54.0896 249.747 54.2128C250.056 54.3386 250.343 54.3563 250.61 54.266C250.883 54.1784 251.077 53.9934 251.192 53.7112C251.307 53.429 251.296 53.1643 251.16 52.9173C251.033 52.6663 250.815 52.4779 250.506 52.3521ZM258.045 60.5371C257.756 60.4193 257.513 60.255 257.315 60.0444C257.125 59.8365 256.987 59.6006 256.904 59.3367C256.823 59.0663 256.794 58.7904 256.817 58.5088L257.013 58.3937L256.372 59.7398L255.446 59.3624L258.358 52.2248L259.411 52.6545L258.002 56.11L257.952 55.8945C258.216 55.6041 258.543 55.4121 258.933 55.3187C259.326 55.2187 259.736 55.2557 260.162 55.4297C260.556 55.5904 260.876 55.8393 261.121 56.1767C261.373 56.5167 261.516 56.9158 261.551 57.3741C261.586 57.8325 261.493 58.334 261.27 58.8787C261.054 59.4104 260.769 59.8264 260.417 60.1267C260.071 60.4297 259.69 60.6147 259.272 60.6816C258.861 60.7512 258.452 60.7031 258.045 60.5371ZM258.164 59.598C258.59 59.772 258.983 59.7563 259.343 59.5508C259.711 59.3413 260.004 58.9708 260.221 58.4392C260.438 57.9076 260.49 57.4426 260.377 57.0443C260.263 56.646 259.994 56.3599 259.567 56.1858C259.291 56.0734 259.022 56.0479 258.76 56.1093C258.5 56.1641 258.259 56.2954 258.037 56.5032C257.821 56.7136 257.64 56.9961 257.496 57.3505C257.354 57.6984 257.286 58.023 257.294 58.3245C257.303 58.6194 257.382 58.8773 257.529 59.0981C257.683 59.3216 257.895 59.4883 258.164 59.598ZM265.803 57.7306C266.282 57.9261 266.664 58.2005 266.949 58.5539C267.233 58.9073 267.398 59.3191 267.444 59.7893C267.498 60.2557 267.417 60.7546 267.201 61.2863C266.984 61.8179 266.691 62.2345 266.323 62.5361C265.965 62.8337 265.56 63.0093 265.109 63.0629C264.659 63.1164 264.194 63.0455 263.715 62.85C263.236 62.6546 262.854 62.3802 262.569 62.0268C262.285 61.6734 262.115 61.2635 262.06 60.7972C262.008 60.3243 262.091 59.822 262.308 59.2904C262.524 58.7587 262.816 58.3454 263.181 58.0504C263.549 57.7489 263.958 57.5713 264.409 57.5178C264.859 57.4643 265.324 57.5352 265.803 57.7306ZM265.466 58.5576C265.17 58.4371 264.89 58.403 264.623 58.4551C264.366 58.5034 264.13 58.6328 263.914 58.8432C263.698 59.0537 263.514 59.346 263.361 59.7201C263.211 60.0876 263.138 60.4254 263.143 60.7335C263.15 61.0349 263.227 61.2961 263.374 61.5169C263.531 61.7339 263.757 61.9026 264.052 62.023C264.348 62.1435 264.624 62.1796 264.881 62.1314C265.14 62.0765 265.378 61.9439 265.594 61.7334C265.813 61.5164 265.997 61.2241 266.147 60.8566C266.3 60.4825 266.372 60.1447 266.365 59.8432C266.358 59.5417 266.28 59.2838 266.13 59.0696C265.982 58.8487 265.761 58.6781 265.466 58.5576ZM271.706 60.1386C272.185 60.334 272.567 60.6085 272.852 60.9619C273.136 61.3152 273.301 61.727 273.347 62.1973C273.402 62.6636 273.321 63.1626 273.104 63.6942C272.887 64.2259 272.594 64.6425 272.226 64.944C271.868 65.2417 271.463 65.4173 271.013 65.4708C270.562 65.5244 270.097 65.4534 269.618 65.258C269.139 65.0625 268.757 64.7881 268.473 64.4347C268.188 64.0814 268.018 63.6715 267.964 63.2051C267.912 62.7322 267.994 62.23 268.211 61.6983C268.428 61.1667 268.719 60.7534 269.084 60.4584C269.452 60.1568 269.861 59.9793 270.312 59.9258C270.762 59.8722 271.227 59.9432 271.706 60.1386ZM271.369 60.9656C271.074 60.8451 270.793 60.8109 270.527 60.8631C270.27 60.9114 270.033 61.0407 269.817 61.2512C269.601 61.4617 269.417 61.7539 269.264 62.128C269.114 62.4956 269.042 62.8334 269.046 63.1414C269.053 63.4429 269.13 63.7041 269.278 63.9249C269.434 64.1418 269.66 64.3105 269.955 64.431C270.251 64.5515 270.527 64.5876 270.784 64.5393C271.044 64.4845 271.281 64.3518 271.497 64.1414C271.716 63.9244 271.9 63.6321 272.05 63.2645C272.203 62.8904 272.276 62.5526 272.268 62.2512C272.261 61.9497 272.183 61.6918 272.033 61.4775C271.886 61.2567 271.664 61.0861 271.369 60.9656ZM277.393 60.8852L275.397 65.7782C275.298 66.021 275.288 66.2237 275.368 66.3861C275.453 66.5512 275.605 66.678 275.821 66.7663C275.998 66.8386 276.163 66.8753 276.316 66.8763C276.471 66.8708 276.625 66.8415 276.777 66.7886L276.7 67.6529C276.495 67.7226 276.265 67.7513 276.01 67.739C275.764 67.7229 275.506 67.6599 275.237 67.5501C274.955 67.435 274.715 67.2833 274.516 67.0951C274.317 66.9068 274.193 66.6842 274.145 66.4271C274.1 66.1636 274.142 65.8631 274.272 65.5257L276.219 60.7509L277.393 60.8852ZM278.496 63.0232L278.159 63.8501L274.467 62.3442L274.804 61.5172L278.496 63.0232Z" fill="#FDFFFC"/>
<path d="M286.493 39.0234V38.1941C287.167 37.7121 287.73 37.2868 288.184 36.9182C288.645 36.5496 289.013 36.2094 289.29 35.8975C289.566 35.5856 289.765 35.2914 289.885 35.015C290.013 34.7314 290.076 34.4444 290.076 34.1537C290.076 33.7781 289.96 33.4733 289.726 33.2393C289.492 33.0054 289.166 32.8885 288.747 32.8885C288.308 32.8885 287.957 33.0373 287.695 33.335C287.44 33.6257 287.294 34.0262 287.259 34.5365L286.27 34.0793C286.32 33.6327 286.451 33.2464 286.663 32.9204C286.876 32.5943 287.163 32.3427 287.525 32.1655C287.893 31.9883 288.319 31.8996 288.801 31.8996C289.198 31.8996 289.545 31.9564 289.843 32.0698C290.147 32.1832 290.403 32.3427 290.608 32.5482C290.814 32.7467 290.97 32.9806 291.076 33.25C291.189 33.5193 291.246 33.8064 291.246 34.1112C291.246 34.5578 291.136 34.9902 290.916 35.4084C290.697 35.8195 290.349 36.2413 289.874 36.6736C289.4 37.106 288.776 37.5703 288.003 38.0665V38.0878C288.088 38.0736 288.205 38.0665 288.354 38.0665C288.503 38.0594 288.652 38.0559 288.801 38.0559C288.949 38.0488 289.07 38.0452 289.162 38.0452H291.374V39.0234H286.493ZM295.328 39.1298C294.484 39.1298 293.822 38.825 293.34 38.2154C292.865 37.5987 292.627 36.6985 292.627 35.5147C292.627 34.331 292.865 33.4343 293.34 32.8247C293.822 32.208 294.484 31.8996 295.328 31.8996C296.179 31.8996 296.841 32.208 297.316 32.8247C297.798 33.4343 298.039 34.331 298.039 35.5147C298.039 36.6985 297.798 37.5987 297.316 38.2154C296.841 38.825 296.179 39.1298 295.328 39.1298ZM295.328 38.1622C295.668 38.1622 295.952 38.0665 296.179 37.8751C296.413 37.6767 296.586 37.3825 296.7 36.9926C296.82 36.5957 296.88 36.103 296.88 35.5147C296.88 34.9264 296.82 34.4373 296.7 34.0474C296.586 33.6505 296.413 33.3563 296.179 33.1649C295.952 32.9664 295.668 32.8672 295.328 32.8672C294.988 32.8672 294.701 32.9664 294.467 33.1649C294.24 33.3563 294.07 33.6505 293.956 34.0474C293.843 34.4373 293.786 34.9264 293.786 35.5147C293.786 36.103 293.843 36.5957 293.956 36.9926C294.07 37.3825 294.24 37.6767 294.467 37.8751C294.701 38.0665 294.988 38.1622 295.328 38.1622ZM299.41 39.0234V38.1941C300.084 37.7121 300.647 37.2868 301.101 36.9182C301.561 36.5496 301.93 36.2094 302.207 35.8975C302.483 35.5856 302.681 35.2914 302.802 35.015C302.93 34.7314 302.993 34.4444 302.993 34.1537C302.993 33.7781 302.876 33.4733 302.642 33.2393C302.409 33.0054 302.082 32.8885 301.664 32.8885C301.225 32.8885 300.874 33.0373 300.612 33.335C300.356 33.6257 300.211 34.0262 300.176 34.5365L299.187 34.0793C299.236 33.6327 299.368 33.2464 299.58 32.9204C299.793 32.5943 300.08 32.3427 300.442 32.1655C300.81 31.9883 301.235 31.8996 301.717 31.8996C302.114 31.8996 302.462 31.9564 302.759 32.0698C303.064 32.1832 303.319 32.3427 303.525 32.5482C303.731 32.7467 303.886 32.9806 303.993 33.25C304.106 33.5193 304.163 33.8064 304.163 34.1112C304.163 34.5578 304.053 34.9902 303.833 35.4084C303.614 35.8195 303.266 36.2413 302.791 36.6736C302.316 37.106 301.693 37.5703 300.92 38.0665V38.0878C301.005 38.0736 301.122 38.0665 301.271 38.0665C301.42 38.0594 301.569 38.0559 301.717 38.0559C301.866 38.0488 301.987 38.0452 302.079 38.0452H304.29V39.0234H299.41ZM308.022 39.1298C307.362 39.1298 306.788 38.9845 306.299 38.6938C305.817 38.3961 305.487 37.9815 305.31 37.4498L306.416 36.9288C306.48 37.184 306.579 37.4037 306.714 37.588C306.848 37.7723 307.026 37.9141 307.245 38.0133C307.465 38.1055 307.738 38.1516 308.064 38.1516C308.341 38.1516 308.574 38.102 308.766 38.0027C308.957 37.9035 309.103 37.7653 309.202 37.588C309.308 37.4108 309.361 37.2088 309.361 36.982C309.361 36.7481 309.315 36.5531 309.223 36.3972C309.138 36.2413 309 36.1278 308.808 36.057C308.624 35.9861 308.387 35.9506 308.096 35.9506C308.011 35.9506 307.922 35.9542 307.83 35.9613C307.745 35.9613 307.653 35.9684 307.554 35.9825V35.0256C307.618 35.0327 307.678 35.0398 307.735 35.0469C307.798 35.0469 307.859 35.0469 307.915 35.0469C308.376 35.0469 308.706 34.9547 308.904 34.7704C309.103 34.5861 309.202 34.2991 309.202 33.9092C309.202 33.576 309.099 33.3209 308.893 33.1437C308.695 32.9664 308.408 32.8778 308.032 32.8778C307.642 32.8778 307.338 32.97 307.118 33.1543C306.905 33.3315 306.742 33.5902 306.629 33.9305L305.587 33.4945C305.686 33.1685 305.853 32.8849 306.086 32.6439C306.32 32.4029 306.607 32.2186 306.948 32.091C307.295 31.9564 307.674 31.889 308.085 31.889C308.589 31.889 309.007 31.9705 309.34 32.1336C309.68 32.2966 309.932 32.5199 310.095 32.8034C310.265 33.0869 310.35 33.4024 310.35 33.7497C310.35 34.0191 310.311 34.2565 310.233 34.4621C310.155 34.6606 310.049 34.8342 309.914 34.9831C309.787 35.1248 309.645 35.2347 309.489 35.3127C309.34 35.3907 309.188 35.4438 309.032 35.4722V35.4934C309.237 35.5005 309.425 35.5431 309.595 35.621C309.772 35.6919 309.928 35.7947 310.063 35.9294C310.205 36.057 310.315 36.2129 310.393 36.3972C310.471 36.5815 310.51 36.7835 310.51 37.0033C310.51 37.4286 310.403 37.8007 310.191 38.1197C309.978 38.4386 309.684 38.6867 309.308 38.8639C308.94 39.0412 308.511 39.1298 308.022 39.1298Z" fill="#FDFFFC"/>
<circle cx="299.704" cy="54.2694" r="9.74648" fill="#252533" stroke="#FDFFFC" stroke-width="1.32907"/>
</svg>
